M48
; DRILL file {KiCad 6.0.0-rc2-unknown-a17a58203b~144~ubuntu21.04.1} date Do 23 Jun 2022 18:37:25 CEST
; FORMAT={-:-/ absolute / inch / decimal}
; #@! TF.CreationDate,2022-06-23T18:37:25+02:00
; #@! TF.GenerationSoftware,Kicad,Pcbnew,6.0.0-rc2-unknown-a17a58203b~144~ubuntu21.04.1
; #@! TF.FileFunction,Plated,1,2,PTH
FMAT,2
INCH
; #@! TA.AperFunction,Plated,PTH,ViaDrill
T1C0.0118
; #@! TA.AperFunction,Plated,PTH,ComponentDrill
T2C0.0394
; #@! TA.AperFunction,Plated,PTH,ComponentDrill
T3C0.0433
%
G90
G05
T1
X0.4287Y-0.5549
X0.4287Y-1.1957
X0.4287Y-1.8364
X0.4287Y-2.4772
X0.4287Y-3.1179
X0.4287Y-3.7587
X0.4287Y-4.3994
X0.4287Y-5.0402
X0.4287Y-5.6809
X0.4287Y-6.3217
X0.4287Y-6.9624
X0.4287Y-7.6031
X0.4287Y-8.2439
X0.4287Y-8.8846
X0.4287Y-9.5254
X0.4287Y-10.1661
X0.4287Y-10.8069
X0.4287Y-11.4476
X0.4287Y-12.0884
X0.4287Y-12.7291
X0.4287Y-13.3699
X0.4287Y-14.0106
X0.4287Y-14.6514
X0.4287Y-15.2921
X0.4287Y-15.9329
X0.4297Y-0.8512
X0.4297Y-1.4919
X0.4297Y-2.1327
X0.4297Y-2.7734
X0.4297Y-3.4142
X0.4297Y-4.0549
X0.4297Y-4.6957
X0.4297Y-5.3364
X0.4297Y-5.9772
X0.4297Y-6.6179
X0.4297Y-7.2587
X0.4297Y-7.8994
X0.4297Y-8.5402
X0.4297Y-9.1809
X0.4297Y-9.8217
X0.4297Y-10.4624
X0.4297Y-11.1031
X0.4297Y-11.7439
X0.4297Y-12.3846
X0.4297Y-13.0254
X0.4297Y-13.6661
X0.4297Y-14.3069
X0.4297Y-14.9476
X0.4297Y-15.5884
X0.4297Y-16.2291
X0.5478Y-0.8453
X0.5478Y-1.486
X0.5478Y-2.1268
X0.5478Y-2.7675
X0.5478Y-3.4083
X0.5478Y-4.049
X0.5478Y-4.6898
X0.5478Y-5.3305
X0.5478Y-5.9713
X0.5478Y-6.612
X0.5478Y-7.2528
X0.5478Y-7.8935
X0.5478Y-8.5343
X0.5478Y-9.175
X0.5478Y-9.8157
X0.5478Y-10.4565
X0.5478Y-11.0972
X0.5478Y-11.738
X0.5478Y-12.3787
X0.5478Y-13.0195
X0.5478Y-13.6602
X0.5478Y-14.301
X0.5478Y-14.9417
X0.5478Y-15.5825
X0.5478Y-16.2232
X0.5675Y-0.4201
X0.5675Y-1.0608
X0.5675Y-1.7016
X0.5675Y-2.3423
X0.5675Y-2.9831
X0.5675Y-3.6238
X0.5675Y-4.2646
X0.5675Y-4.9053
X0.5675Y-5.5461
X0.5675Y-6.1868
X0.5675Y-6.8276
X0.5675Y-7.4683
X0.5675Y-8.1091
X0.5675Y-8.7498
X0.5675Y-9.3906
X0.5675Y-10.0313
X0.5675Y-10.672
X0.5675Y-11.3128
X0.5675Y-11.9535
X0.5675Y-12.5943
X0.5675Y-13.235
X0.5675Y-13.8758
X0.5675Y-14.5165
X0.5675Y-15.1573
X0.5675Y-15.798
X0.5872Y-0.7921
X0.5872Y-1.4329
X0.5872Y-2.0736
X0.5872Y-2.7144
X0.5872Y-3.3551
X0.5872Y-3.9959
X0.5872Y-4.6366
X0.5872Y-5.2774
X0.5872Y-5.9181
X0.5872Y-6.5589
X0.5872Y-7.1996
X0.5872Y-7.8404
X0.5872Y-8.4811
X0.5872Y-9.1219
X0.5872Y-9.7626
X0.5872Y-10.4033
X0.5872Y-11.0441
X0.5872Y-11.6848
X0.5872Y-12.3256
X0.5872Y-12.9663
X0.5872Y-13.6071
X0.5872Y-14.2478
X0.5872Y-14.8886
X0.5872Y-15.5293
X0.5872Y-16.1701
X0.5882Y-0.6287
X0.5882Y-1.2695
X0.5882Y-1.9102
X0.5882Y-2.551
X0.5882Y-3.1917
X0.5882Y-3.8325
X0.5882Y-4.4732
X0.5882Y-5.114
X0.5882Y-5.7547
X0.5882Y-6.3955
X0.5882Y-7.0362
X0.5882Y-7.677
X0.5882Y-8.3177
X0.5882Y-8.9585
X0.5882Y-9.5992
X0.5882Y-10.24
X0.5882Y-10.8807
X0.5882Y-11.5215
X0.5882Y-12.1622
X0.5882Y-12.803
X0.5882Y-13.4437
X0.5882Y-14.0844
X0.5882Y-14.7252
X0.5882Y-15.3659
X0.5882Y-16.0067
X0.599Y-0.4939
X0.599Y-1.1346
X0.599Y-1.7754
X0.599Y-2.4161
X0.599Y-3.0569
X0.599Y-3.6976
X0.599Y-4.3384
X0.599Y-4.9791
X0.599Y-5.6199
X0.599Y-6.2606
X0.599Y-6.9014
X0.599Y-7.5421
X0.599Y-8.1829
X0.599Y-8.8236
X0.599Y-9.4644
X0.599Y-10.1051
X0.599Y-10.7459
X0.599Y-11.3866
X0.599Y-12.0274
X0.599Y-12.6681
X0.599Y-13.3089
X0.599Y-13.9496
X0.599Y-14.5904
X0.599Y-15.2311
X0.599Y-15.8719
X0.6128Y-0.5303
X0.6128Y-1.1711
X0.6128Y-1.8118
X0.6128Y-2.4526
X0.6128Y-3.0933
X0.6128Y-3.7341
X0.6128Y-4.3748
X0.6128Y-5.0156
X0.6128Y-5.6563
X0.6128Y-6.297
X0.6128Y-6.9378
X0.6128Y-7.5785
X0.6128Y-8.2193
X0.6128Y-8.86
X0.6128Y-9.5008
X0.6128Y-10.1415
X0.6128Y-10.7823
X0.6128Y-11.423
X0.6128Y-12.0638
X0.6128Y-12.7045
X0.6128Y-13.3453
X0.6128Y-13.986
X0.6128Y-14.6268
X0.6128Y-15.2675
X0.6128Y-15.9083
X0.6167Y-0.9368
X0.6167Y-1.5776
X0.6167Y-2.2183
X0.6167Y-2.8591
X0.6167Y-3.4998
X0.6167Y-4.1406
X0.6167Y-4.7813
X0.6167Y-5.422
X0.6167Y-6.0628
X0.6167Y-6.7035
X0.6167Y-7.3443
X0.6167Y-7.985
X0.6167Y-8.6258
X0.6167Y-9.2665
X0.6167Y-9.9073
X0.6167Y-10.548
X0.6167Y-11.1888
X0.6167Y-11.8295
X0.6167Y-12.4703
X0.6167Y-13.111
X0.6167Y-13.7518
X0.6167Y-14.3925
X0.6167Y-15.0333
X0.6167Y-15.674
X0.6167Y-16.3148
X0.6561Y-0.6209
X0.6561Y-1.2616
X0.6561Y-1.9024
X0.6561Y-2.5431
X0.6561Y-3.1839
X0.6561Y-3.8246
X0.6561Y-4.4654
X0.6561Y-5.1061
X0.6561Y-5.7469
X0.6561Y-6.3876
X0.6561Y-7.0283
X0.6561Y-7.6691
X0.6561Y-8.3098
X0.6561Y-8.9506
X0.6561Y-9.5913
X0.6561Y-10.2321
X0.6561Y-10.8728
X0.6561Y-11.5136
X0.6561Y-12.1543
X0.6561Y-12.7951
X0.6561Y-13.4358
X0.6561Y-14.0766
X0.6561Y-14.7173
X0.6561Y-15.3581
X0.6561Y-15.9988
X0.6709Y-0.4319
X0.6709Y-1.0726
X0.6709Y-1.7134
X0.6709Y-2.3541
X0.6709Y-2.9949
X0.6709Y-3.6356
X0.6709Y-4.2764
X0.6709Y-4.9171
X0.6709Y-5.5579
X0.6709Y-6.1986
X0.6709Y-6.8394
X0.6709Y-7.4801
X0.6709Y-8.1209
X0.6709Y-8.7616
X0.6709Y-9.4024
X0.6709Y-10.0431
X0.6709Y-10.6839
X0.6709Y-11.3246
X0.6709Y-11.9654
X0.6709Y-12.6061
X0.6709Y-13.2469
X0.6709Y-13.8876
X0.6709Y-14.5283
X0.6709Y-15.1691
X0.6709Y-15.8098
X0.6797Y-0.5933
X0.6797Y-1.2341
X0.6797Y-1.8748
X0.6797Y-2.5156
X0.6797Y-3.1563
X0.6797Y-3.797
X0.6797Y-4.4378
X0.6797Y-5.0785
X0.6797Y-5.7193
X0.6797Y-6.36
X0.6797Y-7.0008
X0.6797Y-7.6415
X0.6797Y-8.2823
X0.6797Y-8.923
X0.6797Y-9.5638
X0.6797Y-10.2045
X0.6797Y-10.8453
X0.6797Y-11.486
X0.6797Y-12.1268
X0.6797Y-12.7675
X0.6797Y-13.4083
X0.6797Y-14.049
X0.6797Y-14.6898
X0.6797Y-15.3305
X0.6797Y-15.9713
X0.6955Y-0.7193
X0.6955Y-1.36
X0.6955Y-2.0008
X0.6955Y-2.6415
X0.6955Y-3.2823
X0.6955Y-3.923
X0.6955Y-4.5638
X0.6955Y-5.2045
X0.6955Y-5.8453
X0.6955Y-6.486
X0.6955Y-7.1268
X0.6955Y-7.7675
X0.6955Y-8.4083
X0.6955Y-9.049
X0.6955Y-9.6898
X0.6955Y-10.3305
X0.6955Y-10.9713
X0.6955Y-11.612
X0.6955Y-12.2528
X0.6955Y-12.8935
X0.6955Y-13.5343
X0.6955Y-14.175
X0.6955Y-14.8157
X0.6955Y-15.4565
X0.6955Y-16.0972
X0.7001Y-0.7591
X0.7001Y-1.3998
X0.7001Y-2.0406
X0.7001Y-2.6813
X0.7001Y-3.3221
X0.7001Y-3.9628
X0.7001Y-4.6036
X0.7001Y-5.2443
X0.7001Y-5.8851
X0.7001Y-6.5258
X0.7001Y-7.1666
X0.7001Y-7.8073
X0.7001Y-8.4481
X0.7001Y-9.0888
X0.7001Y-9.7295
X0.7001Y-10.3703
X0.7001Y-11.011
X0.7001Y-11.6518
X0.7001Y-12.2925
X0.7001Y-12.9333
X0.7001Y-13.574
X0.7001Y-14.2148
X0.7001Y-14.8555
X0.7001Y-15.4963
X0.7001Y-16.137
X0.7152Y-0.6799
X0.7152Y-1.3207
X0.7152Y-1.9614
X0.7152Y-2.6022
X0.7152Y-3.2429
X0.7152Y-3.8837
X0.7152Y-4.5244
X0.7152Y-5.1652
X0.7152Y-5.8059
X0.7152Y-6.4467
X0.7152Y-7.0874
X0.7152Y-7.7281
X0.7152Y-8.3689
X0.7152Y-9.0096
X0.7152Y-9.6504
X0.7152Y-10.2911
X0.7152Y-10.9319
X0.7152Y-11.5726
X0.7152Y-12.2134
X0.7152Y-12.8541
X0.7152Y-13.4949
X0.7152Y-14.1356
X0.7152Y-14.7764
X0.7152Y-15.4171
X0.7152Y-16.0579
X0.7388Y-0.9909
X0.7388Y-1.6317
X0.7388Y-2.2724
X0.7388Y-2.9132
X0.7388Y-3.5539
X0.7388Y-4.1947
X0.7388Y-4.8354
X0.7388Y-5.4762
X0.7388Y-6.1169
X0.7388Y-6.7577
X0.7388Y-7.3984
X0.7388Y-8.0392
X0.7388Y-8.6799
X0.7388Y-9.3207
X0.7388Y-9.9614
X0.7388Y-10.6022
X0.7388Y-11.2429
X0.7388Y-11.8837
X0.7388Y-12.5244
X0.7388Y-13.1652
X0.7388Y-13.8059
X0.7388Y-14.4467
X0.7388Y-15.0874
X0.7388Y-15.7281
X0.7388Y-16.3689
X0.7742Y-0.6366
X0.7742Y-1.2774
X0.7742Y-1.9181
X0.7742Y-2.5589
X0.7742Y-3.1996
X0.7742Y-3.8404
X0.7742Y-4.4811
X0.7742Y-5.1219
X0.7742Y-5.7626
X0.7742Y-6.4033
X0.7742Y-7.0441
X0.7742Y-7.6848
X0.7742Y-8.3256
X0.7742Y-8.9663
X0.7742Y-9.6071
X0.7742Y-10.2478
X0.7742Y-10.8886
X0.7742Y-11.5293
X0.7742Y-12.1701
X0.7742Y-12.8108
X0.7742Y-13.4516
X0.7742Y-14.0923
X0.7742Y-14.7331
X0.7742Y-15.3738
X0.7742Y-16.0146
X0.7861Y-0.7213
X0.7861Y-1.362
X0.7861Y-2.0028
X0.7861Y-2.6435
X0.7861Y-3.2843
X0.7861Y-3.925
X0.7861Y-4.5657
X0.7861Y-5.2065
X0.7861Y-5.8472
X0.7861Y-6.488
X0.7861Y-7.1287
X0.7861Y-7.7695
X0.7861Y-8.4102
X0.7861Y-9.051
X0.7861Y-9.6917
X0.7861Y-10.3325
X0.7861Y-10.9732
X0.7861Y-11.614
X0.7861Y-12.2547
X0.7861Y-12.8955
X0.7861Y-13.5362
X0.7861Y-14.177
X0.7861Y-14.8177
X0.7861Y-15.4585
X0.7861Y-16.0992
X0.8293Y-0.6681
X0.8293Y-1.3089
X0.8293Y-1.9496
X0.8293Y-2.5904
X0.8293Y-3.2311
X0.8293Y-3.8719
X0.8293Y-4.5126
X0.8293Y-5.1533
X0.8293Y-5.7941
X0.8293Y-6.4348
X0.8293Y-7.0756
X0.8293Y-7.7163
X0.8293Y-8.3571
X0.8293Y-8.9978
X0.8293Y-9.6386
X0.8293Y-10.2793
X0.8293Y-10.9201
X0.8293Y-11.5608
X0.8293Y-12.2016
X0.8293Y-12.8423
X0.8293Y-13.4831
X0.8293Y-14.1238
X0.8293Y-14.7646
X0.8293Y-15.4053
X0.8293Y-16.0461
X0.8352Y-0.861
X0.8352Y-1.5018
X0.8352Y-2.1425
X0.8352Y-2.7833
X0.8352Y-3.424
X0.8352Y-4.0648
X0.8352Y-4.7055
X0.8352Y-5.3463
X0.8352Y-5.987
X0.8352Y-6.6278
X0.8352Y-7.2685
X0.8352Y-7.9093
X0.8352Y-8.55
X0.8352Y-9.1907
X0.8352Y-9.8315
X0.8352Y-10.4722
X0.8352Y-11.113
X0.8352Y-11.7537
X0.8352Y-12.3945
X0.8352Y-13.0352
X0.8352Y-13.676
X0.8352Y-14.3167
X0.8352Y-14.9575
X0.8352Y-15.5982
X0.8352Y-16.239
X0.851Y-0.8226
X0.851Y-1.4634
X0.851Y-2.1041
X0.851Y-2.7449
X0.851Y-3.3856
X0.851Y-4.0264
X0.851Y-4.6671
X0.851Y-5.3079
X0.851Y-5.9486
X0.851Y-6.5894
X0.851Y-7.2301
X0.851Y-7.8709
X0.851Y-8.5116
X0.851Y-9.1524
X0.851Y-9.7931
X0.851Y-10.4339
X0.851Y-11.0746
X0.851Y-11.7154
X0.851Y-12.3561
X0.851Y-12.9969
X0.851Y-13.6376
X0.851Y-14.2783
X0.851Y-14.9191
X0.851Y-15.5598
X0.851Y-16.2006
X0.8773Y-0.4648
X0.8773Y-1.1056
X0.8773Y-1.7463
X0.8773Y-2.3871
X0.8773Y-3.0278
X0.8773Y-3.6686
X0.8773Y-4.3093
X0.8773Y-4.9501
X0.8773Y-5.5908
X0.8773Y-6.2316
X0.8773Y-6.8723
X0.8773Y-7.5131
X0.8773Y-8.1538
X0.8773Y-8.7946
X0.8773Y-9.4353
X0.8773Y-10.076
X0.8773Y-10.7168
X0.8773Y-11.3575
X0.8773Y-11.9983
X0.8773Y-12.639
X0.8773Y-13.2798
X0.8773Y-13.9205
X0.8773Y-14.5613
X0.8773Y-15.202
X0.8773Y-15.8428
X0.8844Y-0.5224
X0.8844Y-1.1632
X0.8844Y-1.8039
X0.8844Y-2.4447
X0.8844Y-3.0854
X0.8844Y-3.7262
X0.8844Y-4.3669
X0.8844Y-5.0077
X0.8844Y-5.6484
X0.8844Y-6.2892
X0.8844Y-6.9299
X0.8844Y-7.5707
X0.8844Y-8.2114
X0.8844Y-8.8522
X0.8844Y-9.4929
X0.8844Y-10.1337
X0.8844Y-10.7744
X0.8844Y-11.4152
X0.8844Y-12.0559
X0.8844Y-12.6967
X0.8844Y-13.3374
X0.8844Y-13.9781
X0.8844Y-14.6189
X0.8844Y-15.2596
X0.8844Y-15.9004
X0.8923Y-0.4161
X0.8923Y-1.0569
X0.8923Y-1.6976
X0.8923Y-2.3384
X0.8923Y-2.9791
X0.8923Y-3.6199
X0.8923Y-4.2606
X0.8923Y-4.9014
X0.8923Y-5.5421
X0.8923Y-6.1829
X0.8923Y-6.8236
X0.8923Y-7.4644
X0.8923Y-8.1051
X0.8923Y-8.7459
X0.8923Y-9.3866
X0.8923Y-10.0274
X0.8923Y-10.6681
X0.8923Y-11.3089
X0.8923Y-11.9496
X0.8923Y-12.5904
X0.8923Y-13.2311
X0.8923Y-13.8719
X0.8923Y-14.5126
X0.8923Y-15.1533
X0.8923Y-15.7941
X0.8943Y-0.9201
X0.8943Y-1.5608
X0.8943Y-2.2016
X0.8943Y-2.8423
X0.8943Y-3.4831
X0.8943Y-4.1238
X0.8943Y-4.7646
X0.8943Y-5.4053
X0.8943Y-6.0461
X0.8943Y-6.6868
X0.8943Y-7.3276
X0.8943Y-7.9683
X0.8943Y-8.6091
X0.8943Y-9.2498
X0.8943Y-9.8906
X0.8943Y-10.5313
X0.8943Y-11.172
X0.8943Y-11.8128
X0.8943Y-12.4535
X0.8943Y-13.0943
X0.8943Y-13.735
X0.8943Y-14.3758
X0.8943Y-15.0165
X0.8943Y-15.6573
X0.8943Y-16.298
X0.91Y-0.6839
X0.91Y-1.3246
X0.91Y-1.9654
X0.91Y-2.6061
X0.91Y-3.2469
X0.91Y-3.8876
X0.91Y-4.5283
X0.91Y-5.1691
X0.91Y-5.8098
X0.91Y-6.4506
X0.91Y-7.0913
X0.91Y-7.7321
X0.91Y-8.3728
X0.91Y-9.0136
X0.91Y-9.6543
X0.91Y-10.2951
X0.91Y-10.9358
X0.91Y-11.5766
X0.91Y-12.2173
X0.91Y-12.8581
X0.91Y-13.4988
X0.91Y-14.1396
X0.91Y-14.7803
X0.91Y-15.4211
X0.91Y-16.0618
X0.9346Y-0.5205
X0.9346Y-1.1612
X0.9346Y-1.802
X0.9346Y-2.4427
X0.9346Y-3.0835
X0.9346Y-3.7242
X0.9346Y-4.365
X0.9346Y-5.0057
X0.9346Y-5.6465
X0.9346Y-6.2872
X0.9346Y-6.928
X0.9346Y-7.5687
X0.9346Y-8.2094
X0.9346Y-8.8502
X0.9346Y-9.4909
X0.9346Y-10.1317
X0.9346Y-10.7724
X0.9346Y-11.4132
X0.9346Y-12.0539
X0.9346Y-12.6947
X0.9346Y-13.3354
X0.9346Y-13.9762
X0.9346Y-14.6169
X0.9346Y-15.2577
X0.9346Y-15.8984
X0.9453Y-0.6368
X0.9453Y-1.2775
X0.9453Y-1.9183
X0.9453Y-2.559
X0.9453Y-3.1998
X0.9453Y-3.8405
X0.9453Y-4.4813
X0.9453Y-5.122
X0.9453Y-5.7627
X0.9453Y-6.4035
X0.9453Y-7.0442
X0.9453Y-7.685
X0.9453Y-8.3257
X0.9453Y-8.9665
X0.9453Y-9.6072
X0.9453Y-10.248
X0.9453Y-10.8887
X0.9453Y-11.5295
X0.9453Y-12.1702
X0.9453Y-12.811
X0.9453Y-13.4517
X0.9453Y-14.0925
X0.9453Y-14.7332
X0.9453Y-15.374
X0.9453Y-16.0147
X0.9533Y-0.861
X0.9533Y-1.5018
X0.9533Y-2.1425
X0.9533Y-2.7833
X0.9533Y-3.424
X0.9533Y-4.0648
X0.9533Y-4.7055
X0.9533Y-5.3463
X0.9533Y-5.987
X0.9533Y-6.6278
X0.9533Y-7.2685
X0.9533Y-7.9093
X0.9533Y-8.55
X0.9533Y-9.1907
X0.9533Y-9.8315
X0.9533Y-10.4722
X0.9533Y-11.113
X0.9533Y-11.7537
X0.9533Y-12.3945
X0.9533Y-13.0352
X0.9533Y-13.676
X0.9533Y-14.3167
X0.9533Y-14.9575
X0.9533Y-15.5982
X0.9533Y-16.239
X0.9553Y-0.4634
X0.9553Y-1.1041
X0.9553Y-1.7449
X0.9553Y-2.3856
X0.9553Y-3.0264
X0.9553Y-3.6671
X0.9553Y-4.3079
X0.9553Y-4.9486
X0.9553Y-5.5894
X0.9553Y-6.2301
X0.9553Y-6.8709
X0.9553Y-7.5116
X0.9553Y-8.1524
X0.9553Y-8.7931
X0.9553Y-9.4339
X0.9553Y-10.0746
X0.9553Y-10.7154
X0.9553Y-11.3561
X0.9553Y-11.9969
X0.9553Y-12.6376
X0.9553Y-13.2783
X0.9553Y-13.9191
X0.9553Y-14.5598
X0.9553Y-15.2006
X0.9553Y-15.8413
X0.971Y-0.6725
X0.971Y-1.3132
X0.971Y-1.954
X0.971Y-2.5947
X0.971Y-3.2355
X0.971Y-3.8762
X0.971Y-4.517
X0.971Y-5.1577
X0.971Y-5.7985
X0.971Y-6.4392
X0.971Y-7.08
X0.971Y-7.7207
X0.971Y-8.3615
X0.971Y-9.0022
X0.971Y-9.643
X0.971Y-10.2837
X0.971Y-10.9245
X0.971Y-11.5652
X0.971Y-12.206
X0.971Y-12.8467
X0.971Y-13.4874
X0.971Y-14.1282
X0.971Y-14.7689
X0.971Y-15.4097
X0.971Y-16.0504
X1.0006Y-0.7606
X1.0006Y-1.4014
X1.0006Y-2.0421
X1.0006Y-2.6829
X1.0006Y-3.3236
X1.0006Y-3.9644
X1.0006Y-4.6051
X1.0006Y-5.2459
X1.0006Y-5.8866
X1.0006Y-6.5274
X1.0006Y-7.1681
X1.0006Y-7.8089
X1.0006Y-8.4496
X1.0006Y-9.0904
X1.0006Y-9.7311
X1.0006Y-10.3719
X1.0006Y-11.0126
X1.0006Y-11.6533
X1.0006Y-12.2941
X1.0006Y-12.9348
X1.0006Y-13.5756
X1.0006Y-14.2163
X1.0006Y-14.8571
X1.0006Y-15.4978
X1.0006Y-16.1386
X1.0016Y-0.5028
X1.0016Y-1.1435
X1.0016Y-1.7843
X1.0016Y-2.425
X1.0016Y-3.0658
X1.0016Y-3.7065
X1.0016Y-4.3473
X1.0016Y-4.988
X1.0016Y-5.6288
X1.0016Y-6.2695
X1.0016Y-6.9103
X1.0016Y-7.551
X1.0016Y-8.1918
X1.0016Y-8.8325
X1.0016Y-9.4732
X1.0016Y-10.114
X1.0016Y-10.7547
X1.0016Y-11.3955
X1.0016Y-12.0362
X1.0016Y-12.677
X1.0016Y-13.3177
X1.0016Y-13.9585
X1.0016Y-14.5992
X1.0016Y-15.24
X1.0016Y-15.8807
X1.0189Y-0.7894
X1.0189Y-1.4301
X1.0189Y-2.0709
X1.0189Y-2.7116
X1.0189Y-3.3524
X1.0189Y-3.9931
X1.0189Y-4.6339
X1.0189Y-5.2746
X1.0189Y-5.9154
X1.0189Y-6.5561
X1.0189Y-7.1969
X1.0189Y-7.8376
X1.0189Y-8.4784
X1.0189Y-9.1191
X1.0189Y-9.7598
X1.0189Y-10.4006
X1.0189Y-11.0413
X1.0189Y-11.6821
X1.0189Y-12.3228
X1.0189Y-12.9636
X1.0189Y-13.6043
X1.0189Y-14.2451
X1.0189Y-14.8858
X1.0189Y-15.5266
X1.0189Y-16.1673
X1.0232Y-0.8541
X1.0232Y-1.4949
X1.0232Y-2.1356
X1.0232Y-2.7764
X1.0232Y-3.4171
X1.0232Y-4.0579
X1.0232Y-4.6986
X1.0232Y-5.3394
X1.0232Y-5.9801
X1.0232Y-6.6209
X1.0232Y-7.2616
X1.0232Y-7.9024
X1.0232Y-8.5431
X1.0232Y-9.1839
X1.0232Y-9.8246
X1.0232Y-10.4654
X1.0232Y-11.1061
X1.0232Y-11.7469
X1.0232Y-12.3876
X1.0232Y-13.0283
X1.0232Y-13.6691
X1.0232Y-14.3098
X1.0232Y-14.9506
X1.0232Y-15.5913
X1.0232Y-16.2321
X1.0596Y-0.6327
X1.0596Y-0.7528
X1.0596Y-1.2734
X1.0596Y-1.3935
X1.0596Y-1.9142
X1.0596Y-2.0343
X1.0596Y-2.5549
X1.0596Y-2.675
X1.0596Y-3.1957
X1.0596Y-3.3157
X1.0596Y-3.8364
X1.0596Y-3.9565
X1.0596Y-4.4772
X1.0596Y-4.5972
X1.0596Y-5.1179
X1.0596Y-5.238
X1.0596Y-5.7587
X1.0596Y-5.8787
X1.0596Y-6.3994
X1.0596Y-6.5195
X1.0596Y-7.0402
X1.0596Y-7.1602
X1.0596Y-7.6809
X1.0596Y-7.801
X1.0596Y-8.3217
X1.0596Y-8.4417
X1.0596Y-8.9624
X1.0596Y-9.0825
X1.0596Y-9.6031
X1.0596Y-9.7232
X1.0596Y-10.2439
X1.0596Y-10.364
X1.0596Y-10.8846
X1.0596Y-11.0047
X1.0596Y-11.5254
X1.0596Y-11.6455
X1.0596Y-12.1661
X1.0596Y-12.2862
X1.0596Y-12.8069
X1.0596Y-12.927
X1.0596Y-13.4476
X1.0596Y-13.5677
X1.0596Y-14.0884
X1.0596Y-14.2085
X1.0596Y-14.7291
X1.0596Y-14.8492
X1.0596Y-15.3699
X1.0596Y-15.49
X1.0596Y-16.0106
X1.0596Y-16.1307
X1.0711Y-0.5425
X1.0711Y-1.1833
X1.0711Y-1.824
X1.0711Y-2.4648
X1.0711Y-3.1055
X1.0711Y-3.7463
X1.0711Y-4.387
X1.0711Y-5.0278
X1.0711Y-5.6685
X1.0711Y-6.3093
X1.0711Y-6.95
X1.0711Y-7.5907
X1.0711Y-8.2315
X1.0711Y-8.8722
X1.0711Y-9.513
X1.0711Y-10.1537
X1.0711Y-10.7945
X1.0711Y-11.4352
X1.0711Y-12.076
X1.0711Y-12.7167
X1.0711Y-13.3575
X1.0711Y-13.9982
X1.0711Y-14.639
X1.0711Y-15.2797
X1.0711Y-15.9205
X1.103Y-0.8492
X1.103Y-1.49
X1.103Y-2.1307
X1.103Y-2.7715
X1.103Y-3.4122
X1.103Y-4.053
X1.103Y-4.6937
X1.103Y-5.3344
X1.103Y-5.9752
X1.103Y-6.6159
X1.103Y-7.2567
X1.103Y-7.8974
X1.103Y-8.5382
X1.103Y-9.1789
X1.103Y-9.8197
X1.103Y-10.4604
X1.103Y-11.1012
X1.103Y-11.7419
X1.103Y-12.3827
X1.103Y-13.0234
X1.103Y-13.6642
X1.103Y-14.3049
X1.103Y-14.9457
X1.103Y-15.5864
X1.103Y-16.2272
X1.1196Y-0.5628
X1.1196Y-1.2035
X1.1196Y-1.8443
X1.1196Y-2.485
X1.1196Y-3.1258
X1.1196Y-3.7665
X1.1196Y-4.4073
X1.1196Y-5.048
X1.1196Y-5.6888
X1.1196Y-6.3295
X1.1196Y-6.9703
X1.1196Y-7.611
X1.1196Y-8.2518
X1.1196Y-8.8925
X1.1196Y-9.5333
X1.1196Y-10.174
X1.1196Y-10.8148
X1.1196Y-11.4555
X1.1196Y-12.0962
X1.1196Y-12.737
X1.1196Y-13.3777
X1.1196Y-14.0185
X1.1196Y-14.6592
X1.1196Y-15.3
X1.1196Y-15.9407
X1.133Y-0.7796
X1.133Y-1.4203
X1.133Y-2.0611
X1.133Y-2.7018
X1.133Y-3.3426
X1.133Y-3.9833
X1.133Y-4.6241
X1.133Y-5.2648
X1.133Y-5.9056
X1.133Y-6.5463
X1.133Y-7.1871
X1.133Y-7.8278
X1.133Y-8.4686
X1.133Y-9.1093
X1.133Y-9.7501
X1.133Y-10.3908
X1.133Y-11.0316
X1.133Y-11.6723
X1.133Y-12.3131
X1.133Y-12.9538
X1.133Y-13.5946
X1.133Y-14.2353
X1.133Y-14.8761
X1.133Y-15.5168
X1.133Y-16.1576
X1.1581Y-0.5638
X1.1581Y-1.2045
X1.1581Y-1.8453
X1.1581Y-2.486
X1.1581Y-3.1268
X1.1581Y-3.7675
X1.1581Y-4.4083
X1.1581Y-5.049
X1.1581Y-5.6898
X1.1581Y-6.3305
X1.1581Y-6.9713
X1.1581Y-7.612
X1.1581Y-8.2528
X1.1581Y-8.8935
X1.1581Y-9.5343
X1.1581Y-10.175
X1.1581Y-10.8157
X1.1581Y-11.4565
X1.1581Y-12.0972
X1.1581Y-12.738
X1.1581Y-13.3787
X1.1581Y-14.0195
X1.1581Y-14.6602
X1.1581Y-15.301
X1.1581Y-15.9417
X1.1595Y-0.7473
X1.1595Y-1.388
X1.1595Y-2.0288
X1.1595Y-2.6695
X1.1595Y-3.3103
X1.1595Y-3.951
X1.1595Y-4.5918
X1.1595Y-5.2325
X1.1595Y-5.8733
X1.1595Y-6.514
X1.1595Y-7.1548
X1.1595Y-7.7955
X1.1595Y-8.4362
X1.1595Y-9.077
X1.1595Y-9.7177
X1.1595Y-10.3585
X1.1595Y-10.9992
X1.1595Y-11.64
X1.1595Y-12.2807
X1.1595Y-12.9215
X1.1595Y-13.5622
X1.1595Y-14.203
X1.1595Y-14.8437
X1.1595Y-15.4845
X1.1595Y-16.1252
X1.1679Y-0.6858
X1.1679Y-1.3266
X1.1679Y-1.9673
X1.1679Y-2.6081
X1.1679Y-3.2488
X1.1679Y-3.8896
X1.1679Y-4.5303
X1.1679Y-5.1711
X1.1679Y-5.8118
X1.1679Y-6.4526
X1.1679Y-7.0933
X1.1679Y-7.7341
X1.1679Y-8.3748
X1.1679Y-9.0156
X1.1679Y-9.6563
X1.1679Y-10.297
X1.1679Y-10.9378
X1.1679Y-11.5785
X1.1679Y-12.2193
X1.1679Y-12.86
X1.1679Y-13.5008
X1.1679Y-14.1415
X1.1679Y-14.7823
X1.1679Y-15.423
X1.1679Y-16.0638
X1.1748Y-0.8239
X1.1748Y-1.4646
X1.1748Y-2.1054
X1.1748Y-2.7461
X1.1748Y-3.3869
X1.1748Y-4.0276
X1.1748Y-4.6684
X1.1748Y-5.3091
X1.1748Y-5.9499
X1.1748Y-6.5906
X1.1748Y-7.2314
X1.1748Y-7.8721
X1.1748Y-8.5129
X1.1748Y-9.1536
X1.1748Y-9.7944
X1.1748Y-10.4351
X1.1748Y-11.0759
X1.1748Y-11.7166
X1.1748Y-12.3574
X1.1748Y-12.9981
X1.1748Y-13.6389
X1.1748Y-14.2796
X1.1748Y-14.9204
X1.1748Y-15.5611
X1.1748Y-16.2018
X1.1994Y-0.802
X1.1994Y-1.4427
X1.1994Y-2.0835
X1.1994Y-2.7242
X1.1994Y-3.365
X1.1994Y-4.0057
X1.1994Y-4.6465
X1.1994Y-5.2872
X1.1994Y-5.928
X1.1994Y-6.5687
X1.1994Y-7.2094
X1.1994Y-7.8502
X1.1994Y-8.4909
X1.1994Y-9.1317
X1.1994Y-9.7724
X1.1994Y-10.4132
X1.1994Y-11.0539
X1.1994Y-11.6947
X1.1994Y-12.3354
X1.1994Y-12.9762
X1.1994Y-13.6169
X1.1994Y-14.2577
X1.1994Y-14.8984
X1.1994Y-15.5392
X1.1994Y-16.1799
X1.2152Y-0.4358
X1.2152Y-1.0766
X1.2152Y-1.7173
X1.2152Y-2.3581
X1.2152Y-2.9988
X1.2152Y-3.6396
X1.2152Y-4.2803
X1.2152Y-4.9211
X1.2152Y-5.5618
X1.2152Y-6.2026
X1.2152Y-6.8433
X1.2152Y-7.4841
X1.2152Y-8.1248
X1.2152Y-8.7656
X1.2152Y-9.4063
X1.2152Y-10.047
X1.2152Y-10.6878
X1.2152Y-11.3285
X1.2152Y-11.9693
X1.2152Y-12.61
X1.2152Y-13.2508
X1.2152Y-13.8915
X1.2152Y-14.5323
X1.2152Y-15.173
X1.2152Y-15.8138
X1.2868Y-0.9923
X1.2868Y-1.6331
X1.2868Y-2.2738
X1.2868Y-2.9146
X1.2868Y-3.5553
X1.2868Y-4.1961
X1.2868Y-4.8368
X1.2868Y-5.4776
X1.2868Y-6.1183
X1.2868Y-6.7591
X1.2868Y-7.3998
X1.2868Y-8.0406
X1.2868Y-8.6813
X1.2868Y-9.322
X1.2868Y-9.9628
X1.2868Y-10.6035
X1.2868Y-11.2443
X1.2868Y-11.885
X1.2868Y-12.5258
X1.2868Y-13.1665
X1.2868Y-13.8073
X1.2868Y-14.448
X1.2868Y-15.0888
X1.2868Y-15.7295
X1.2868Y-16.3703
X1.3026Y-0.6262
X1.3026Y-1.2669
X1.3026Y-1.9077
X1.3026Y-2.5484
X1.3026Y-3.1892
X1.3026Y-3.8299
X1.3026Y-4.4707
X1.3026Y-5.1114
X1.3026Y-5.7522
X1.3026Y-6.3929
X1.3026Y-7.0337
X1.3026Y-7.6744
X1.3026Y-8.3152
X1.3026Y-8.9559
X1.3026Y-9.5967
X1.3026Y-10.2374
X1.3026Y-10.8781
X1.3026Y-11.5189
X1.3026Y-12.1596
X1.3026Y-12.8004
X1.3026Y-13.4411
X1.3026Y-14.0819
X1.3026Y-14.7226
X1.3026Y-15.3634
X1.3026Y-16.0041
X1.3271Y-0.6043
X1.3271Y-1.245
X1.3271Y-1.8858
X1.3271Y-2.5265
X1.3271Y-3.1672
X1.3271Y-3.808
X1.3271Y-4.4487
X1.3271Y-5.0895
X1.3271Y-5.7302
X1.3271Y-6.371
X1.3271Y-7.0117
X1.3271Y-7.6525
X1.3271Y-8.2932
X1.3271Y-8.934
X1.3271Y-9.5747
X1.3271Y-10.2155
X1.3271Y-10.8562
X1.3271Y-11.497
X1.3271Y-12.1377
X1.3271Y-12.7785
X1.3271Y-13.4192
X1.3271Y-14.06
X1.3271Y-14.7007
X1.3271Y-15.3415
X1.3271Y-15.9822
X1.3341Y-0.7423
X1.3341Y-1.3831
X1.3341Y-2.0238
X1.3341Y-2.6646
X1.3341Y-3.3053
X1.3341Y-3.9461
X1.3341Y-4.5868
X1.3341Y-5.2276
X1.3341Y-5.8683
X1.3341Y-6.5091
X1.3341Y-7.1498
X1.3341Y-7.7906
X1.3341Y-8.4313
X1.3341Y-9.072
X1.3341Y-9.7128
X1.3341Y-10.3535
X1.3341Y-10.9943
X1.3341Y-11.635
X1.3341Y-12.2758
X1.3341Y-12.9165
X1.3341Y-13.5573
X1.3341Y-14.198
X1.3341Y-14.8388
X1.3341Y-15.4795
X1.3341Y-16.1203
X1.3424Y-0.6809
X1.3424Y-1.3216
X1.3424Y-1.9624
X1.3424Y-2.6031
X1.3424Y-3.2439
X1.3424Y-3.8846
X1.3424Y-4.5254
X1.3424Y-5.1661
X1.3424Y-5.8069
X1.3424Y-6.4476
X1.3424Y-7.0884
X1.3424Y-7.7291
X1.3424Y-8.3699
X1.3424Y-9.0106
X1.3424Y-9.6513
X1.3424Y-10.2921
X1.3424Y-10.9328
X1.3424Y-11.5736
X1.3424Y-12.2143
X1.3424Y-12.8551
X1.3424Y-13.4958
X1.3424Y-14.1366
X1.3424Y-14.7773
X1.3424Y-15.4181
X1.3424Y-16.0588
X1.3439Y-0.8644
X1.3439Y-1.5051
X1.3439Y-2.1459
X1.3439Y-2.7866
X1.3439Y-3.4274
X1.3439Y-4.0681
X1.3439Y-4.7089
X1.3439Y-5.3496
X1.3439Y-5.9904
X1.3439Y-6.6311
X1.3439Y-7.2719
X1.3439Y-7.9126
X1.3439Y-8.5533
X1.3439Y-9.1941
X1.3439Y-9.8348
X1.3439Y-10.4756
X1.3439Y-11.1163
X1.3439Y-11.7571
X1.3439Y-12.3978
X1.3439Y-13.0386
X1.3439Y-13.6793
X1.3439Y-14.3201
X1.3439Y-14.9608
X1.3439Y-15.6016
X1.3439Y-16.2423
X1.3689Y-0.6485
X1.3689Y-1.2893
X1.3689Y-1.93
X1.3689Y-2.5708
X1.3689Y-3.2115
X1.3689Y-3.8523
X1.3689Y-4.493
X1.3689Y-5.1338
X1.3689Y-5.7745
X1.3689Y-6.4153
X1.3689Y-7.056
X1.3689Y-7.6968
X1.3689Y-8.3375
X1.3689Y-8.9783
X1.3689Y-9.619
X1.3689Y-10.2598
X1.3689Y-10.9005
X1.3689Y-11.5413
X1.3689Y-12.182
X1.3689Y-12.8228
X1.3689Y-13.4635
X1.3689Y-14.1043
X1.3689Y-14.745
X1.3689Y-15.3858
X1.3689Y-16.0265
X1.3823Y-0.8654
X1.3823Y-1.5061
X1.3823Y-2.1469
X1.3823Y-2.7876
X1.3823Y-3.4284
X1.3823Y-4.0691
X1.3823Y-4.7099
X1.3823Y-5.3506
X1.3823Y-5.9913
X1.3823Y-6.6321
X1.3823Y-7.2728
X1.3823Y-7.9136
X1.3823Y-8.5543
X1.3823Y-9.1951
X1.3823Y-9.8358
X1.3823Y-10.4766
X1.3823Y-11.1173
X1.3823Y-11.7581
X1.3823Y-12.3988
X1.3823Y-13.0396
X1.3823Y-13.6803
X1.3823Y-14.3211
X1.3823Y-14.9618
X1.3823Y-15.6026
X1.3823Y-16.2433
X1.399Y-0.5789
X1.399Y-1.2197
X1.399Y-1.8604
X1.399Y-2.5012
X1.399Y-3.1419
X1.399Y-3.7827
X1.399Y-4.4234
X1.399Y-5.0642
X1.399Y-5.7049
X1.399Y-6.3457
X1.399Y-6.9864
X1.399Y-7.6272
X1.399Y-8.2679
X1.399Y-8.9087
X1.399Y-9.5494
X1.399Y-10.1902
X1.399Y-10.8309
X1.399Y-11.4717
X1.399Y-12.1124
X1.399Y-12.7531
X1.399Y-13.3939
X1.399Y-14.0346
X1.399Y-14.6754
X1.399Y-15.3161
X1.399Y-15.9569
X1.4309Y-0.8856
X1.4309Y-1.5264
X1.4309Y-2.1671
X1.4309Y-2.8079
X1.4309Y-3.4486
X1.4309Y-4.0894
X1.4309Y-4.7301
X1.4309Y-5.3709
X1.4309Y-6.0116
X1.4309Y-6.6524
X1.4309Y-7.2931
X1.4309Y-7.9339
X1.4309Y-8.5746
X1.4309Y-9.2154
X1.4309Y-9.8561
X1.4309Y-10.4968
X1.4309Y-11.1376
X1.4309Y-11.7783
X1.4309Y-12.4191
X1.4309Y-13.0598
X1.4309Y-13.7006
X1.4309Y-14.3413
X1.4309Y-14.9821
X1.4309Y-15.6228
X1.4309Y-16.2636
X1.4423Y-0.6754
X1.4423Y-0.7955
X1.4423Y-1.3161
X1.4423Y-1.4362
X1.4423Y-1.9569
X1.4423Y-2.077
X1.4423Y-2.5976
X1.4423Y-2.7177
X1.4423Y-3.2384
X1.4423Y-3.3585
X1.4423Y-3.8791
X1.4423Y-3.9992
X1.4423Y-4.5199
X1.4423Y-4.64
X1.4423Y-5.1606
X1.4423Y-5.2807
X1.4423Y-5.8014
X1.4423Y-5.9215
X1.4423Y-6.4421
X1.4423Y-6.5622
X1.4423Y-7.0829
X1.4423Y-7.203
X1.4423Y-7.7236
X1.4423Y-7.8437
X1.4423Y-8.3644
X1.4423Y-8.4844
X1.4423Y-9.0051
X1.4423Y-9.1252
X1.4423Y-9.6459
X1.4423Y-9.7659
X1.4423Y-10.2866
X1.4423Y-10.4067
X1.4423Y-10.9274
X1.4423Y-11.0474
X1.4423Y-11.5681
X1.4423Y-11.6882
X1.4423Y-12.2089
X1.4423Y-12.3289
X1.4423Y-12.8496
X1.4423Y-12.9697
X1.4423Y-13.4904
X1.4423Y-13.6104
X1.4423Y-14.1311
X1.4423Y-14.2512
X1.4423Y-14.7719
X1.4423Y-14.8919
X1.4423Y-15.4126
X1.4423Y-15.5327
X1.4423Y-16.0533
X1.4423Y-16.1734
X1.4787Y-0.574
X1.4787Y-1.2148
X1.4787Y-1.8555
X1.4787Y-2.4963
X1.4787Y-3.137
X1.4787Y-3.7778
X1.4787Y-4.4185
X1.4787Y-5.0593
X1.4787Y-5.7
X1.4787Y-6.3407
X1.4787Y-6.9815
X1.4787Y-7.6222
X1.4787Y-8.263
X1.4787Y-8.9037
X1.4787Y-9.5445
X1.4787Y-10.1852
X1.4787Y-10.826
X1.4787Y-11.4667
X1.4787Y-12.1075
X1.4787Y-12.7482
X1.4787Y-13.389
X1.4787Y-14.0297
X1.4787Y-14.6705
X1.4787Y-15.3112
X1.4787Y-15.952
X1.4831Y-0.6388
X1.4831Y-1.2795
X1.4831Y-1.9203
X1.4831Y-2.561
X1.4831Y-3.2018
X1.4831Y-3.8425
X1.4831Y-4.4833
X1.4831Y-5.124
X1.4831Y-5.7648
X1.4831Y-6.4055
X1.4831Y-7.0463
X1.4831Y-7.687
X1.4831Y-8.3278
X1.4831Y-8.9685
X1.4831Y-9.6092
X1.4831Y-10.25
X1.4831Y-10.8907
X1.4831Y-11.5315
X1.4831Y-12.1722
X1.4831Y-12.813
X1.4831Y-13.4537
X1.4831Y-14.0945
X1.4831Y-14.7352
X1.4831Y-15.376
X1.4831Y-16.0167
X1.5004Y-0.9254
X1.5004Y-1.5661
X1.5004Y-2.2069
X1.5004Y-2.8476
X1.5004Y-3.4884
X1.5004Y-4.1291
X1.5004Y-4.7699
X1.5004Y-5.4106
X1.5004Y-6.0514
X1.5004Y-6.6921
X1.5004Y-7.3329
X1.5004Y-7.9736
X1.5004Y-8.6143
X1.5004Y-9.2551
X1.5004Y-9.8958
X1.5004Y-10.5366
X1.5004Y-11.1773
X1.5004Y-11.8181
X1.5004Y-12.4588
X1.5004Y-13.0996
X1.5004Y-13.7403
X1.5004Y-14.3811
X1.5004Y-15.0218
X1.5004Y-15.6626
X1.5004Y-16.3033
X1.5014Y-0.6675
X1.5014Y-1.3083
X1.5014Y-1.949
X1.5014Y-2.5898
X1.5014Y-3.2305
X1.5014Y-3.8713
X1.5014Y-4.512
X1.5014Y-5.1528
X1.5014Y-5.7935
X1.5014Y-6.4343
X1.5014Y-7.075
X1.5014Y-7.7157
X1.5014Y-8.3565
X1.5014Y-8.9972
X1.5014Y-9.638
X1.5014Y-10.2787
X1.5014Y-10.9195
X1.5014Y-11.5602
X1.5014Y-12.201
X1.5014Y-12.8417
X1.5014Y-13.4825
X1.5014Y-14.1232
X1.5014Y-14.764
X1.5014Y-15.4047
X1.5014Y-16.0455
X1.531Y-0.7557
X1.531Y-1.3964
X1.531Y-2.0372
X1.531Y-2.6779
X1.531Y-3.3187
X1.531Y-3.9594
X1.531Y-4.6002
X1.531Y-5.2409
X1.531Y-5.8816
X1.531Y-6.5224
X1.531Y-7.1631
X1.531Y-7.8039
X1.531Y-8.4446
X1.531Y-9.0854
X1.531Y-9.7261
X1.531Y-10.3669
X1.531Y-11.0076
X1.531Y-11.6484
X1.531Y-12.2891
X1.531Y-12.9299
X1.531Y-13.5706
X1.531Y-14.2114
X1.531Y-14.8521
X1.531Y-15.4929
X1.531Y-16.1336
X1.5467Y-0.9648
X1.5467Y-1.6055
X1.5467Y-2.2463
X1.5467Y-2.887
X1.5467Y-3.5278
X1.5467Y-4.1685
X1.5467Y-4.8093
X1.5467Y-5.45
X1.5467Y-6.0907
X1.5467Y-6.7315
X1.5467Y-7.3722
X1.5467Y-8.013
X1.5467Y-8.6537
X1.5467Y-9.2945
X1.5467Y-9.9352
X1.5467Y-10.576
X1.5467Y-11.2167
X1.5467Y-11.8575
X1.5467Y-12.4982
X1.5467Y-13.139
X1.5467Y-13.7797
X1.5467Y-14.4205
X1.5467Y-15.0612
X1.5467Y-15.702
X1.5467Y-16.3427
X1.5486Y-0.5671
X1.5486Y-1.2079
X1.5486Y-1.8486
X1.5486Y-2.4894
X1.5486Y-3.1301
X1.5486Y-3.7709
X1.5486Y-4.4116
X1.5486Y-5.0524
X1.5486Y-5.6931
X1.5486Y-6.3339
X1.5486Y-6.9746
X1.5486Y-7.6154
X1.5486Y-8.2561
X1.5486Y-8.8969
X1.5486Y-9.5376
X1.5486Y-10.1783
X1.5486Y-10.8191
X1.5486Y-11.4598
X1.5486Y-12.1006
X1.5486Y-12.7413
X1.5486Y-13.3821
X1.5486Y-14.0228
X1.5486Y-14.6636
X1.5486Y-15.3043
X1.5486Y-15.9451
X1.5566Y-0.7914
X1.5566Y-1.4321
X1.5566Y-2.0729
X1.5566Y-2.7136
X1.5566Y-3.3544
X1.5566Y-3.9951
X1.5566Y-4.6359
X1.5566Y-5.2766
X1.5566Y-5.9174
X1.5566Y-6.5581
X1.5566Y-7.1989
X1.5566Y-7.8396
X1.5566Y-8.4804
X1.5566Y-9.1211
X1.5566Y-9.7619
X1.5566Y-10.4026
X1.5566Y-11.0434
X1.5566Y-11.6841
X1.5566Y-12.3248
X1.5566Y-12.9656
X1.5566Y-13.6063
X1.5566Y-14.2471
X1.5566Y-14.8878
X1.5566Y-15.5286
X1.5566Y-16.1693
X1.5673Y-0.9077
X1.5673Y-1.5484
X1.5673Y-2.1892
X1.5673Y-2.8299
X1.5673Y-3.4707
X1.5673Y-4.1114
X1.5673Y-4.7522
X1.5673Y-5.3929
X1.5673Y-6.0337
X1.5673Y-6.6744
X1.5673Y-7.3152
X1.5673Y-7.9559
X1.5673Y-8.5967
X1.5673Y-9.2374
X1.5673Y-9.8781
X1.5673Y-10.5189
X1.5673Y-11.1596
X1.5673Y-11.8004
X1.5673Y-12.4411
X1.5673Y-13.0819
X1.5673Y-13.7226
X1.5673Y-14.3634
X1.5673Y-15.0041
X1.5673Y-15.6449
X1.5673Y-16.2856
X1.5919Y-0.7443
X1.5919Y-1.385
X1.5919Y-2.0258
X1.5919Y-2.6665
X1.5919Y-3.3073
X1.5919Y-3.948
X1.5919Y-4.5888
X1.5919Y-5.2295
X1.5919Y-5.8703
X1.5919Y-6.511
X1.5919Y-7.1518
X1.5919Y-7.7925
X1.5919Y-8.4333
X1.5919Y-9.074
X1.5919Y-9.7148
X1.5919Y-10.3555
X1.5919Y-10.9963
X1.5919Y-11.637
X1.5919Y-12.2778
X1.5919Y-12.9185
X1.5919Y-13.5593
X1.5919Y-14.2
X1.5919Y-14.8407
X1.5919Y-15.4815
X1.5919Y-16.1222
X1.6077Y-0.5081
X1.6077Y-1.1488
X1.6077Y-1.7896
X1.6077Y-2.4303
X1.6077Y-3.0711
X1.6077Y-3.7118
X1.6077Y-4.3526
X1.6077Y-4.9933
X1.6077Y-5.6341
X1.6077Y-6.2748
X1.6077Y-6.9156
X1.6077Y-7.5563
X1.6077Y-8.197
X1.6077Y-8.8378
X1.6077Y-9.4785
X1.6077Y-10.1193
X1.6077Y-10.76
X1.6077Y-11.4008
X1.6077Y-12.0415
X1.6077Y-12.6823
X1.6077Y-13.323
X1.6077Y-13.9638
X1.6077Y-14.6045
X1.6077Y-15.2453
X1.6077Y-15.886
X1.6096Y-1.012
X1.6096Y-1.6528
X1.6096Y-2.2935
X1.6096Y-2.9343
X1.6096Y-3.575
X1.6096Y-4.2157
X1.6096Y-4.8565
X1.6096Y-5.4972
X1.6096Y-6.138
X1.6096Y-6.7787
X1.6096Y-7.4195
X1.6096Y-8.0602
X1.6096Y-8.701
X1.6096Y-9.3417
X1.6096Y-9.9825
X1.6096Y-10.6232
X1.6096Y-11.264
X1.6096Y-11.9047
X1.6096Y-12.5455
X1.6096Y-13.1862
X1.6096Y-13.827
X1.6096Y-14.4677
X1.6096Y-15.1085
X1.6096Y-15.7492
X1.6096Y-16.39
X1.6175Y-0.9057
X1.6175Y-1.5465
X1.6175Y-2.1872
X1.6175Y-2.828
X1.6175Y-3.4687
X1.6175Y-4.1094
X1.6175Y-4.7502
X1.6175Y-5.3909
X1.6175Y-6.0317
X1.6175Y-6.6724
X1.6175Y-7.3132
X1.6175Y-7.9539
X1.6175Y-8.5947
X1.6175Y-9.2354
X1.6175Y-9.8762
X1.6175Y-10.5169
X1.6175Y-11.1577
X1.6175Y-11.7984
X1.6175Y-12.4392
X1.6175Y-13.0799
X1.6175Y-13.7207
X1.6175Y-14.3614
X1.6175Y-15.0022
X1.6175Y-15.6429
X1.6175Y-16.2837
X1.6247Y-0.9633
X1.6247Y-1.6041
X1.6247Y-2.2448
X1.6247Y-2.8856
X1.6247Y-3.5263
X1.6247Y-4.1671
X1.6247Y-4.8078
X1.6247Y-5.4486
X1.6247Y-6.0893
X1.6247Y-6.7301
X1.6247Y-7.3708
X1.6247Y-8.0116
X1.6247Y-8.6523
X1.6247Y-9.293
X1.6247Y-9.9338
X1.6247Y-10.5745
X1.6247Y-11.2153
X1.6247Y-11.856
X1.6247Y-12.4968
X1.6247Y-13.1375
X1.6247Y-13.7783
X1.6247Y-14.419
X1.6247Y-15.0598
X1.6247Y-15.7005
X1.6247Y-16.3413
X1.651Y-0.6055
X1.651Y-1.2463
X1.651Y-1.887
X1.651Y-2.5278
X1.651Y-3.1685
X1.651Y-3.8093
X1.651Y-4.45
X1.651Y-5.0907
X1.651Y-5.7315
X1.651Y-6.3722
X1.651Y-7.013
X1.651Y-7.6537
X1.651Y-8.2945
X1.651Y-8.9352
X1.651Y-9.576
X1.651Y-10.2167
X1.651Y-10.8575
X1.651Y-11.4982
X1.651Y-12.139
X1.651Y-12.7797
X1.651Y-13.4205
X1.651Y-14.0612
X1.651Y-14.702
X1.651Y-15.3427
X1.651Y-15.9835
X1.6667Y-0.5671
X1.6667Y-1.2079
X1.6667Y-1.8486
X1.6667Y-2.4894
X1.6667Y-3.1301
X1.6667Y-3.7709
X1.6667Y-4.4116
X1.6667Y-5.0524
X1.6667Y-5.6931
X1.6667Y-6.3339
X1.6667Y-6.9746
X1.6667Y-7.6154
X1.6667Y-8.2561
X1.6667Y-8.8969
X1.6667Y-9.5376
X1.6667Y-10.1783
X1.6667Y-10.8191
X1.6667Y-11.4598
X1.6667Y-12.1006
X1.6667Y-12.7413
X1.6667Y-13.3821
X1.6667Y-14.0228
X1.6667Y-14.6636
X1.6667Y-15.3043
X1.6667Y-15.9451
X1.6726Y-0.76
X1.6726Y-1.4008
X1.6726Y-2.0415
X1.6726Y-2.6823
X1.6726Y-3.323
X1.6726Y-3.9638
X1.6726Y-4.6045
X1.6726Y-5.2453
X1.6726Y-5.886
X1.6726Y-6.5268
X1.6726Y-7.1675
X1.6726Y-7.8083
X1.6726Y-8.449
X1.6726Y-9.0898
X1.6726Y-9.7305
X1.6726Y-10.3713
X1.6726Y-11.012
X1.6726Y-11.6528
X1.6726Y-12.2935
X1.6726Y-12.9343
X1.6726Y-13.575
X1.6726Y-14.2157
X1.6726Y-14.8565
X1.6726Y-15.4972
X1.6726Y-16.138
X1.7159Y-0.7069
X1.7159Y-1.3476
X1.7159Y-1.9884
X1.7159Y-2.6291
X1.7159Y-3.2699
X1.7159Y-3.9106
X1.7159Y-4.5514
X1.7159Y-5.1921
X1.7159Y-5.8329
X1.7159Y-6.4736
X1.7159Y-7.1144
X1.7159Y-7.7551
X1.7159Y-8.3959
X1.7159Y-9.0366
X1.7159Y-9.6774
X1.7159Y-10.3181
X1.7159Y-10.9589
X1.7159Y-11.5996
X1.7159Y-12.2404
X1.7159Y-12.8811
X1.7159Y-13.5219
X1.7159Y-14.1626
X1.7159Y-14.8033
X1.7159Y-15.4441
X1.7159Y-16.0848
X1.7278Y-0.7915
X1.7278Y-1.4323
X1.7278Y-2.073
X1.7278Y-2.7138
X1.7278Y-3.3545
X1.7278Y-3.9953
X1.7278Y-4.636
X1.7278Y-5.2768
X1.7278Y-5.9175
X1.7278Y-6.5583
X1.7278Y-7.199
X1.7278Y-7.8398
X1.7278Y-8.4805
X1.7278Y-9.1213
X1.7278Y-9.762
X1.7278Y-10.4028
X1.7278Y-11.0435
X1.7278Y-11.6843
X1.7278Y-12.325
X1.7278Y-12.9657
X1.7278Y-13.6065
X1.7278Y-14.2472
X1.7278Y-14.888
X1.7278Y-15.5287
X1.7278Y-16.1695
X1.7632Y-0.4372
X1.7632Y-1.078
X1.7632Y-1.7187
X1.7632Y-2.3594
X1.7632Y-3.0002
X1.7632Y-3.6409
X1.7632Y-4.2817
X1.7632Y-4.9224
X1.7632Y-5.5632
X1.7632Y-6.2039
X1.7632Y-6.8447
X1.7632Y-7.4854
X1.7632Y-8.1262
X1.7632Y-8.7669
X1.7632Y-9.4077
X1.7632Y-10.0484
X1.7632Y-10.6892
X1.7632Y-11.3299
X1.7632Y-11.9707
X1.7632Y-12.6114
X1.7632Y-13.2522
X1.7632Y-13.8929
X1.7632Y-14.5337
X1.7632Y-15.1744
X1.7632Y-15.8152
X1.7868Y-0.7482
X1.7868Y-1.389
X1.7868Y-2.0297
X1.7868Y-2.6705
X1.7868Y-3.3112
X1.7868Y-3.952
X1.7868Y-4.5927
X1.7868Y-5.2335
X1.7868Y-5.8742
X1.7868Y-6.515
X1.7868Y-7.1557
X1.7868Y-7.7965
X1.7868Y-8.4372
X1.7868Y-9.078
X1.7868Y-9.7187
X1.7868Y-10.3594
X1.7868Y-11.0002
X1.7868Y-11.6409
X1.7868Y-12.2817
X1.7868Y-12.9224
X1.7868Y-13.5632
X1.7868Y-14.2039
X1.7868Y-14.8447
X1.7868Y-15.4854
X1.7868Y-16.1262
X1.8019Y-0.6691
X1.8019Y-1.3098
X1.8019Y-1.9506
X1.8019Y-2.5913
X1.8019Y-3.2321
X1.8019Y-3.8728
X1.8019Y-4.5136
X1.8019Y-5.1543
X1.8019Y-5.7951
X1.8019Y-6.4358
X1.8019Y-7.0766
X1.8019Y-7.7173
X1.8019Y-8.358
X1.8019Y-8.9988
X1.8019Y-9.6395
X1.8019Y-10.2803
X1.8019Y-10.921
X1.8019Y-11.5618
X1.8019Y-12.2025
X1.8019Y-12.8433
X1.8019Y-13.484
X1.8019Y-14.1248
X1.8019Y-14.7655
X1.8019Y-15.4063
X1.8019Y-16.047
X1.8065Y-0.7089
X1.8065Y-1.3496
X1.8065Y-1.9904
X1.8065Y-2.6311
X1.8065Y-3.2719
X1.8065Y-3.9126
X1.8065Y-4.5533
X1.8065Y-5.1941
X1.8065Y-5.8348
X1.8065Y-6.4756
X1.8065Y-7.1163
X1.8065Y-7.7571
X1.8065Y-8.3978
X1.8065Y-9.0386
X1.8065Y-9.6793
X1.8065Y-10.3201
X1.8065Y-10.9608
X1.8065Y-11.6016
X1.8065Y-12.2423
X1.8065Y-12.8831
X1.8065Y-13.5238
X1.8065Y-14.1646
X1.8065Y-14.8053
X1.8065Y-15.4461
X1.8065Y-16.0868
X1.8222Y-0.8348
X1.8222Y-1.4756
X1.8222Y-2.1163
X1.8222Y-2.7571
X1.8222Y-3.3978
X1.8222Y-4.0386
X1.8222Y-4.6793
X1.8222Y-5.3201
X1.8222Y-5.9608
X1.8222Y-6.6016
X1.8222Y-7.2423
X1.8222Y-7.8831
X1.8222Y-8.5238
X1.8222Y-9.1646
X1.8222Y-9.8053
X1.8222Y-10.4461
X1.8222Y-11.0868
X1.8222Y-11.7276
X1.8222Y-12.3683
X1.8222Y-13.0091
X1.8222Y-13.6498
X1.8222Y-14.2906
X1.8222Y-14.9313
X1.8222Y-15.572
X1.8222Y-16.2128
X1.8311Y-0.9963
X1.8311Y-1.637
X1.8311Y-2.2778
X1.8311Y-2.9185
X1.8311Y-3.5593
X1.8311Y-4.2
X1.8311Y-4.8407
X1.8311Y-5.4815
X1.8311Y-6.1222
X1.8311Y-6.763
X1.8311Y-7.4037
X1.8311Y-8.0445
X1.8311Y-8.6852
X1.8311Y-9.326
X1.8311Y-9.9667
X1.8311Y-10.6075
X1.8311Y-11.2482
X1.8311Y-11.889
X1.8311Y-12.5297
X1.8311Y-13.1705
X1.8311Y-13.8112
X1.8311Y-14.452
X1.8311Y-15.0927
X1.8311Y-15.7335
X1.8311Y-16.3742
X1.8459Y-0.8073
X1.8459Y-1.448
X1.8459Y-2.0888
X1.8459Y-2.7295
X1.8459Y-3.3703
X1.8459Y-4.011
X1.8459Y-4.6518
X1.8459Y-5.2925
X1.8459Y-5.9333
X1.8459Y-6.574
X1.8459Y-7.2148
X1.8459Y-7.8555
X1.8459Y-8.4963
X1.8459Y-9.137
X1.8459Y-9.7778
X1.8459Y-10.4185
X1.8459Y-11.0593
X1.8459Y-11.7
X1.8459Y-12.3407
X1.8459Y-12.9815
X1.8459Y-13.6222
X1.8459Y-14.263
X1.8459Y-14.9037
X1.8459Y-15.5445
X1.8459Y-16.1852
X1.8852Y-0.4913
X1.8852Y-1.1321
X1.8852Y-1.7728
X1.8852Y-2.4136
X1.8852Y-3.0543
X1.8852Y-3.6951
X1.8852Y-4.3358
X1.8852Y-4.9766
X1.8852Y-5.6173
X1.8852Y-6.2581
X1.8852Y-6.8988
X1.8852Y-7.5396
X1.8852Y-8.1803
X1.8852Y-8.8211
X1.8852Y-9.4618
X1.8852Y-10.1026
X1.8852Y-10.7433
X1.8852Y-11.3841
X1.8852Y-12.0248
X1.8852Y-12.6656
X1.8852Y-13.3063
X1.8852Y-13.947
X1.8852Y-14.5878
X1.8852Y-15.2285
X1.8852Y-15.8693
X1.8892Y-0.8978
X1.8892Y-1.5386
X1.8892Y-2.1793
X1.8892Y-2.8201
X1.8892Y-3.4608
X1.8892Y-4.1016
X1.8892Y-4.7423
X1.8892Y-5.3831
X1.8892Y-6.0238
X1.8892Y-6.6646
X1.8892Y-7.3053
X1.8892Y-7.9461
X1.8892Y-8.5868
X1.8892Y-9.2276
X1.8892Y-9.8683
X1.8892Y-10.5091
X1.8892Y-11.1498
X1.8892Y-11.7906
X1.8892Y-12.4313
X1.8892Y-13.072
X1.8892Y-13.7128
X1.8892Y-14.3535
X1.8892Y-14.9943
X1.8892Y-15.635
X1.8892Y-16.2758
X1.903Y-0.9343
X1.903Y-1.575
X1.903Y-2.2157
X1.903Y-2.8565
X1.903Y-3.4972
X1.903Y-4.138
X1.903Y-4.7787
X1.903Y-5.4195
X1.903Y-6.0602
X1.903Y-6.701
X1.903Y-7.3417
X1.903Y-7.9825
X1.903Y-8.6232
X1.903Y-9.264
X1.903Y-9.9047
X1.903Y-10.5455
X1.903Y-11.1862
X1.903Y-11.827
X1.903Y-12.4677
X1.903Y-13.1085
X1.903Y-13.7492
X1.903Y-14.39
X1.903Y-15.0307
X1.903Y-15.6715
X1.903Y-16.3122
X1.9138Y-0.7994
X1.9138Y-1.4402
X1.9138Y-2.0809
X1.9138Y-2.7217
X1.9138Y-3.3624
X1.9138Y-4.0031
X1.9138Y-4.6439
X1.9138Y-5.2846
X1.9138Y-5.9254
X1.9138Y-6.5661
X1.9138Y-7.2069
X1.9138Y-7.8476
X1.9138Y-8.4884
X1.9138Y-9.1291
X1.9138Y-9.7699
X1.9138Y-10.4106
X1.9138Y-11.0514
X1.9138Y-11.6921
X1.9138Y-12.3329
X1.9138Y-12.9736
X1.9138Y-13.6144
X1.9138Y-14.2551
X1.9138Y-14.8959
X1.9138Y-15.5366
X1.9138Y-16.1774
X1.9148Y-0.636
X1.9148Y-1.2768
X1.9148Y-1.9175
X1.9148Y-2.5583
X1.9148Y-3.199
X1.9148Y-3.8398
X1.9148Y-4.4805
X1.9148Y-5.1213
X1.9148Y-5.762
X1.9148Y-6.4028
X1.9148Y-7.0435
X1.9148Y-7.6843
X1.9148Y-8.325
X1.9148Y-8.9657
X1.9148Y-9.6065
X1.9148Y-10.2472
X1.9148Y-10.888
X1.9148Y-11.5287
X1.9148Y-12.1695
X1.9148Y-12.8102
X1.9148Y-13.451
X1.9148Y-14.0917
X1.9148Y-14.7325
X1.9148Y-15.3732
X1.9148Y-16.014
X1.9344Y-1.0081
X1.9344Y-1.6488
X1.9344Y-2.2896
X1.9344Y-2.9303
X1.9344Y-3.5711
X1.9344Y-4.2118
X1.9344Y-4.8526
X1.9344Y-5.4933
X1.9344Y-6.1341
X1.9344Y-6.7748
X1.9344Y-7.4156
X1.9344Y-8.0563
X1.9344Y-8.697
X1.9344Y-9.3378
X1.9344Y-9.9785
X1.9344Y-10.6193
X1.9344Y-11.26
X1.9344Y-11.9008
X1.9344Y-12.5415
X1.9344Y-13.1823
X1.9344Y-13.823
X1.9344Y-14.4638
X1.9344Y-15.1045
X1.9344Y-15.7453
X1.9344Y-16.386
X1.9541Y-0.5829
X1.9541Y-1.2236
X1.9541Y-1.8644
X1.9541Y-2.5051
X1.9541Y-3.1459
X1.9541Y-3.7866
X1.9541Y-4.4274
X1.9541Y-5.0681
X1.9541Y-5.7089
X1.9541Y-6.3496
X1.9541Y-6.9904
X1.9541Y-7.6311
X1.9541Y-8.2719
X1.9541Y-8.9126
X1.9541Y-9.5533
X1.9541Y-10.1941
X1.9541Y-10.8348
X1.9541Y-11.4756
X1.9541Y-12.1163
X1.9541Y-12.7571
X1.9541Y-13.3978
X1.9541Y-14.0386
X1.9541Y-14.6793
X1.9541Y-15.3201
X1.9541Y-15.9608
X2.0722Y-0.577
X2.0722Y-1.2177
X2.0722Y-1.8585
X2.0722Y-2.4992
X2.0722Y-3.14
X2.0722Y-3.7807
X2.0722Y-4.4215
X2.0722Y-5.0622
X2.0722Y-5.703
X2.0722Y-6.3437
X2.0722Y-6.9844
X2.0722Y-7.6252
X2.0722Y-8.2659
X2.0722Y-8.9067
X2.0722Y-9.5474
X2.0722Y-10.1882
X2.0722Y-10.8289
X2.0722Y-11.4697
X2.0722Y-12.1104
X2.0722Y-12.7512
X2.0722Y-13.3919
X2.0722Y-14.0327
X2.0722Y-14.6734
X2.0722Y-15.3142
X2.0722Y-15.9549
X2.0732Y-0.8732
X2.0732Y-1.514
X2.0732Y-2.1547
X2.0732Y-2.7955
X2.0732Y-3.4362
X2.0732Y-4.077
X2.0732Y-4.7177
X2.0732Y-5.3585
X2.0732Y-5.9992
X2.0732Y-6.64
X2.0732Y-7.2807
X2.0732Y-7.9215
X2.0732Y-8.5622
X2.0732Y-9.203
X2.0732Y-9.8437
X2.0732Y-10.4844
X2.0732Y-11.1252
X2.0732Y-11.7659
X2.0732Y-12.4067
X2.0732Y-13.0474
X2.0732Y-13.6882
X2.0732Y-14.3289
X2.0732Y-14.9697
X2.0732Y-15.6104
X2.0732Y-16.2512
X2.1433Y-0.5549
X2.1433Y-1.1957
X2.1433Y-1.8364
X2.1433Y-2.4772
X2.1433Y-3.1179
X2.1433Y-3.7587
X2.1433Y-4.3994
X2.1433Y-5.0402
X2.1433Y-5.6809
X2.1433Y-6.3217
X2.1433Y-6.9624
X2.1433Y-7.6031
X2.1433Y-8.2439
X2.1433Y-8.8846
X2.1433Y-9.5254
X2.1433Y-10.1661
X2.1433Y-10.8069
X2.1433Y-11.4476
X2.1433Y-12.0884
X2.1433Y-12.7291
X2.1433Y-13.3699
X2.1433Y-14.0106
X2.1433Y-14.6514
X2.1433Y-15.2921
X2.1433Y-15.9329
X2.1443Y-0.8512
X2.1443Y-1.4919
X2.1443Y-2.1327
X2.1443Y-2.7734
X2.1443Y-3.4142
X2.1443Y-4.0549
X2.1443Y-4.6957
X2.1443Y-5.3364
X2.1443Y-5.9772
X2.1443Y-6.6179
X2.1443Y-7.2587
X2.1443Y-7.8994
X2.1443Y-8.5402
X2.1443Y-9.1809
X2.1443Y-9.8217
X2.1443Y-10.4624
X2.1443Y-11.1031
X2.1443Y-11.7439
X2.1443Y-12.3846
X2.1443Y-13.0254
X2.1443Y-13.6661
X2.1443Y-14.3069
X2.1443Y-14.9476
X2.1443Y-15.5884
X2.1443Y-16.2291
X2.2624Y-0.8453
X2.2624Y-1.486
X2.2624Y-2.1268
X2.2624Y-2.7675
X2.2624Y-3.4083
X2.2624Y-4.049
X2.2624Y-4.6898
X2.2624Y-5.3305
X2.2624Y-5.9713
X2.2624Y-6.612
X2.2624Y-7.2528
X2.2624Y-7.8935
X2.2624Y-8.5343
X2.2624Y-9.175
X2.2624Y-9.8157
X2.2624Y-10.4565
X2.2624Y-11.0972
X2.2624Y-11.738
X2.2624Y-12.3787
X2.2624Y-13.0195
X2.2624Y-13.6602
X2.2624Y-14.301
X2.2624Y-14.9417
X2.2624Y-15.5825
X2.2624Y-16.2232
X2.2821Y-0.4201
X2.2821Y-1.0608
X2.2821Y-1.7016
X2.2821Y-2.3423
X2.2821Y-2.9831
X2.2821Y-3.6238
X2.2821Y-4.2646
X2.2821Y-4.9053
X2.2821Y-5.5461
X2.2821Y-6.1868
X2.2821Y-6.8276
X2.2821Y-7.4683
X2.2821Y-8.1091
X2.2821Y-8.7498
X2.2821Y-9.3906
X2.2821Y-10.0313
X2.2821Y-10.672
X2.2821Y-11.3128
X2.2821Y-11.9535
X2.2821Y-12.5943
X2.2821Y-13.235
X2.2821Y-13.8758
X2.2821Y-14.5165
X2.2821Y-15.1573
X2.2821Y-15.798
X2.3018Y-0.7921
X2.3018Y-1.4329
X2.3018Y-2.0736
X2.3018Y-2.7144
X2.3018Y-3.3551
X2.3018Y-3.9959
X2.3018Y-4.6366
X2.3018Y-5.2774
X2.3018Y-5.9181
X2.3018Y-6.5589
X2.3018Y-7.1996
X2.3018Y-7.8404
X2.3018Y-8.4811
X2.3018Y-9.1219
X2.3018Y-9.7626
X2.3018Y-10.4033
X2.3018Y-11.0441
X2.3018Y-11.6848
X2.3018Y-12.3256
X2.3018Y-12.9663
X2.3018Y-13.6071
X2.3018Y-14.2478
X2.3018Y-14.8886
X2.3018Y-15.5293
X2.3018Y-16.1701
X2.3028Y-0.6287
X2.3028Y-1.2695
X2.3028Y-1.9102
X2.3028Y-2.551
X2.3028Y-3.1917
X2.3028Y-3.8325
X2.3028Y-4.4732
X2.3028Y-5.114
X2.3028Y-5.7547
X2.3028Y-6.3955
X2.3028Y-7.0362
X2.3028Y-7.677
X2.3028Y-8.3177
X2.3028Y-8.9585
X2.3028Y-9.5992
X2.3028Y-10.24
X2.3028Y-10.8807
X2.3028Y-11.5215
X2.3028Y-12.1622
X2.3028Y-12.803
X2.3028Y-13.4437
X2.3028Y-14.0844
X2.3028Y-14.7252
X2.3028Y-15.3659
X2.3028Y-16.0067
X2.3136Y-0.4939
X2.3136Y-1.1346
X2.3136Y-1.7754
X2.3136Y-2.4161
X2.3136Y-3.0569
X2.3136Y-3.6976
X2.3136Y-4.3384
X2.3136Y-4.9791
X2.3136Y-5.6199
X2.3136Y-6.2606
X2.3136Y-6.9014
X2.3136Y-7.5421
X2.3136Y-8.1829
X2.3136Y-8.8236
X2.3136Y-9.4644
X2.3136Y-10.1051
X2.3136Y-10.7459
X2.3136Y-11.3866
X2.3136Y-12.0274
X2.3136Y-12.6681
X2.3136Y-13.3089
X2.3136Y-13.9496
X2.3136Y-14.5904
X2.3136Y-15.2311
X2.3136Y-15.8719
X2.3274Y-0.5303
X2.3274Y-1.1711
X2.3274Y-1.8118
X2.3274Y-2.4526
X2.3274Y-3.0933
X2.3274Y-3.7341
X2.3274Y-4.3748
X2.3274Y-5.0156
X2.3274Y-5.6563
X2.3274Y-6.297
X2.3274Y-6.9378
X2.3274Y-7.5785
X2.3274Y-8.2193
X2.3274Y-8.86
X2.3274Y-9.5008
X2.3274Y-10.1415
X2.3274Y-10.7823
X2.3274Y-11.423
X2.3274Y-12.0638
X2.3274Y-12.7045
X2.3274Y-13.3453
X2.3274Y-13.986
X2.3274Y-14.6268
X2.3274Y-15.2675
X2.3274Y-15.9083
X2.3313Y-0.9368
X2.3313Y-1.5776
X2.3313Y-2.2183
X2.3313Y-2.8591
X2.3313Y-3.4998
X2.3313Y-4.1406
X2.3313Y-4.7813
X2.3313Y-5.422
X2.3313Y-6.0628
X2.3313Y-6.7035
X2.3313Y-7.3443
X2.3313Y-7.985
X2.3313Y-8.6258
X2.3313Y-9.2665
X2.3313Y-9.9073
X2.3313Y-10.548
X2.3313Y-11.1888
X2.3313Y-11.8295
X2.3313Y-12.4703
X2.3313Y-13.111
X2.3313Y-13.7518
X2.3313Y-14.3925
X2.3313Y-15.0333
X2.3313Y-15.674
X2.3313Y-16.3148
X2.3707Y-0.6209
X2.3707Y-1.2616
X2.3707Y-1.9024
X2.3707Y-2.5431
X2.3707Y-3.1839
X2.3707Y-3.8246
X2.3707Y-4.4654
X2.3707Y-5.1061
X2.3707Y-5.7469
X2.3707Y-6.3876
X2.3707Y-7.0283
X2.3707Y-7.6691
X2.3707Y-8.3098
X2.3707Y-8.9506
X2.3707Y-9.5913
X2.3707Y-10.2321
X2.3707Y-10.8728
X2.3707Y-11.5136
X2.3707Y-12.1543
X2.3707Y-12.7951
X2.3707Y-13.4358
X2.3707Y-14.0766
X2.3707Y-14.7173
X2.3707Y-15.3581
X2.3707Y-15.9988
X2.3854Y-0.4319
X2.3854Y-1.0726
X2.3854Y-1.7134
X2.3854Y-2.3541
X2.3854Y-2.9949
X2.3854Y-3.6356
X2.3854Y-4.2764
X2.3854Y-4.9171
X2.3854Y-5.5579
X2.3854Y-6.1986
X2.3854Y-6.8394
X2.3854Y-7.4801
X2.3854Y-8.1209
X2.3854Y-8.7616
X2.3854Y-9.4024
X2.3854Y-10.0431
X2.3854Y-10.6839
X2.3854Y-11.3246
X2.3854Y-11.9654
X2.3854Y-12.6061
X2.3854Y-13.2469
X2.3854Y-13.8876
X2.3854Y-14.5283
X2.3854Y-15.1691
X2.3854Y-15.8098
X2.3943Y-0.5933
X2.3943Y-1.2341
X2.3943Y-1.8748
X2.3943Y-2.5156
X2.3943Y-3.1563
X2.3943Y-3.797
X2.3943Y-4.4378
X2.3943Y-5.0785
X2.3943Y-5.7193
X2.3943Y-6.36
X2.3943Y-7.0008
X2.3943Y-7.6415
X2.3943Y-8.2823
X2.3943Y-8.923
X2.3943Y-9.5638
X2.3943Y-10.2045
X2.3943Y-10.8453
X2.3943Y-11.486
X2.3943Y-12.1268
X2.3943Y-12.7675
X2.3943Y-13.4083
X2.3943Y-14.049
X2.3943Y-14.6898
X2.3943Y-15.3305
X2.3943Y-15.9713
X2.41Y-0.7193
X2.41Y-1.36
X2.41Y-2.0008
X2.41Y-2.6415
X2.41Y-3.2823
X2.41Y-3.923
X2.41Y-4.5638
X2.41Y-5.2045
X2.41Y-5.8453
X2.41Y-6.486
X2.41Y-7.1268
X2.41Y-7.7675
X2.41Y-8.4083
X2.41Y-9.049
X2.41Y-9.6898
X2.41Y-10.3305
X2.41Y-10.9713
X2.41Y-11.612
X2.41Y-12.2528
X2.41Y-12.8935
X2.41Y-13.5343
X2.41Y-14.175
X2.41Y-14.8157
X2.41Y-15.4565
X2.41Y-16.0972
X2.4147Y-0.7591
X2.4147Y-1.3998
X2.4147Y-2.0406
X2.4147Y-2.6813
X2.4147Y-3.3221
X2.4147Y-3.9628
X2.4147Y-4.6036
X2.4147Y-5.2443
X2.4147Y-5.8851
X2.4147Y-6.5258
X2.4147Y-7.1666
X2.4147Y-7.8073
X2.4147Y-8.4481
X2.4147Y-9.0888
X2.4147Y-9.7295
X2.4147Y-10.3703
X2.4147Y-11.011
X2.4147Y-11.6518
X2.4147Y-12.2925
X2.4147Y-12.9333
X2.4147Y-13.574
X2.4147Y-14.2148
X2.4147Y-14.8555
X2.4147Y-15.4963
X2.4147Y-16.137
X2.4297Y-0.6799
X2.4297Y-1.3207
X2.4297Y-1.9614
X2.4297Y-2.6022
X2.4297Y-3.2429
X2.4297Y-3.8837
X2.4297Y-4.5244
X2.4297Y-5.1652
X2.4297Y-5.8059
X2.4297Y-6.4467
X2.4297Y-7.0874
X2.4297Y-7.7281
X2.4297Y-8.3689
X2.4297Y-9.0096
X2.4297Y-9.6504
X2.4297Y-10.2911
X2.4297Y-10.9319
X2.4297Y-11.5726
X2.4297Y-12.2134
X2.4297Y-12.8541
X2.4297Y-13.4949
X2.4297Y-14.1356
X2.4297Y-14.7764
X2.4297Y-15.4171
X2.4297Y-16.0579
X2.4533Y-0.9909
X2.4533Y-1.6317
X2.4533Y-2.2724
X2.4533Y-2.9132
X2.4533Y-3.5539
X2.4533Y-4.1947
X2.4533Y-4.8354
X2.4533Y-5.4762
X2.4533Y-6.1169
X2.4533Y-6.7577
X2.4533Y-7.3984
X2.4533Y-8.0392
X2.4533Y-8.6799
X2.4533Y-9.3207
X2.4533Y-9.9614
X2.4533Y-10.6022
X2.4533Y-11.2429
X2.4533Y-11.8837
X2.4533Y-12.5244
X2.4533Y-13.1652
X2.4533Y-13.8059
X2.4533Y-14.4467
X2.4533Y-15.0874
X2.4533Y-15.7281
X2.4533Y-16.3689
X2.4888Y-0.6366
X2.4888Y-1.2774
X2.4888Y-1.9181
X2.4888Y-2.5589
X2.4888Y-3.1996
X2.4888Y-3.8404
X2.4888Y-4.4811
X2.4888Y-5.1219
X2.4888Y-5.7626
X2.4888Y-6.4033
X2.4888Y-7.0441
X2.4888Y-7.6848
X2.4888Y-8.3256
X2.4888Y-8.9663
X2.4888Y-9.6071
X2.4888Y-10.2478
X2.4888Y-10.8886
X2.4888Y-11.5293
X2.4888Y-12.1701
X2.4888Y-12.8108
X2.4888Y-13.4516
X2.4888Y-14.0923
X2.4888Y-14.7331
X2.4888Y-15.3738
X2.4888Y-16.0146
X2.5006Y-0.7213
X2.5006Y-1.362
X2.5006Y-2.0028
X2.5006Y-2.6435
X2.5006Y-3.2843
X2.5006Y-3.925
X2.5006Y-4.5657
X2.5006Y-5.2065
X2.5006Y-5.8472
X2.5006Y-6.488
X2.5006Y-7.1287
X2.5006Y-7.7695
X2.5006Y-8.4102
X2.5006Y-9.051
X2.5006Y-9.6917
X2.5006Y-10.3325
X2.5006Y-10.9732
X2.5006Y-11.614
X2.5006Y-12.2547
X2.5006Y-12.8955
X2.5006Y-13.5362
X2.5006Y-14.177
X2.5006Y-14.8177
X2.5006Y-15.4585
X2.5006Y-16.0992
X2.5439Y-0.6681
X2.5439Y-1.3089
X2.5439Y-1.9496
X2.5439Y-2.5904
X2.5439Y-3.2311
X2.5439Y-3.8719
X2.5439Y-4.5126
X2.5439Y-5.1533
X2.5439Y-5.7941
X2.5439Y-6.4348
X2.5439Y-7.0756
X2.5439Y-7.7163
X2.5439Y-8.3571
X2.5439Y-8.9978
X2.5439Y-9.6386
X2.5439Y-10.2793
X2.5439Y-10.9201
X2.5439Y-11.5608
X2.5439Y-12.2016
X2.5439Y-12.8423
X2.5439Y-13.4831
X2.5439Y-14.1238
X2.5439Y-14.7646
X2.5439Y-15.4053
X2.5439Y-16.0461
X2.5498Y-0.861
X2.5498Y-1.5018
X2.5498Y-2.1425
X2.5498Y-2.7833
X2.5498Y-3.424
X2.5498Y-4.0648
X2.5498Y-4.7055
X2.5498Y-5.3463
X2.5498Y-5.987
X2.5498Y-6.6278
X2.5498Y-7.2685
X2.5498Y-7.9093
X2.5498Y-8.55
X2.5498Y-9.1907
X2.5498Y-9.8315
X2.5498Y-10.4722
X2.5498Y-11.113
X2.5498Y-11.7537
X2.5498Y-12.3945
X2.5498Y-13.0352
X2.5498Y-13.676
X2.5498Y-14.3167
X2.5498Y-14.9575
X2.5498Y-15.5982
X2.5498Y-16.239
X2.5656Y-0.8226
X2.5656Y-1.4634
X2.5656Y-2.1041
X2.5656Y-2.7449
X2.5656Y-3.3856
X2.5656Y-4.0264
X2.5656Y-4.6671
X2.5656Y-5.3079
X2.5656Y-5.9486
X2.5656Y-6.5894
X2.5656Y-7.2301
X2.5656Y-7.8709
X2.5656Y-8.5116
X2.5656Y-9.1524
X2.5656Y-9.7931
X2.5656Y-10.4339
X2.5656Y-11.0746
X2.5656Y-11.7154
X2.5656Y-12.3561
X2.5656Y-12.9969
X2.5656Y-13.6376
X2.5656Y-14.2783
X2.5656Y-14.9191
X2.5656Y-15.5598
X2.5656Y-16.2006
X2.5918Y-0.4648
X2.5918Y-1.1056
X2.5918Y-1.7463
X2.5918Y-2.3871
X2.5918Y-3.0278
X2.5918Y-3.6686
X2.5918Y-4.3093
X2.5918Y-4.9501
X2.5918Y-5.5908
X2.5918Y-6.2316
X2.5918Y-6.8723
X2.5918Y-7.5131
X2.5918Y-8.1538
X2.5918Y-8.7946
X2.5918Y-9.4353
X2.5918Y-10.076
X2.5918Y-10.7168
X2.5918Y-11.3575
X2.5918Y-11.9983
X2.5918Y-12.639
X2.5918Y-13.2798
X2.5918Y-13.9205
X2.5918Y-14.5613
X2.5918Y-15.202
X2.5918Y-15.8428
X2.599Y-0.5224
X2.599Y-1.1632
X2.599Y-1.8039
X2.599Y-2.4447
X2.599Y-3.0854
X2.599Y-3.7262
X2.599Y-4.3669
X2.599Y-5.0077
X2.599Y-5.6484
X2.599Y-6.2892
X2.599Y-6.9299
X2.599Y-7.5707
X2.599Y-8.2114
X2.599Y-8.8522
X2.599Y-9.4929
X2.599Y-10.1337
X2.599Y-10.7744
X2.599Y-11.4152
X2.599Y-12.0559
X2.599Y-12.6967
X2.599Y-13.3374
X2.599Y-13.9781
X2.599Y-14.6189
X2.599Y-15.2596
X2.599Y-15.9004
X2.6069Y-0.4161
X2.6069Y-1.0569
X2.6069Y-1.6976
X2.6069Y-2.3384
X2.6069Y-2.9791
X2.6069Y-3.6199
X2.6069Y-4.2606
X2.6069Y-4.9014
X2.6069Y-5.5421
X2.6069Y-6.1829
X2.6069Y-6.8236
X2.6069Y-7.4644
X2.6069Y-8.1051
X2.6069Y-8.7459
X2.6069Y-9.3866
X2.6069Y-10.0274
X2.6069Y-10.6681
X2.6069Y-11.3089
X2.6069Y-11.9496
X2.6069Y-12.5904
X2.6069Y-13.2311
X2.6069Y-13.8719
X2.6069Y-14.5126
X2.6069Y-15.1533
X2.6069Y-15.7941
X2.6089Y-0.9201
X2.6089Y-1.5608
X2.6089Y-2.2016
X2.6089Y-2.8423
X2.6089Y-3.4831
X2.6089Y-4.1238
X2.6089Y-4.7646
X2.6089Y-5.4053
X2.6089Y-6.0461
X2.6089Y-6.6868
X2.6089Y-7.3276
X2.6089Y-7.9683
X2.6089Y-8.6091
X2.6089Y-9.2498
X2.6089Y-9.8906
X2.6089Y-10.5313
X2.6089Y-11.172
X2.6089Y-11.8128
X2.6089Y-12.4535
X2.6089Y-13.0943
X2.6089Y-13.735
X2.6089Y-14.3758
X2.6089Y-15.0165
X2.6089Y-15.6573
X2.6089Y-16.298
X2.6246Y-0.6839
X2.6246Y-1.3246
X2.6246Y-1.9654
X2.6246Y-2.6061
X2.6246Y-3.2469
X2.6246Y-3.8876
X2.6246Y-4.5283
X2.6246Y-5.1691
X2.6246Y-5.8098
X2.6246Y-6.4506
X2.6246Y-7.0913
X2.6246Y-7.7321
X2.6246Y-8.3728
X2.6246Y-9.0136
X2.6246Y-9.6543
X2.6246Y-10.2951
X2.6246Y-10.9358
X2.6246Y-11.5766
X2.6246Y-12.2173
X2.6246Y-12.8581
X2.6246Y-13.4988
X2.6246Y-14.1396
X2.6246Y-14.7803
X2.6246Y-15.4211
X2.6246Y-16.0618
X2.6492Y-0.5205
X2.6492Y-1.1612
X2.6492Y-1.802
X2.6492Y-2.4427
X2.6492Y-3.0835
X2.6492Y-3.7242
X2.6492Y-4.365
X2.6492Y-5.0057
X2.6492Y-5.6465
X2.6492Y-6.2872
X2.6492Y-6.928
X2.6492Y-7.5687
X2.6492Y-8.2094
X2.6492Y-8.8502
X2.6492Y-9.4909
X2.6492Y-10.1317
X2.6492Y-10.7724
X2.6492Y-11.4132
X2.6492Y-12.0539
X2.6492Y-12.6947
X2.6492Y-13.3354
X2.6492Y-13.9762
X2.6492Y-14.6169
X2.6492Y-15.2577
X2.6492Y-15.8984
X2.6599Y-0.6368
X2.6599Y-1.2775
X2.6599Y-1.9183
X2.6599Y-2.559
X2.6599Y-3.1998
X2.6599Y-3.8405
X2.6599Y-4.4813
X2.6599Y-5.122
X2.6599Y-5.7627
X2.6599Y-6.4035
X2.6599Y-7.0442
X2.6599Y-7.685
X2.6599Y-8.3257
X2.6599Y-8.9665
X2.6599Y-9.6072
X2.6599Y-10.248
X2.6599Y-10.8887
X2.6599Y-11.5295
X2.6599Y-12.1702
X2.6599Y-12.811
X2.6599Y-13.4517
X2.6599Y-14.0925
X2.6599Y-14.7332
X2.6599Y-15.374
X2.6599Y-16.0147
X2.6679Y-0.861
X2.6679Y-1.5018
X2.6679Y-2.1425
X2.6679Y-2.7833
X2.6679Y-3.424
X2.6679Y-4.0648
X2.6679Y-4.7055
X2.6679Y-5.3463
X2.6679Y-5.987
X2.6679Y-6.6278
X2.6679Y-7.2685
X2.6679Y-7.9093
X2.6679Y-8.55
X2.6679Y-9.1907
X2.6679Y-9.8315
X2.6679Y-10.4722
X2.6679Y-11.113
X2.6679Y-11.7537
X2.6679Y-12.3945
X2.6679Y-13.0352
X2.6679Y-13.676
X2.6679Y-14.3167
X2.6679Y-14.9575
X2.6679Y-15.5982
X2.6679Y-16.239
X2.6699Y-0.4634
X2.6699Y-1.1041
X2.6699Y-1.7449
X2.6699Y-2.3856
X2.6699Y-3.0264
X2.6699Y-3.6671
X2.6699Y-4.3079
X2.6699Y-4.9486
X2.6699Y-5.5894
X2.6699Y-6.2301
X2.6699Y-6.8709
X2.6699Y-7.5116
X2.6699Y-8.1524
X2.6699Y-8.7931
X2.6699Y-9.4339
X2.6699Y-10.0746
X2.6699Y-10.7154
X2.6699Y-11.3561
X2.6699Y-11.9969
X2.6699Y-12.6376
X2.6699Y-13.2783
X2.6699Y-13.9191
X2.6699Y-14.5598
X2.6699Y-15.2006
X2.6699Y-15.8413
X2.6856Y-0.6725
X2.6856Y-1.3132
X2.6856Y-1.954
X2.6856Y-2.5947
X2.6856Y-3.2355
X2.6856Y-3.8762
X2.6856Y-4.517
X2.6856Y-5.1577
X2.6856Y-5.7985
X2.6856Y-6.4392
X2.6856Y-7.08
X2.6856Y-7.7207
X2.6856Y-8.3615
X2.6856Y-9.0022
X2.6856Y-9.643
X2.6856Y-10.2837
X2.6856Y-10.9245
X2.6856Y-11.5652
X2.6856Y-12.206
X2.6856Y-12.8467
X2.6856Y-13.4874
X2.6856Y-14.1282
X2.6856Y-14.7689
X2.6856Y-15.4097
X2.6856Y-16.0504
X2.7152Y-0.7606
X2.7152Y-1.4014
X2.7152Y-2.0421
X2.7152Y-2.6829
X2.7152Y-3.3236
X2.7152Y-3.9644
X2.7152Y-4.6051
X2.7152Y-5.2459
X2.7152Y-5.8866
X2.7152Y-6.5274
X2.7152Y-7.1681
X2.7152Y-7.8089
X2.7152Y-8.4496
X2.7152Y-9.0904
X2.7152Y-9.7311
X2.7152Y-10.3719
X2.7152Y-11.0126
X2.7152Y-11.6533
X2.7152Y-12.2941
X2.7152Y-12.9348
X2.7152Y-13.5756
X2.7152Y-14.2163
X2.7152Y-14.8571
X2.7152Y-15.4978
X2.7152Y-16.1386
X2.7161Y-0.5028
X2.7161Y-1.1435
X2.7161Y-1.7843
X2.7161Y-2.425
X2.7161Y-3.0658
X2.7161Y-3.7065
X2.7161Y-4.3473
X2.7161Y-4.988
X2.7161Y-5.6288
X2.7161Y-6.2695
X2.7161Y-6.9103
X2.7161Y-7.551
X2.7161Y-8.1918
X2.7161Y-8.8325
X2.7161Y-9.4732
X2.7161Y-10.114
X2.7161Y-10.7547
X2.7161Y-11.3955
X2.7161Y-12.0362
X2.7161Y-12.677
X2.7161Y-13.3177
X2.7161Y-13.9585
X2.7161Y-14.5992
X2.7161Y-15.24
X2.7161Y-15.8807
X2.7335Y-0.7894
X2.7335Y-1.4301
X2.7335Y-2.0709
X2.7335Y-2.7116
X2.7335Y-3.3524
X2.7335Y-3.9931
X2.7335Y-4.6339
X2.7335Y-5.2746
X2.7335Y-5.9154
X2.7335Y-6.5561
X2.7335Y-7.1969
X2.7335Y-7.8376
X2.7335Y-8.4784
X2.7335Y-9.1191
X2.7335Y-9.7598
X2.7335Y-10.4006
X2.7335Y-11.0413
X2.7335Y-11.6821
X2.7335Y-12.3228
X2.7335Y-12.9636
X2.7335Y-13.6043
X2.7335Y-14.2451
X2.7335Y-14.8858
X2.7335Y-15.5266
X2.7335Y-16.1673
X2.7378Y-0.8541
X2.7378Y-1.4949
X2.7378Y-2.1356
X2.7378Y-2.7764
X2.7378Y-3.4171
X2.7378Y-4.0579
X2.7378Y-4.6986
X2.7378Y-5.3394
X2.7378Y-5.9801
X2.7378Y-6.6209
X2.7378Y-7.2616
X2.7378Y-7.9024
X2.7378Y-8.5431
X2.7378Y-9.1839
X2.7378Y-9.8246
X2.7378Y-10.4654
X2.7378Y-11.1061
X2.7378Y-11.7469
X2.7378Y-12.3876
X2.7378Y-13.0283
X2.7378Y-13.6691
X2.7378Y-14.3098
X2.7378Y-14.9506
X2.7378Y-15.5913
X2.7378Y-16.2321
X2.7742Y-0.6327
X2.7742Y-0.7528
X2.7742Y-1.2734
X2.7742Y-1.3935
X2.7742Y-1.9142
X2.7742Y-2.0343
X2.7742Y-2.5549
X2.7742Y-2.675
X2.7742Y-3.1957
X2.7742Y-3.3157
X2.7742Y-3.8364
X2.7742Y-3.9565
X2.7742Y-4.4772
X2.7742Y-4.5972
X2.7742Y-5.1179
X2.7742Y-5.238
X2.7742Y-5.7587
X2.7742Y-5.8787
X2.7742Y-6.3994
X2.7742Y-6.5195
X2.7742Y-7.0402
X2.7742Y-7.1602
X2.7742Y-7.6809
X2.7742Y-7.801
X2.7742Y-8.3217
X2.7742Y-8.4417
X2.7742Y-8.9624
X2.7742Y-9.0825
X2.7742Y-9.6031
X2.7742Y-9.7232
X2.7742Y-10.2439
X2.7742Y-10.364
X2.7742Y-10.8846
X2.7742Y-11.0047
X2.7742Y-11.5254
X2.7742Y-11.6455
X2.7742Y-12.1661
X2.7742Y-12.2862
X2.7742Y-12.8069
X2.7742Y-12.927
X2.7742Y-13.4476
X2.7742Y-13.5677
X2.7742Y-14.0884
X2.7742Y-14.2085
X2.7742Y-14.7291
X2.7742Y-14.8492
X2.7742Y-15.3699
X2.7742Y-15.49
X2.7742Y-16.0106
X2.7742Y-16.1307
X2.7856Y-0.5425
X2.7856Y-1.1833
X2.7856Y-1.824
X2.7856Y-2.4648
X2.7856Y-3.1055
X2.7856Y-3.7463
X2.7856Y-4.387
X2.7856Y-5.0278
X2.7856Y-5.6685
X2.7856Y-6.3093
X2.7856Y-6.95
X2.7856Y-7.5907
X2.7856Y-8.2315
X2.7856Y-8.8722
X2.7856Y-9.513
X2.7856Y-10.1537
X2.7856Y-10.7945
X2.7856Y-11.4352
X2.7856Y-12.076
X2.7856Y-12.7167
X2.7856Y-13.3575
X2.7856Y-13.9982
X2.7856Y-14.639
X2.7856Y-15.2797
X2.7856Y-15.9205
X2.8175Y-0.8492
X2.8175Y-1.49
X2.8175Y-2.1307
X2.8175Y-2.7715
X2.8175Y-3.4122
X2.8175Y-4.053
X2.8175Y-4.6937
X2.8175Y-5.3344
X2.8175Y-5.9752
X2.8175Y-6.6159
X2.8175Y-7.2567
X2.8175Y-7.8974
X2.8175Y-8.5382
X2.8175Y-9.1789
X2.8175Y-9.8197
X2.8175Y-10.4604
X2.8175Y-11.1012
X2.8175Y-11.7419
X2.8175Y-12.3827
X2.8175Y-13.0234
X2.8175Y-13.6642
X2.8175Y-14.3049
X2.8175Y-14.9457
X2.8175Y-15.5864
X2.8175Y-16.2272
X2.8342Y-0.5628
X2.8342Y-1.2035
X2.8342Y-1.8443
X2.8342Y-2.485
X2.8342Y-3.1258
X2.8342Y-3.7665
X2.8342Y-4.4073
X2.8342Y-5.048
X2.8342Y-5.6888
X2.8342Y-6.3295
X2.8342Y-6.9703
X2.8342Y-7.611
X2.8342Y-8.2518
X2.8342Y-8.8925
X2.8342Y-9.5333
X2.8342Y-10.174
X2.8342Y-10.8148
X2.8342Y-11.4555
X2.8342Y-12.0962
X2.8342Y-12.737
X2.8342Y-13.3777
X2.8342Y-14.0185
X2.8342Y-14.6592
X2.8342Y-15.3
X2.8342Y-15.9407
X2.8476Y-0.7796
X2.8476Y-1.4203
X2.8476Y-2.0611
X2.8476Y-2.7018
X2.8476Y-3.3426
X2.8476Y-3.9833
X2.8476Y-4.6241
X2.8476Y-5.2648
X2.8476Y-5.9056
X2.8476Y-6.5463
X2.8476Y-7.1871
X2.8476Y-7.8278
X2.8476Y-8.4686
X2.8476Y-9.1093
X2.8476Y-9.7501
X2.8476Y-10.3908
X2.8476Y-11.0316
X2.8476Y-11.6723
X2.8476Y-12.3131
X2.8476Y-12.9538
X2.8476Y-13.5946
X2.8476Y-14.2353
X2.8476Y-14.8761
X2.8476Y-15.5168
X2.8476Y-16.1576
X2.8726Y-0.5638
X2.8726Y-1.2045
X2.8726Y-1.8453
X2.8726Y-2.486
X2.8726Y-3.1268
X2.8726Y-3.7675
X2.8726Y-4.4083
X2.8726Y-5.049
X2.8726Y-5.6898
X2.8726Y-6.3305
X2.8726Y-6.9713
X2.8726Y-7.612
X2.8726Y-8.2528
X2.8726Y-8.8935
X2.8726Y-9.5343
X2.8726Y-10.175
X2.8726Y-10.8157
X2.8726Y-11.4565
X2.8726Y-12.0972
X2.8726Y-12.738
X2.8726Y-13.3787
X2.8726Y-14.0195
X2.8726Y-14.6602
X2.8726Y-15.301
X2.8726Y-15.9417
X2.8741Y-0.7473
X2.8741Y-1.388
X2.8741Y-2.0288
X2.8741Y-2.6695
X2.8741Y-3.3103
X2.8741Y-3.951
X2.8741Y-4.5918
X2.8741Y-5.2325
X2.8741Y-5.8733
X2.8741Y-6.514
X2.8741Y-7.1548
X2.8741Y-7.7955
X2.8741Y-8.4362
X2.8741Y-9.077
X2.8741Y-9.7177
X2.8741Y-10.3585
X2.8741Y-10.9992
X2.8741Y-11.64
X2.8741Y-12.2807
X2.8741Y-12.9215
X2.8741Y-13.5622
X2.8741Y-14.203
X2.8741Y-14.8437
X2.8741Y-15.4845
X2.8741Y-16.1252
X2.8825Y-0.6858
X2.8825Y-1.3266
X2.8825Y-1.9673
X2.8825Y-2.6081
X2.8825Y-3.2488
X2.8825Y-3.8896
X2.8825Y-4.5303
X2.8825Y-5.1711
X2.8825Y-5.8118
X2.8825Y-6.4526
X2.8825Y-7.0933
X2.8825Y-7.7341
X2.8825Y-8.3748
X2.8825Y-9.0156
X2.8825Y-9.6563
X2.8825Y-10.297
X2.8825Y-10.9378
X2.8825Y-11.5785
X2.8825Y-12.2193
X2.8825Y-12.86
X2.8825Y-13.5008
X2.8825Y-14.1415
X2.8825Y-14.7823
X2.8825Y-15.423
X2.8825Y-16.0638
X2.8894Y-0.8239
X2.8894Y-1.4646
X2.8894Y-2.1054
X2.8894Y-2.7461
X2.8894Y-3.3869
X2.8894Y-4.0276
X2.8894Y-4.6684
X2.8894Y-5.3091
X2.8894Y-5.9499
X2.8894Y-6.5906
X2.8894Y-7.2314
X2.8894Y-7.8721
X2.8894Y-8.5129
X2.8894Y-9.1536
X2.8894Y-9.7944
X2.8894Y-10.4351
X2.8894Y-11.0759
X2.8894Y-11.7166
X2.8894Y-12.3574
X2.8894Y-12.9981
X2.8894Y-13.6389
X2.8894Y-14.2796
X2.8894Y-14.9204
X2.8894Y-15.5611
X2.8894Y-16.2018
X2.914Y-0.802
X2.914Y-1.4427
X2.914Y-2.0835
X2.914Y-2.7242
X2.914Y-3.365
X2.914Y-4.0057
X2.914Y-4.6465
X2.914Y-5.2872
X2.914Y-5.928
X2.914Y-6.5687
X2.914Y-7.2094
X2.914Y-7.8502
X2.914Y-8.4909
X2.914Y-9.1317
X2.914Y-9.7724
X2.914Y-10.4132
X2.914Y-11.0539
X2.914Y-11.6947
X2.914Y-12.3354
X2.914Y-12.9762
X2.914Y-13.6169
X2.914Y-14.2577
X2.914Y-14.8984
X2.914Y-15.5392
X2.914Y-16.1799
X2.9297Y-0.4358
X2.9297Y-1.0766
X2.9297Y-1.7173
X2.9297Y-2.3581
X2.9297Y-2.9988
X2.9297Y-3.6396
X2.9297Y-4.2803
X2.9297Y-4.9211
X2.9297Y-5.5618
X2.9297Y-6.2026
X2.9297Y-6.8433
X2.9297Y-7.4841
X2.9297Y-8.1248
X2.9297Y-8.7656
X2.9297Y-9.4063
X2.9297Y-10.047
X2.9297Y-10.6878
X2.9297Y-11.3285
X2.9297Y-11.9693
X2.9297Y-12.61
X2.9297Y-13.2508
X2.9297Y-13.8915
X2.9297Y-14.5323
X2.9297Y-15.173
X2.9297Y-15.8138
X3.0014Y-0.9923
X3.0014Y-1.6331
X3.0014Y-2.2738
X3.0014Y-2.9146
X3.0014Y-3.5553
X3.0014Y-4.1961
X3.0014Y-4.8368
X3.0014Y-5.4776
X3.0014Y-6.1183
X3.0014Y-6.7591
X3.0014Y-7.3998
X3.0014Y-8.0406
X3.0014Y-8.6813
X3.0014Y-9.322
X3.0014Y-9.9628
X3.0014Y-10.6035
X3.0014Y-11.2443
X3.0014Y-11.885
X3.0014Y-12.5258
X3.0014Y-13.1665
X3.0014Y-13.8073
X3.0014Y-14.448
X3.0014Y-15.0888
X3.0014Y-15.7295
X3.0014Y-16.3703
X3.0171Y-0.6262
X3.0171Y-1.2669
X3.0171Y-1.9077
X3.0171Y-2.5484
X3.0171Y-3.1892
X3.0171Y-3.8299
X3.0171Y-4.4707
X3.0171Y-5.1114
X3.0171Y-5.7522
X3.0171Y-6.3929
X3.0171Y-7.0337
X3.0171Y-7.6744
X3.0171Y-8.3152
X3.0171Y-8.9559
X3.0171Y-9.5967
X3.0171Y-10.2374
X3.0171Y-10.8781
X3.0171Y-11.5189
X3.0171Y-12.1596
X3.0171Y-12.8004
X3.0171Y-13.4411
X3.0171Y-14.0819
X3.0171Y-14.7226
X3.0171Y-15.3634
X3.0171Y-16.0041
X3.0417Y-0.6043
X3.0417Y-1.245
X3.0417Y-1.8858
X3.0417Y-2.5265
X3.0417Y-3.1672
X3.0417Y-3.808
X3.0417Y-4.4487
X3.0417Y-5.0895
X3.0417Y-5.7302
X3.0417Y-6.371
X3.0417Y-7.0117
X3.0417Y-7.6525
X3.0417Y-8.2932
X3.0417Y-8.934
X3.0417Y-9.5747
X3.0417Y-10.2155
X3.0417Y-10.8562
X3.0417Y-11.497
X3.0417Y-12.1377
X3.0417Y-12.7785
X3.0417Y-13.4192
X3.0417Y-14.06
X3.0417Y-14.7007
X3.0417Y-15.3415
X3.0417Y-15.9822
X3.0486Y-0.7423
X3.0486Y-1.3831
X3.0486Y-2.0238
X3.0486Y-2.6646
X3.0486Y-3.3053
X3.0486Y-3.9461
X3.0486Y-4.5868
X3.0486Y-5.2276
X3.0486Y-5.8683
X3.0486Y-6.5091
X3.0486Y-7.1498
X3.0486Y-7.7906
X3.0486Y-8.4313
X3.0486Y-9.072
X3.0486Y-9.7128
X3.0486Y-10.3535
X3.0486Y-10.9943
X3.0486Y-11.635
X3.0486Y-12.2758
X3.0486Y-12.9165
X3.0486Y-13.5573
X3.0486Y-14.198
X3.0486Y-14.8388
X3.0486Y-15.4795
X3.0486Y-16.1203
X3.057Y-0.6809
X3.057Y-1.3216
X3.057Y-1.9624
X3.057Y-2.6031
X3.057Y-3.2439
X3.057Y-3.8846
X3.057Y-4.5254
X3.057Y-5.1661
X3.057Y-5.8069
X3.057Y-6.4476
X3.057Y-7.0884
X3.057Y-7.7291
X3.057Y-8.3699
X3.057Y-9.0106
X3.057Y-9.6513
X3.057Y-10.2921
X3.057Y-10.9328
X3.057Y-11.5736
X3.057Y-12.2143
X3.057Y-12.8551
X3.057Y-13.4958
X3.057Y-14.1366
X3.057Y-14.7773
X3.057Y-15.4181
X3.057Y-16.0588
X3.0585Y-0.8644
X3.0585Y-1.5051
X3.0585Y-2.1459
X3.0585Y-2.7866
X3.0585Y-3.4274
X3.0585Y-4.0681
X3.0585Y-4.7089
X3.0585Y-5.3496
X3.0585Y-5.9904
X3.0585Y-6.6311
X3.0585Y-7.2719
X3.0585Y-7.9126
X3.0585Y-8.5533
X3.0585Y-9.1941
X3.0585Y-9.8348
X3.0585Y-10.4756
X3.0585Y-11.1163
X3.0585Y-11.7571
X3.0585Y-12.3978
X3.0585Y-13.0386
X3.0585Y-13.6793
X3.0585Y-14.3201
X3.0585Y-14.9608
X3.0585Y-15.6016
X3.0585Y-16.2423
X3.0835Y-0.6485
X3.0835Y-1.2893
X3.0835Y-1.93
X3.0835Y-2.5708
X3.0835Y-3.2115
X3.0835Y-3.8523
X3.0835Y-4.493
X3.0835Y-5.1338
X3.0835Y-5.7745
X3.0835Y-6.4153
X3.0835Y-7.056
X3.0835Y-7.6968
X3.0835Y-8.3375
X3.0835Y-8.9783
X3.0835Y-9.619
X3.0835Y-10.2598
X3.0835Y-10.9005
X3.0835Y-11.5413
X3.0835Y-12.182
X3.0835Y-12.8228
X3.0835Y-13.4635
X3.0835Y-14.1043
X3.0835Y-14.745
X3.0835Y-15.3858
X3.0835Y-16.0265
X3.0969Y-0.8654
X3.0969Y-1.5061
X3.0969Y-2.1469
X3.0969Y-2.7876
X3.0969Y-3.4284
X3.0969Y-4.0691
X3.0969Y-4.7099
X3.0969Y-5.3506
X3.0969Y-5.9913
X3.0969Y-6.6321
X3.0969Y-7.2728
X3.0969Y-7.9136
X3.0969Y-8.5543
X3.0969Y-9.1951
X3.0969Y-9.8358
X3.0969Y-10.4766
X3.0969Y-11.1173
X3.0969Y-11.7581
X3.0969Y-12.3988
X3.0969Y-13.0396
X3.0969Y-13.6803
X3.0969Y-14.3211
X3.0969Y-14.9618
X3.0969Y-15.6026
X3.0969Y-16.2433
X3.1136Y-0.5789
X3.1136Y-1.2197
X3.1136Y-1.8604
X3.1136Y-2.5012
X3.1136Y-3.1419
X3.1136Y-3.7827
X3.1136Y-4.4234
X3.1136Y-5.0642
X3.1136Y-5.7049
X3.1136Y-6.3457
X3.1136Y-6.9864
X3.1136Y-7.6272
X3.1136Y-8.2679
X3.1136Y-8.9087
X3.1136Y-9.5494
X3.1136Y-10.1902
X3.1136Y-10.8309
X3.1136Y-11.4717
X3.1136Y-12.1124
X3.1136Y-12.7531
X3.1136Y-13.3939
X3.1136Y-14.0346
X3.1136Y-14.6754
X3.1136Y-15.3161
X3.1136Y-15.9569
X3.1455Y-0.8856
X3.1455Y-1.5264
X3.1455Y-2.1671
X3.1455Y-2.8079
X3.1455Y-3.4486
X3.1455Y-4.0894
X3.1455Y-4.7301
X3.1455Y-5.3709
X3.1455Y-6.0116
X3.1455Y-6.6524
X3.1455Y-7.2931
X3.1455Y-7.9339
X3.1455Y-8.5746
X3.1455Y-9.2154
X3.1455Y-9.8561
X3.1455Y-10.4968
X3.1455Y-11.1376
X3.1455Y-11.7783
X3.1455Y-12.4191
X3.1455Y-13.0598
X3.1455Y-13.7006
X3.1455Y-14.3413
X3.1455Y-14.9821
X3.1455Y-15.6228
X3.1455Y-16.2636
X3.1569Y-0.6754
X3.1569Y-0.7955
X3.1569Y-1.3161
X3.1569Y-1.4362
X3.1569Y-1.9569
X3.1569Y-2.077
X3.1569Y-2.5976
X3.1569Y-2.7177
X3.1569Y-3.2384
X3.1569Y-3.3585
X3.1569Y-3.8791
X3.1569Y-3.9992
X3.1569Y-4.5199
X3.1569Y-4.64
X3.1569Y-5.1606
X3.1569Y-5.2807
X3.1569Y-5.8014
X3.1569Y-5.9215
X3.1569Y-6.4421
X3.1569Y-6.5622
X3.1569Y-7.0829
X3.1569Y-7.203
X3.1569Y-7.7236
X3.1569Y-7.8437
X3.1569Y-8.3644
X3.1569Y-8.4844
X3.1569Y-9.0051
X3.1569Y-9.1252
X3.1569Y-9.6459
X3.1569Y-9.7659
X3.1569Y-10.2866
X3.1569Y-10.4067
X3.1569Y-10.9274
X3.1569Y-11.0474
X3.1569Y-11.5681
X3.1569Y-11.6882
X3.1569Y-12.2089
X3.1569Y-12.3289
X3.1569Y-12.8496
X3.1569Y-12.9697
X3.1569Y-13.4904
X3.1569Y-13.6104
X3.1569Y-14.1311
X3.1569Y-14.2512
X3.1569Y-14.7719
X3.1569Y-14.8919
X3.1569Y-15.4126
X3.1569Y-15.5327
X3.1569Y-16.0533
X3.1569Y-16.1734
X3.1933Y-0.574
X3.1933Y-1.2148
X3.1933Y-1.8555
X3.1933Y-2.4963
X3.1933Y-3.137
X3.1933Y-3.7778
X3.1933Y-4.4185
X3.1933Y-5.0593
X3.1933Y-5.7
X3.1933Y-6.3407
X3.1933Y-6.9815
X3.1933Y-7.6222
X3.1933Y-8.263
X3.1933Y-8.9037
X3.1933Y-9.5445
X3.1933Y-10.1852
X3.1933Y-10.826
X3.1933Y-11.4667
X3.1933Y-12.1075
X3.1933Y-12.7482
X3.1933Y-13.389
X3.1933Y-14.0297
X3.1933Y-14.6705
X3.1933Y-15.3112
X3.1933Y-15.952
X3.1977Y-0.6388
X3.1977Y-1.2795
X3.1977Y-1.9203
X3.1977Y-2.561
X3.1977Y-3.2018
X3.1977Y-3.8425
X3.1977Y-4.4833
X3.1977Y-5.124
X3.1977Y-5.7648
X3.1977Y-6.4055
X3.1977Y-7.0463
X3.1977Y-7.687
X3.1977Y-8.3278
X3.1977Y-8.9685
X3.1977Y-9.6092
X3.1977Y-10.25
X3.1977Y-10.8907
X3.1977Y-11.5315
X3.1977Y-12.1722
X3.1977Y-12.813
X3.1977Y-13.4537
X3.1977Y-14.0945
X3.1977Y-14.7352
X3.1977Y-15.376
X3.1977Y-16.0167
X3.215Y-0.9254
X3.215Y-1.5661
X3.215Y-2.2069
X3.215Y-2.8476
X3.215Y-3.4884
X3.215Y-4.1291
X3.215Y-4.7699
X3.215Y-5.4106
X3.215Y-6.0514
X3.215Y-6.6921
X3.215Y-7.3329
X3.215Y-7.9736
X3.215Y-8.6143
X3.215Y-9.2551
X3.215Y-9.8958
X3.215Y-10.5366
X3.215Y-11.1773
X3.215Y-11.8181
X3.215Y-12.4588
X3.215Y-13.0996
X3.215Y-13.7403
X3.215Y-14.3811
X3.215Y-15.0218
X3.215Y-15.6626
X3.215Y-16.3033
X3.2159Y-0.6675
X3.2159Y-1.3083
X3.2159Y-1.949
X3.2159Y-2.5898
X3.2159Y-3.2305
X3.2159Y-3.8713
X3.2159Y-4.512
X3.2159Y-5.1528
X3.2159Y-5.7935
X3.2159Y-6.4343
X3.2159Y-7.075
X3.2159Y-7.7157
X3.2159Y-8.3565
X3.2159Y-8.9972
X3.2159Y-9.638
X3.2159Y-10.2787
X3.2159Y-10.9195
X3.2159Y-11.5602
X3.2159Y-12.201
X3.2159Y-12.8417
X3.2159Y-13.4825
X3.2159Y-14.1232
X3.2159Y-14.764
X3.2159Y-15.4047
X3.2159Y-16.0455
X3.2455Y-0.7557
X3.2455Y-1.3964
X3.2455Y-2.0372
X3.2455Y-2.6779
X3.2455Y-3.3187
X3.2455Y-3.9594
X3.2455Y-4.6002
X3.2455Y-5.2409
X3.2455Y-5.8816
X3.2455Y-6.5224
X3.2455Y-7.1631
X3.2455Y-7.8039
X3.2455Y-8.4446
X3.2455Y-9.0854
X3.2455Y-9.7261
X3.2455Y-10.3669
X3.2455Y-11.0076
X3.2455Y-11.6484
X3.2455Y-12.2891
X3.2455Y-12.9299
X3.2455Y-13.5706
X3.2455Y-14.2114
X3.2455Y-14.8521
X3.2455Y-15.4929
X3.2455Y-16.1336
X3.2612Y-0.9648
X3.2612Y-1.6055
X3.2612Y-2.2463
X3.2612Y-2.887
X3.2612Y-3.5278
X3.2612Y-4.1685
X3.2612Y-4.8093
X3.2612Y-5.45
X3.2612Y-6.0907
X3.2612Y-6.7315
X3.2612Y-7.3722
X3.2612Y-8.013
X3.2612Y-8.6537
X3.2612Y-9.2945
X3.2612Y-9.9352
X3.2612Y-10.576
X3.2612Y-11.2167
X3.2612Y-11.8575
X3.2612Y-12.4982
X3.2612Y-13.139
X3.2612Y-13.7797
X3.2612Y-14.4205
X3.2612Y-15.0612
X3.2612Y-15.702
X3.2612Y-16.3427
X3.2632Y-0.5671
X3.2632Y-1.2079
X3.2632Y-1.8486
X3.2632Y-2.4894
X3.2632Y-3.1301
X3.2632Y-3.7709
X3.2632Y-4.4116
X3.2632Y-5.0524
X3.2632Y-5.6931
X3.2632Y-6.3339
X3.2632Y-6.9746
X3.2632Y-7.6154
X3.2632Y-8.2561
X3.2632Y-8.8969
X3.2632Y-9.5376
X3.2632Y-10.1783
X3.2632Y-10.8191
X3.2632Y-11.4598
X3.2632Y-12.1006
X3.2632Y-12.7413
X3.2632Y-13.3821
X3.2632Y-14.0228
X3.2632Y-14.6636
X3.2632Y-15.3043
X3.2632Y-15.9451
X3.2712Y-0.7914
X3.2712Y-1.4321
X3.2712Y-2.0729
X3.2712Y-2.7136
X3.2712Y-3.3544
X3.2712Y-3.9951
X3.2712Y-4.6359
X3.2712Y-5.2766
X3.2712Y-5.9174
X3.2712Y-6.5581
X3.2712Y-7.1989
X3.2712Y-7.8396
X3.2712Y-8.4804
X3.2712Y-9.1211
X3.2712Y-9.7619
X3.2712Y-10.4026
X3.2712Y-11.0434
X3.2712Y-11.6841
X3.2712Y-12.3248
X3.2712Y-12.9656
X3.2712Y-13.6063
X3.2712Y-14.2471
X3.2712Y-14.8878
X3.2712Y-15.5286
X3.2712Y-16.1693
X3.2819Y-0.9077
X3.2819Y-1.5484
X3.2819Y-2.1892
X3.2819Y-2.8299
X3.2819Y-3.4707
X3.2819Y-4.1114
X3.2819Y-4.7522
X3.2819Y-5.3929
X3.2819Y-6.0337
X3.2819Y-6.6744
X3.2819Y-7.3152
X3.2819Y-7.9559
X3.2819Y-8.5967
X3.2819Y-9.2374
X3.2819Y-9.8781
X3.2819Y-10.5189
X3.2819Y-11.1596
X3.2819Y-11.8004
X3.2819Y-12.4411
X3.2819Y-13.0819
X3.2819Y-13.7226
X3.2819Y-14.3634
X3.2819Y-15.0041
X3.2819Y-15.6449
X3.2819Y-16.2856
X3.3065Y-0.7443
X3.3065Y-1.385
X3.3065Y-2.0258
X3.3065Y-2.6665
X3.3065Y-3.3073
X3.3065Y-3.948
X3.3065Y-4.5888
X3.3065Y-5.2295
X3.3065Y-5.8703
X3.3065Y-6.511
X3.3065Y-7.1518
X3.3065Y-7.7925
X3.3065Y-8.4333
X3.3065Y-9.074
X3.3065Y-9.7148
X3.3065Y-10.3555
X3.3065Y-10.9963
X3.3065Y-11.637
X3.3065Y-12.2778
X3.3065Y-12.9185
X3.3065Y-13.5593
X3.3065Y-14.2
X3.3065Y-14.8407
X3.3065Y-15.4815
X3.3065Y-16.1222
X3.3222Y-0.5081
X3.3222Y-1.1488
X3.3222Y-1.7896
X3.3222Y-2.4303
X3.3222Y-3.0711
X3.3222Y-3.7118
X3.3222Y-4.3526
X3.3222Y-4.9933
X3.3222Y-5.6341
X3.3222Y-6.2748
X3.3222Y-6.9156
X3.3222Y-7.5563
X3.3222Y-8.197
X3.3222Y-8.8378
X3.3222Y-9.4785
X3.3222Y-10.1193
X3.3222Y-10.76
X3.3222Y-11.4008
X3.3222Y-12.0415
X3.3222Y-12.6823
X3.3222Y-13.323
X3.3222Y-13.9638
X3.3222Y-14.6045
X3.3222Y-15.2453
X3.3222Y-15.886
X3.3242Y-1.012
X3.3242Y-1.6528
X3.3242Y-2.2935
X3.3242Y-2.9343
X3.3242Y-3.575
X3.3242Y-4.2157
X3.3242Y-4.8565
X3.3242Y-5.4972
X3.3242Y-6.138
X3.3242Y-6.7787
X3.3242Y-7.4195
X3.3242Y-8.0602
X3.3242Y-8.701
X3.3242Y-9.3417
X3.3242Y-9.9825
X3.3242Y-10.6232
X3.3242Y-11.264
X3.3242Y-11.9047
X3.3242Y-12.5455
X3.3242Y-13.1862
X3.3242Y-13.827
X3.3242Y-14.4677
X3.3242Y-15.1085
X3.3242Y-15.7492
X3.3242Y-16.39
X3.3321Y-0.9057
X3.3321Y-1.5465
X3.3321Y-2.1872
X3.3321Y-2.828
X3.3321Y-3.4687
X3.3321Y-4.1094
X3.3321Y-4.7502
X3.3321Y-5.3909
X3.3321Y-6.0317
X3.3321Y-6.6724
X3.3321Y-7.3132
X3.3321Y-7.9539
X3.3321Y-8.5947
X3.3321Y-9.2354
X3.3321Y-9.8762
X3.3321Y-10.5169
X3.3321Y-11.1577
X3.3321Y-11.7984
X3.3321Y-12.4392
X3.3321Y-13.0799
X3.3321Y-13.7207
X3.3321Y-14.3614
X3.3321Y-15.0022
X3.3321Y-15.6429
X3.3321Y-16.2837
X3.3393Y-0.9633
X3.3393Y-1.6041
X3.3393Y-2.2448
X3.3393Y-2.8856
X3.3393Y-3.5263
X3.3393Y-4.1671
X3.3393Y-4.8078
X3.3393Y-5.4486
X3.3393Y-6.0893
X3.3393Y-6.7301
X3.3393Y-7.3708
X3.3393Y-8.0116
X3.3393Y-8.6523
X3.3393Y-9.293
X3.3393Y-9.9338
X3.3393Y-10.5745
X3.3393Y-11.2153
X3.3393Y-11.856
X3.3393Y-12.4968
X3.3393Y-13.1375
X3.3393Y-13.7783
X3.3393Y-14.419
X3.3393Y-15.0598
X3.3393Y-15.7005
X3.3393Y-16.3413
X3.3656Y-0.6055
X3.3656Y-1.2463
X3.3656Y-1.887
X3.3656Y-2.5278
X3.3656Y-3.1685
X3.3656Y-3.8093
X3.3656Y-4.45
X3.3656Y-5.0907
X3.3656Y-5.7315
X3.3656Y-6.3722
X3.3656Y-7.013
X3.3656Y-7.6537
X3.3656Y-8.2945
X3.3656Y-8.9352
X3.3656Y-9.576
X3.3656Y-10.2167
X3.3656Y-10.8575
X3.3656Y-11.4982
X3.3656Y-12.139
X3.3656Y-12.7797
X3.3656Y-13.4205
X3.3656Y-14.0612
X3.3656Y-14.702
X3.3656Y-15.3427
X3.3656Y-15.9835
X3.3813Y-0.5671
X3.3813Y-1.2079
X3.3813Y-1.8486
X3.3813Y-2.4894
X3.3813Y-3.1301
X3.3813Y-3.7709
X3.3813Y-4.4116
X3.3813Y-5.0524
X3.3813Y-5.6931
X3.3813Y-6.3339
X3.3813Y-6.9746
X3.3813Y-7.6154
X3.3813Y-8.2561
X3.3813Y-8.8969
X3.3813Y-9.5376
X3.3813Y-10.1783
X3.3813Y-10.8191
X3.3813Y-11.4598
X3.3813Y-12.1006
X3.3813Y-12.7413
X3.3813Y-13.3821
X3.3813Y-14.0228
X3.3813Y-14.6636
X3.3813Y-15.3043
X3.3813Y-15.9451
X3.3872Y-0.76
X3.3872Y-1.4008
X3.3872Y-2.0415
X3.3872Y-2.6823
X3.3872Y-3.323
X3.3872Y-3.9638
X3.3872Y-4.6045
X3.3872Y-5.2453
X3.3872Y-5.886
X3.3872Y-6.5268
X3.3872Y-7.1675
X3.3872Y-7.8083
X3.3872Y-8.449
X3.3872Y-9.0898
X3.3872Y-9.7305
X3.3872Y-10.3713
X3.3872Y-11.012
X3.3872Y-11.6528
X3.3872Y-12.2935
X3.3872Y-12.9343
X3.3872Y-13.575
X3.3872Y-14.2157
X3.3872Y-14.8565
X3.3872Y-15.4972
X3.3872Y-16.138
X3.4305Y-0.7069
X3.4305Y-1.3476
X3.4305Y-1.9884
X3.4305Y-2.6291
X3.4305Y-3.2699
X3.4305Y-3.9106
X3.4305Y-4.5514
X3.4305Y-5.1921
X3.4305Y-5.8329
X3.4305Y-6.4736
X3.4305Y-7.1144
X3.4305Y-7.7551
X3.4305Y-8.3959
X3.4305Y-9.0366
X3.4305Y-9.6774
X3.4305Y-10.3181
X3.4305Y-10.9589
X3.4305Y-11.5996
X3.4305Y-12.2404
X3.4305Y-12.8811
X3.4305Y-13.5219
X3.4305Y-14.1626
X3.4305Y-14.8033
X3.4305Y-15.4441
X3.4305Y-16.0848
X3.4423Y-0.7915
X3.4423Y-1.4323
X3.4423Y-2.073
X3.4423Y-2.7138
X3.4423Y-3.3545
X3.4423Y-3.9953
X3.4423Y-4.636
X3.4423Y-5.2768
X3.4423Y-5.9175
X3.4423Y-6.5583
X3.4423Y-7.199
X3.4423Y-7.8398
X3.4423Y-8.4805
X3.4423Y-9.1213
X3.4423Y-9.762
X3.4423Y-10.4028
X3.4423Y-11.0435
X3.4423Y-11.6843
X3.4423Y-12.325
X3.4423Y-12.9657
X3.4423Y-13.6065
X3.4423Y-14.2472
X3.4423Y-14.888
X3.4423Y-15.5287
X3.4423Y-16.1695
X3.4778Y-0.4372
X3.4778Y-1.078
X3.4778Y-1.7187
X3.4778Y-2.3594
X3.4778Y-3.0002
X3.4778Y-3.6409
X3.4778Y-4.2817
X3.4778Y-4.9224
X3.4778Y-5.5632
X3.4778Y-6.2039
X3.4778Y-6.8447
X3.4778Y-7.4854
X3.4778Y-8.1262
X3.4778Y-8.7669
X3.4778Y-9.4077
X3.4778Y-10.0484
X3.4778Y-10.6892
X3.4778Y-11.3299
X3.4778Y-11.9707
X3.4778Y-12.6114
X3.4778Y-13.2522
X3.4778Y-13.8929
X3.4778Y-14.5337
X3.4778Y-15.1744
X3.4778Y-15.8152
X3.5014Y-0.7482
X3.5014Y-1.389
X3.5014Y-2.0297
X3.5014Y-2.6705
X3.5014Y-3.3112
X3.5014Y-3.952
X3.5014Y-4.5927
X3.5014Y-5.2335
X3.5014Y-5.8742
X3.5014Y-6.515
X3.5014Y-7.1557
X3.5014Y-7.7965
X3.5014Y-8.4372
X3.5014Y-9.078
X3.5014Y-9.7187
X3.5014Y-10.3594
X3.5014Y-11.0002
X3.5014Y-11.6409
X3.5014Y-12.2817
X3.5014Y-12.9224
X3.5014Y-13.5632
X3.5014Y-14.2039
X3.5014Y-14.8447
X3.5014Y-15.4854
X3.5014Y-16.1262
X3.5164Y-0.6691
X3.5164Y-1.3098
X3.5164Y-1.9506
X3.5164Y-2.5913
X3.5164Y-3.2321
X3.5164Y-3.8728
X3.5164Y-4.5136
X3.5164Y-5.1543
X3.5164Y-5.7951
X3.5164Y-6.4358
X3.5164Y-7.0766
X3.5164Y-7.7173
X3.5164Y-8.358
X3.5164Y-8.9988
X3.5164Y-9.6395
X3.5164Y-10.2803
X3.5164Y-10.921
X3.5164Y-11.5618
X3.5164Y-12.2025
X3.5164Y-12.8433
X3.5164Y-13.484
X3.5164Y-14.1248
X3.5164Y-14.7655
X3.5164Y-15.4063
X3.5164Y-16.047
X3.5211Y-0.7089
X3.5211Y-1.3496
X3.5211Y-1.9904
X3.5211Y-2.6311
X3.5211Y-3.2719
X3.5211Y-3.9126
X3.5211Y-4.5533
X3.5211Y-5.1941
X3.5211Y-5.8348
X3.5211Y-6.4756
X3.5211Y-7.1163
X3.5211Y-7.7571
X3.5211Y-8.3978
X3.5211Y-9.0386
X3.5211Y-9.6793
X3.5211Y-10.3201
X3.5211Y-10.9608
X3.5211Y-11.6016
X3.5211Y-12.2423
X3.5211Y-12.8831
X3.5211Y-13.5238
X3.5211Y-14.1646
X3.5211Y-14.8053
X3.5211Y-15.4461
X3.5211Y-16.0868
X3.5368Y-0.8348
X3.5368Y-1.4756
X3.5368Y-2.1163
X3.5368Y-2.7571
X3.5368Y-3.3978
X3.5368Y-4.0386
X3.5368Y-4.6793
X3.5368Y-5.3201
X3.5368Y-5.9608
X3.5368Y-6.6016
X3.5368Y-7.2423
X3.5368Y-7.8831
X3.5368Y-8.5238
X3.5368Y-9.1646
X3.5368Y-9.8053
X3.5368Y-10.4461
X3.5368Y-11.0868
X3.5368Y-11.7276
X3.5368Y-12.3683
X3.5368Y-13.0091
X3.5368Y-13.6498
X3.5368Y-14.2906
X3.5368Y-14.9313
X3.5368Y-15.572
X3.5368Y-16.2128
X3.5457Y-0.9963
X3.5457Y-1.637
X3.5457Y-2.2778
X3.5457Y-2.9185
X3.5457Y-3.5593
X3.5457Y-4.2
X3.5457Y-4.8407
X3.5457Y-5.4815
X3.5457Y-6.1222
X3.5457Y-6.763
X3.5457Y-7.4037
X3.5457Y-8.0445
X3.5457Y-8.6852
X3.5457Y-9.326
X3.5457Y-9.9667
X3.5457Y-10.6075
X3.5457Y-11.2482
X3.5457Y-11.889
X3.5457Y-12.5297
X3.5457Y-13.1705
X3.5457Y-13.8112
X3.5457Y-14.452
X3.5457Y-15.0927
X3.5457Y-15.7335
X3.5457Y-16.3742
X3.5604Y-0.8073
X3.5604Y-1.448
X3.5604Y-2.0888
X3.5604Y-2.7295
X3.5604Y-3.3703
X3.5604Y-4.011
X3.5604Y-4.6518
X3.5604Y-5.2925
X3.5604Y-5.9333
X3.5604Y-6.574
X3.5604Y-7.2148
X3.5604Y-7.8555
X3.5604Y-8.4963
X3.5604Y-9.137
X3.5604Y-9.7778
X3.5604Y-10.4185
X3.5604Y-11.0593
X3.5604Y-11.7
X3.5604Y-12.3407
X3.5604Y-12.9815
X3.5604Y-13.6222
X3.5604Y-14.263
X3.5604Y-14.9037
X3.5604Y-15.5445
X3.5604Y-16.1852
X3.5998Y-0.4913
X3.5998Y-1.1321
X3.5998Y-1.7728
X3.5998Y-2.4136
X3.5998Y-3.0543
X3.5998Y-3.6951
X3.5998Y-4.3358
X3.5998Y-4.9766
X3.5998Y-5.6173
X3.5998Y-6.2581
X3.5998Y-6.8988
X3.5998Y-7.5396
X3.5998Y-8.1803
X3.5998Y-8.8211
X3.5998Y-9.4618
X3.5998Y-10.1026
X3.5998Y-10.7433
X3.5998Y-11.3841
X3.5998Y-12.0248
X3.5998Y-12.6656
X3.5998Y-13.3063
X3.5998Y-13.947
X3.5998Y-14.5878
X3.5998Y-15.2285
X3.5998Y-15.8693
X3.6037Y-0.8978
X3.6037Y-1.5386
X3.6037Y-2.1793
X3.6037Y-2.8201
X3.6037Y-3.4608
X3.6037Y-4.1016
X3.6037Y-4.7423
X3.6037Y-5.3831
X3.6037Y-6.0238
X3.6037Y-6.6646
X3.6037Y-7.3053
X3.6037Y-7.9461
X3.6037Y-8.5868
X3.6037Y-9.2276
X3.6037Y-9.8683
X3.6037Y-10.5091
X3.6037Y-11.1498
X3.6037Y-11.7906
X3.6037Y-12.4313
X3.6037Y-13.072
X3.6037Y-13.7128
X3.6037Y-14.3535
X3.6037Y-14.9943
X3.6037Y-15.635
X3.6037Y-16.2758
X3.6175Y-0.9343
X3.6175Y-1.575
X3.6175Y-2.2157
X3.6175Y-2.8565
X3.6175Y-3.4972
X3.6175Y-4.138
X3.6175Y-4.7787
X3.6175Y-5.4195
X3.6175Y-6.0602
X3.6175Y-6.701
X3.6175Y-7.3417
X3.6175Y-7.9825
X3.6175Y-8.6232
X3.6175Y-9.264
X3.6175Y-9.9047
X3.6175Y-10.5455
X3.6175Y-11.1862
X3.6175Y-11.827
X3.6175Y-12.4677
X3.6175Y-13.1085
X3.6175Y-13.7492
X3.6175Y-14.39
X3.6175Y-15.0307
X3.6175Y-15.6715
X3.6175Y-16.3122
X3.6283Y-0.7994
X3.6283Y-1.4402
X3.6283Y-2.0809
X3.6283Y-2.7217
X3.6283Y-3.3624
X3.6283Y-4.0031
X3.6283Y-4.6439
X3.6283Y-5.2846
X3.6283Y-5.9254
X3.6283Y-6.5661
X3.6283Y-7.2069
X3.6283Y-7.8476
X3.6283Y-8.4884
X3.6283Y-9.1291
X3.6283Y-9.7699
X3.6283Y-10.4106
X3.6283Y-11.0514
X3.6283Y-11.6921
X3.6283Y-12.3329
X3.6283Y-12.9736
X3.6283Y-13.6144
X3.6283Y-14.2551
X3.6283Y-14.8959
X3.6283Y-15.5366
X3.6283Y-16.1774
X3.6293Y-0.636
X3.6293Y-1.2768
X3.6293Y-1.9175
X3.6293Y-2.5583
X3.6293Y-3.199
X3.6293Y-3.8398
X3.6293Y-4.4805
X3.6293Y-5.1213
X3.6293Y-5.762
X3.6293Y-6.4028
X3.6293Y-7.0435
X3.6293Y-7.6843
X3.6293Y-8.325
X3.6293Y-8.9657
X3.6293Y-9.6065
X3.6293Y-10.2472
X3.6293Y-10.888
X3.6293Y-11.5287
X3.6293Y-12.1695
X3.6293Y-12.8102
X3.6293Y-13.451
X3.6293Y-14.0917
X3.6293Y-14.7325
X3.6293Y-15.3732
X3.6293Y-16.014
X3.649Y-1.0081
X3.649Y-1.6488
X3.649Y-2.2896
X3.649Y-2.9303
X3.649Y-3.5711
X3.649Y-4.2118
X3.649Y-4.8526
X3.649Y-5.4933
X3.649Y-6.1341
X3.649Y-6.7748
X3.649Y-7.4156
X3.649Y-8.0563
X3.649Y-8.697
X3.649Y-9.3378
X3.649Y-9.9785
X3.649Y-10.6193
X3.649Y-11.26
X3.649Y-11.9008
X3.649Y-12.5415
X3.649Y-13.1823
X3.649Y-13.823
X3.649Y-14.4638
X3.649Y-15.1045
X3.649Y-15.7453
X3.649Y-16.386
X3.6687Y-0.5829
X3.6687Y-1.2236
X3.6687Y-1.8644
X3.6687Y-2.5051
X3.6687Y-3.1459
X3.6687Y-3.7866
X3.6687Y-4.4274
X3.6687Y-5.0681
X3.6687Y-5.7089
X3.6687Y-6.3496
X3.6687Y-6.9904
X3.6687Y-7.6311
X3.6687Y-8.2719
X3.6687Y-8.9126
X3.6687Y-9.5533
X3.6687Y-10.1941
X3.6687Y-10.8348
X3.6687Y-11.4756
X3.6687Y-12.1163
X3.6687Y-12.7571
X3.6687Y-13.3978
X3.6687Y-14.0386
X3.6687Y-14.6793
X3.6687Y-15.3201
X3.6687Y-15.9608
X3.7868Y-0.577
X3.7868Y-1.2177
X3.7868Y-1.8585
X3.7868Y-2.4992
X3.7868Y-3.14
X3.7868Y-3.7807
X3.7868Y-4.4215
X3.7868Y-5.0622
X3.7868Y-5.703
X3.7868Y-6.3437
X3.7868Y-6.9844
X3.7868Y-7.6252
X3.7868Y-8.2659
X3.7868Y-8.9067
X3.7868Y-9.5474
X3.7868Y-10.1882
X3.7868Y-10.8289
X3.7868Y-11.4697
X3.7868Y-12.1104
X3.7868Y-12.7512
X3.7868Y-13.3919
X3.7868Y-14.0327
X3.7868Y-14.6734
X3.7868Y-15.3142
X3.7868Y-15.9549
X3.7878Y-0.8732
X3.7878Y-1.514
X3.7878Y-2.1547
X3.7878Y-2.7955
X3.7878Y-3.4362
X3.7878Y-4.077
X3.7878Y-4.7177
X3.7878Y-5.3585
X3.7878Y-5.9992
X3.7878Y-6.64
X3.7878Y-7.2807
X3.7878Y-7.9215
X3.7878Y-8.5622
X3.7878Y-9.203
X3.7878Y-9.8437
X3.7878Y-10.4844
X3.7878Y-11.1252
X3.7878Y-11.7659
X3.7878Y-12.4067
X3.7878Y-13.0474
X3.7878Y-13.6882
X3.7878Y-14.3289
X3.7878Y-14.9697
X3.7878Y-15.6104
X3.7878Y-16.2512
T3
X0.503Y-0.6231
X0.503Y-0.8003
X0.503Y-1.2638
X0.503Y-1.441
X0.503Y-1.9046
X0.503Y-2.0818
X0.503Y-2.5453
X0.503Y-2.7225
X0.503Y-3.1861
X0.503Y-3.3633
X0.503Y-3.8268
X0.503Y-4.004
X0.503Y-4.4676
X0.503Y-4.6448
X0.503Y-5.1083
X0.503Y-5.2855
X0.503Y-5.7491
X0.503Y-5.9263
X0.503Y-6.3898
X0.503Y-6.567
X0.503Y-7.0305
X0.503Y-7.2077
X0.503Y-7.6713
X0.503Y-7.8485
X0.503Y-8.312
X0.503Y-8.4892
X0.503Y-8.9528
X0.503Y-9.13
X0.503Y-9.5935
X0.503Y-9.7707
X0.503Y-10.2343
X0.503Y-10.4115
X0.503Y-10.875
X0.503Y-11.0522
X0.503Y-11.5158
X0.503Y-11.693
X0.503Y-12.1565
X0.503Y-12.3337
X0.503Y-12.7973
X0.503Y-12.9745
X0.503Y-13.438
X0.503Y-13.6152
X0.503Y-14.0788
X0.503Y-14.256
X0.503Y-14.7195
X0.503Y-14.8967
X0.503Y-15.3603
X0.503Y-15.5375
X0.503Y-16.001
X0.503Y-16.1782
X1.9989Y-0.6279
X1.9989Y-0.8051
X1.9989Y-1.2686
X1.9989Y-1.4458
X1.9989Y-1.9094
X1.9989Y-2.0866
X1.9989Y-2.5501
X1.9989Y-2.7273
X1.9989Y-3.1909
X1.9989Y-3.3681
X1.9989Y-3.8316
X1.9989Y-4.0088
X1.9989Y-4.4724
X1.9989Y-4.6496
X1.9989Y-5.1131
X1.9989Y-5.2903
X1.9989Y-5.7539
X1.9989Y-5.9311
X1.9989Y-6.3946
X1.9989Y-6.5718
X1.9989Y-7.0354
X1.9989Y-7.2126
X1.9989Y-7.6761
X1.9989Y-7.8533
X1.9989Y-8.3169
X1.9989Y-8.4941
X1.9989Y-8.9576
X1.9989Y-9.1348
X1.9989Y-9.5984
X1.9989Y-9.7756
X1.9989Y-10.2391
X1.9989Y-10.4163
X1.9989Y-10.8798
X1.9989Y-11.057
X1.9989Y-11.5206
X1.9989Y-11.6978
X1.9989Y-12.1613
X1.9989Y-12.3385
X1.9989Y-12.8021
X1.9989Y-12.9793
X1.9989Y-13.4428
X1.9989Y-13.62
X1.9989Y-14.0836
X1.9989Y-14.2608
X1.9989Y-14.7243
X1.9989Y-14.9015
X1.9989Y-15.3651
X1.9989Y-15.5423
X1.9989Y-16.0058
X1.9989Y-16.183
X2.2176Y-0.6231
X2.2176Y-0.8003
X2.2176Y-1.2638
X2.2176Y-1.441
X2.2176Y-1.9046
X2.2176Y-2.0818
X2.2176Y-2.5453
X2.2176Y-2.7225
X2.2176Y-3.1861
X2.2176Y-3.3633
X2.2176Y-3.8268
X2.2176Y-4.004
X2.2176Y-4.4676
X2.2176Y-4.6448
X2.2176Y-5.1083
X2.2176Y-5.2855
X2.2176Y-5.7491
X2.2176Y-5.9263
X2.2176Y-6.3898
X2.2176Y-6.567
X2.2176Y-7.0305
X2.2176Y-7.2077
X2.2176Y-7.6713
X2.2176Y-7.8485
X2.2176Y-8.312
X2.2176Y-8.4892
X2.2176Y-8.9528
X2.2176Y-9.13
X2.2176Y-9.5935
X2.2176Y-9.7707
X2.2176Y-10.2343
X2.2176Y-10.4115
X2.2176Y-10.875
X2.2176Y-11.0522
X2.2176Y-11.5158
X2.2176Y-11.693
X2.2176Y-12.1565
X2.2176Y-12.3337
X2.2176Y-12.7973
X2.2176Y-12.9745
X2.2176Y-13.438
X2.2176Y-13.6152
X2.2176Y-14.0788
X2.2176Y-14.256
X2.2176Y-14.7195
X2.2176Y-14.8967
X2.2176Y-15.3603
X2.2176Y-15.5375
X2.2176Y-16.001
X2.2176Y-16.1782
X3.7135Y-0.6279
X3.7135Y-0.8051
X3.7135Y-1.2686
X3.7135Y-1.4458
X3.7135Y-1.9094
X3.7135Y-2.0866
X3.7135Y-2.5501
X3.7135Y-2.7273
X3.7135Y-3.1909
X3.7135Y-3.3681
X3.7135Y-3.8316
X3.7135Y-4.0088
X3.7135Y-4.4724
X3.7135Y-4.6496
X3.7135Y-5.1131
X3.7135Y-5.2903
X3.7135Y-5.7539
X3.7135Y-5.9311
X3.7135Y-6.3946
X3.7135Y-6.5718
X3.7135Y-7.0354
X3.7135Y-7.2126
X3.7135Y-7.6761
X3.7135Y-7.8533
X3.7135Y-8.3169
X3.7135Y-8.4941
X3.7135Y-8.9576
X3.7135Y-9.1348
X3.7135Y-9.5984
X3.7135Y-9.7756
X3.7135Y-10.2391
X3.7135Y-10.4163
X3.7135Y-10.8798
X3.7135Y-11.057
X3.7135Y-11.5206
X3.7135Y-11.6978
X3.7135Y-12.1613
X3.7135Y-12.3385
X3.7135Y-12.8021
X3.7135Y-12.9793
X3.7135Y-13.4428
X3.7135Y-13.62
X3.7135Y-14.0836
X3.7135Y-14.2608
X3.7135Y-14.7243
X3.7135Y-14.9015
X3.7135Y-15.3651
X3.7135Y-15.5423
X3.7135Y-16.0058
X3.7135Y-16.183
T2
G00X0.4735Y-0.4873
M15
G01X0.5325Y-0.4873
M16
G05
G00X0.4735Y-0.9361
M15
G01X0.5325Y-0.9361
M16
G05
G00X0.4735Y-1.128
M15
G01X0.5325Y-1.128
M16
G05
G00X0.4735Y-1.5768
M15
G01X0.5325Y-1.5768
M16
G05
G00X0.4735Y-1.7688
M15
G01X0.5325Y-1.7688
M16
G05
G00X0.4735Y-2.2176
M15
G01X0.5325Y-2.2176
M16
G05
G00X0.4735Y-2.4095
M15
G01X0.5325Y-2.4095
M16
G05
G00X0.4735Y-2.8583
M15
G01X0.5325Y-2.8583
M16
G05
G00X0.4735Y-3.0503
M15
G01X0.5325Y-3.0503
M16
G05
G00X0.4735Y-3.4991
M15
G01X0.5325Y-3.4991
M16
G05
G00X0.4735Y-3.691
M15
G01X0.5325Y-3.691
M16
G05
G00X0.4735Y-4.1398
M15
G01X0.5325Y-4.1398
M16
G05
G00X0.4735Y-4.3318
M15
G01X0.5325Y-4.3318
M16
G05
G00X0.4735Y-4.7806
M15
G01X0.5325Y-4.7806
M16
G05
G00X0.4735Y-4.9725
M15
G01X0.5325Y-4.9725
M16
G05
G00X0.4735Y-5.4213
M15
G01X0.5325Y-5.4213
M16
G05
G00X0.4735Y-5.6133
M15
G01X0.5325Y-5.6133
M16
G05
G00X0.4735Y-6.0621
M15
G01X0.5325Y-6.0621
M16
G05
G00X0.4735Y-6.254
M15
G01X0.5325Y-6.254
M16
G05
G00X0.4735Y-6.7028
M15
G01X0.5325Y-6.7028
M16
G05
G00X0.4735Y-6.8947
M15
G01X0.5325Y-6.8947
M16
G05
G00X0.4735Y-7.3435
M15
G01X0.5325Y-7.3435
M16
G05
G00X0.4735Y-7.5355
M15
G01X0.5325Y-7.5355
M16
G05
G00X0.4735Y-7.9843
M15
G01X0.5325Y-7.9843
M16
G05
G00X0.4735Y-8.1762
M15
G01X0.5325Y-8.1762
M16
G05
G00X0.4735Y-8.625
M15
G01X0.5325Y-8.625
M16
G05
G00X0.4735Y-8.817
M15
G01X0.5325Y-8.817
M16
G05
G00X0.4735Y-9.2658
M15
G01X0.5325Y-9.2658
M16
G05
G00X0.4735Y-9.4577
M15
G01X0.5325Y-9.4577
M16
G05
G00X0.4735Y-9.9065
M15
G01X0.5325Y-9.9065
M16
G05
G00X0.4735Y-10.0985
M15
G01X0.5325Y-10.0985
M16
G05
G00X0.4735Y-10.5473
M15
G01X0.5325Y-10.5473
M16
G05
G00X0.4735Y-10.7392
M15
G01X0.5325Y-10.7392
M16
G05
G00X0.4735Y-11.188
M15
G01X0.5325Y-11.188
M16
G05
G00X0.4735Y-11.38
M15
G01X0.5325Y-11.38
M16
G05
G00X0.4735Y-11.8288
M15
G01X0.5325Y-11.8288
M16
G05
G00X0.4735Y-12.0207
M15
G01X0.5325Y-12.0207
M16
G05
G00X0.4735Y-12.4695
M15
G01X0.5325Y-12.4695
M16
G05
G00X0.4735Y-12.6615
M15
G01X0.5325Y-12.6615
M16
G05
G00X0.4735Y-13.1103
M15
G01X0.5325Y-13.1103
M16
G05
G00X0.4735Y-13.3022
M15
G01X0.5325Y-13.3022
M16
G05
G00X0.4735Y-13.751
M15
G01X0.5325Y-13.751
M16
G05
G00X0.4735Y-13.943
M15
G01X0.5325Y-13.943
M16
G05
G00X0.4735Y-14.3918
M15
G01X0.5325Y-14.3918
M16
G05
G00X0.4735Y-14.5837
M15
G01X0.5325Y-14.5837
M16
G05
G00X0.4735Y-15.0325
M15
G01X0.5325Y-15.0325
M16
G05
G00X0.4735Y-15.2245
M15
G01X0.5325Y-15.2245
M16
G05
G00X0.4735Y-15.6733
M15
G01X0.5325Y-15.6733
M16
G05
G00X0.4735Y-15.8652
M15
G01X0.5325Y-15.8652
M16
G05
G00X0.4735Y-16.314
M15
G01X0.5325Y-16.314
M16
G05
G00X2.0284Y-0.4921
M15
G01X1.9694Y-0.4921
M16
G05
G00X2.0284Y-0.9409
M15
G01X1.9694Y-0.9409
M16
G05
G00X2.0284Y-1.1328
M15
G01X1.9694Y-1.1328
M16
G05
G00X2.0284Y-1.5816
M15
G01X1.9694Y-1.5816
M16
G05
G00X2.0284Y-1.7736
M15
G01X1.9694Y-1.7736
M16
G05
G00X2.0284Y-2.2224
M15
G01X1.9694Y-2.2224
M16
G05
G00X2.0284Y-2.4143
M15
G01X1.9694Y-2.4143
M16
G05
G00X2.0284Y-2.8631
M15
G01X1.9694Y-2.8631
M16
G05
G00X2.0284Y-3.0551
M15
G01X1.9694Y-3.0551
M16
G05
G00X2.0284Y-3.5039
M15
G01X1.9694Y-3.5039
M16
G05
G00X2.0284Y-3.6958
M15
G01X1.9694Y-3.6958
M16
G05
G00X2.0284Y-4.1446
M15
G01X1.9694Y-4.1446
M16
G05
G00X2.0284Y-4.3366
M15
G01X1.9694Y-4.3366
M16
G05
G00X2.0284Y-4.7854
M15
G01X1.9694Y-4.7854
M16
G05
G00X2.0284Y-4.9773
M15
G01X1.9694Y-4.9773
M16
G05
G00X2.0284Y-5.4261
M15
G01X1.9694Y-5.4261
M16
G05
G00X2.0284Y-5.6181
M15
G01X1.9694Y-5.6181
M16
G05
G00X2.0284Y-6.0669
M15
G01X1.9694Y-6.0669
M16
G05
G00X2.0284Y-6.2588
M15
G01X1.9694Y-6.2588
M16
G05
G00X2.0284Y-6.7076
M15
G01X1.9694Y-6.7076
M16
G05
G00X2.0284Y-6.8996
M15
G01X1.9694Y-6.8996
M16
G05
G00X2.0284Y-7.3484
M15
G01X1.9694Y-7.3484
M16
G05
G00X2.0284Y-7.5403
M15
G01X1.9694Y-7.5403
M16
G05
G00X2.0284Y-7.9891
M15
G01X1.9694Y-7.9891
M16
G05
G00X2.0284Y-8.1811
M15
G01X1.9694Y-8.1811
M16
G05
G00X2.0284Y-8.6299
M15
G01X1.9694Y-8.6299
M16
G05
G00X2.0284Y-8.8218
M15
G01X1.9694Y-8.8218
M16
G05
G00X2.0284Y-9.2706
M15
G01X1.9694Y-9.2706
M16
G05
G00X2.0284Y-9.4626
M15
G01X1.9694Y-9.4626
M16
G05
G00X2.0284Y-9.9114
M15
G01X1.9694Y-9.9114
M16
G05
G00X2.0284Y-10.1033
M15
G01X1.9694Y-10.1033
M16
G05
G00X2.0284Y-10.5521
M15
G01X1.9694Y-10.5521
M16
G05
G00X2.0284Y-10.744
M15
G01X1.9694Y-10.744
M16
G05
G00X2.0284Y-11.1928
M15
G01X1.9694Y-11.1928
M16
G05
G00X2.0284Y-11.3848
M15
G01X1.9694Y-11.3848
M16
G05
G00X2.0284Y-11.8336
M15
G01X1.9694Y-11.8336
M16
G05
G00X2.0284Y-12.0255
M15
G01X1.9694Y-12.0255
M16
G05
G00X2.0284Y-12.4743
M15
G01X1.9694Y-12.4743
M16
G05
G00X2.0284Y-12.6663
M15
G01X1.9694Y-12.6663
M16
G05
G00X2.0284Y-13.1151
M15
G01X1.9694Y-13.1151
M16
G05
G00X2.0284Y-13.307
M15
G01X1.9694Y-13.307
M16
G05
G00X2.0284Y-13.7558
M15
G01X1.9694Y-13.7558
M16
G05
G00X2.0284Y-13.9478
M15
G01X1.9694Y-13.9478
M16
G05
G00X2.0284Y-14.3966
M15
G01X1.9694Y-14.3966
M16
G05
G00X2.0284Y-14.5885
M15
G01X1.9694Y-14.5885
M16
G05
G00X2.0284Y-15.0373
M15
G01X1.9694Y-15.0373
M16
G05
G00X2.0284Y-15.2293
M15
G01X1.9694Y-15.2293
M16
G05
G00X2.0284Y-15.6781
M15
G01X1.9694Y-15.6781
M16
G05
G00X2.0284Y-15.87
M15
G01X1.9694Y-15.87
M16
G05
G00X2.0284Y-16.3188
M15
G01X1.9694Y-16.3188
M16
G05
G00X2.1881Y-0.4873
M15
G01X2.2471Y-0.4873
M16
G05
G00X2.1881Y-0.9361
M15
G01X2.2471Y-0.9361
M16
G05
G00X2.1881Y-1.128
M15
G01X2.2471Y-1.128
M16
G05
G00X2.1881Y-1.5768
M15
G01X2.2471Y-1.5768
M16
G05
G00X2.1881Y-1.7688
M15
G01X2.2471Y-1.7688
M16
G05
G00X2.1881Y-2.2176
M15
G01X2.2471Y-2.2176
M16
G05
G00X2.1881Y-2.4095
M15
G01X2.2471Y-2.4095
M16
G05
G00X2.1881Y-2.8583
M15
G01X2.2471Y-2.8583
M16
G05
G00X2.1881Y-3.0503
M15
G01X2.2471Y-3.0503
M16
G05
G00X2.1881Y-3.4991
M15
G01X2.2471Y-3.4991
M16
G05
G00X2.1881Y-3.691
M15
G01X2.2471Y-3.691
M16
G05
G00X2.1881Y-4.1398
M15
G01X2.2471Y-4.1398
M16
G05
G00X2.1881Y-4.3318
M15
G01X2.2471Y-4.3318
M16
G05
G00X2.1881Y-4.7806
M15
G01X2.2471Y-4.7806
M16
G05
G00X2.1881Y-4.9725
M15
G01X2.2471Y-4.9725
M16
G05
G00X2.1881Y-5.4213
M15
G01X2.2471Y-5.4213
M16
G05
G00X2.1881Y-5.6133
M15
G01X2.2471Y-5.6133
M16
G05
G00X2.1881Y-6.0621
M15
G01X2.2471Y-6.0621
M16
G05
G00X2.1881Y-6.254
M15
G01X2.2471Y-6.254
M16
G05
G00X2.1881Y-6.7028
M15
G01X2.2471Y-6.7028
M16
G05
G00X2.1881Y-6.8947
M15
G01X2.2471Y-6.8947
M16
G05
G00X2.1881Y-7.3435
M15
G01X2.2471Y-7.3435
M16
G05
G00X2.1881Y-7.5355
M15
G01X2.2471Y-7.5355
M16
G05
G00X2.1881Y-7.9843
M15
G01X2.2471Y-7.9843
M16
G05
G00X2.1881Y-8.1762
M15
G01X2.2471Y-8.1762
M16
G05
G00X2.1881Y-8.625
M15
G01X2.2471Y-8.625
M16
G05
G00X2.1881Y-8.817
M15
G01X2.2471Y-8.817
M16
G05
G00X2.1881Y-9.2658
M15
G01X2.2471Y-9.2658
M16
G05
G00X2.1881Y-9.4577
M15
G01X2.2471Y-9.4577
M16
G05
G00X2.1881Y-9.9065
M15
G01X2.2471Y-9.9065
M16
G05
G00X2.1881Y-10.0985
M15
G01X2.2471Y-10.0985
M16
G05
G00X2.1881Y-10.5473
M15
G01X2.2471Y-10.5473
M16
G05
G00X2.1881Y-10.7392
M15
G01X2.2471Y-10.7392
M16
G05
G00X2.1881Y-11.188
M15
G01X2.2471Y-11.188
M16
G05
G00X2.1881Y-11.38
M15
G01X2.2471Y-11.38
M16
G05
G00X2.1881Y-11.8288
M15
G01X2.2471Y-11.8288
M16
G05
G00X2.1881Y-12.0207
M15
G01X2.2471Y-12.0207
M16
G05
G00X2.1881Y-12.4695
M15
G01X2.2471Y-12.4695
M16
G05
G00X2.1881Y-12.6615
M15
G01X2.2471Y-12.6615
M16
G05
G00X2.1881Y-13.1103
M15
G01X2.2471Y-13.1103
M16
G05
G00X2.1881Y-13.3022
M15
G01X2.2471Y-13.3022
M16
G05
G00X2.1881Y-13.751
M15
G01X2.2471Y-13.751
M16
G05
G00X2.1881Y-13.943
M15
G01X2.2471Y-13.943
M16
G05
G00X2.1881Y-14.3918
M15
G01X2.2471Y-14.3918
M16
G05
G00X2.1881Y-14.5837
M15
G01X2.2471Y-14.5837
M16
G05
G00X2.1881Y-15.0325
M15
G01X2.2471Y-15.0325
M16
G05
G00X2.1881Y-15.2245
M15
G01X2.2471Y-15.2245
M16
G05
G00X2.1881Y-15.6733
M15
G01X2.2471Y-15.6733
M16
G05
G00X2.1881Y-15.8652
M15
G01X2.2471Y-15.8652
M16
G05
G00X2.1881Y-16.314
M15
G01X2.2471Y-16.314
M16
G05
G00X3.743Y-0.4921
M15
G01X3.684Y-0.4921
M16
G05
G00X3.743Y-0.9409
M15
G01X3.684Y-0.9409
M16
G05
G00X3.743Y-1.1328
M15
G01X3.684Y-1.1328
M16
G05
G00X3.743Y-1.5816
M15
G01X3.684Y-1.5816
M16
G05
G00X3.743Y-1.7736
M15
G01X3.684Y-1.7736
M16
G05
G00X3.743Y-2.2224
M15
G01X3.684Y-2.2224
M16
G05
G00X3.743Y-2.4143
M15
G01X3.684Y-2.4143
M16
G05
G00X3.743Y-2.8631
M15
G01X3.684Y-2.8631
M16
G05
G00X3.743Y-3.0551
M15
G01X3.684Y-3.0551
M16
G05
G00X3.743Y-3.5039
M15
G01X3.684Y-3.5039
M16
G05
G00X3.743Y-3.6958
M15
G01X3.684Y-3.6958
M16
G05
G00X3.743Y-4.1446
M15
G01X3.684Y-4.1446
M16
G05
G00X3.743Y-4.3366
M15
G01X3.684Y-4.3366
M16
G05
G00X3.743Y-4.7854
M15
G01X3.684Y-4.7854
M16
G05
G00X3.743Y-4.9773
M15
G01X3.684Y-4.9773
M16
G05
G00X3.743Y-5.4261
M15
G01X3.684Y-5.4261
M16
G05
G00X3.743Y-5.6181
M15
G01X3.684Y-5.6181
M16
G05
G00X3.743Y-6.0669
M15
G01X3.684Y-6.0669
M16
G05
G00X3.743Y-6.2588
M15
G01X3.684Y-6.2588
M16
G05
G00X3.743Y-6.7076
M15
G01X3.684Y-6.7076
M16
G05
G00X3.743Y-6.8996
M15
G01X3.684Y-6.8996
M16
G05
G00X3.743Y-7.3484
M15
G01X3.684Y-7.3484
M16
G05
G00X3.743Y-7.5403
M15
G01X3.684Y-7.5403
M16
G05
G00X3.743Y-7.9891
M15
G01X3.684Y-7.9891
M16
G05
G00X3.743Y-8.1811
M15
G01X3.684Y-8.1811
M16
G05
G00X3.743Y-8.6299
M15
G01X3.684Y-8.6299
M16
G05
G00X3.743Y-8.8218
M15
G01X3.684Y-8.8218
M16
G05
G00X3.743Y-9.2706
M15
G01X3.684Y-9.2706
M16
G05
G00X3.743Y-9.4626
M15
G01X3.684Y-9.4626
M16
G05
G00X3.743Y-9.9114
M15
G01X3.684Y-9.9114
M16
G05
G00X3.743Y-10.1033
M15
G01X3.684Y-10.1033
M16
G05
G00X3.743Y-10.5521
M15
G01X3.684Y-10.5521
M16
G05
G00X3.743Y-10.744
M15
G01X3.684Y-10.744
M16
G05
G00X3.743Y-11.1928
M15
G01X3.684Y-11.1928
M16
G05
G00X3.743Y-11.3848
M15
G01X3.684Y-11.3848
M16
G05
G00X3.743Y-11.8336
M15
G01X3.684Y-11.8336
M16
G05
G00X3.743Y-12.0255
M15
G01X3.684Y-12.0255
M16
G05
G00X3.743Y-12.4743
M15
G01X3.684Y-12.4743
M16
G05
G00X3.743Y-12.6663
M15
G01X3.684Y-12.6663
M16
G05
G00X3.743Y-13.1151
M15
G01X3.684Y-13.1151
M16
G05
G00X3.743Y-13.307
M15
G01X3.684Y-13.307
M16
G05
G00X3.743Y-13.7558
M15
G01X3.684Y-13.7558
M16
G05
G00X3.743Y-13.9478
M15
G01X3.684Y-13.9478
M16
G05
G00X3.743Y-14.3966
M15
G01X3.684Y-14.3966
M16
G05
G00X3.743Y-14.5885
M15
G01X3.684Y-14.5885
M16
G05
G00X3.743Y-15.0373
M15
G01X3.684Y-15.0373
M16
G05
G00X3.743Y-15.2293
M15
G01X3.684Y-15.2293
M16
G05
G00X3.743Y-15.6781
M15
G01X3.684Y-15.6781
M16
G05
G00X3.743Y-15.87
M15
G01X3.684Y-15.87
M16
G05
G00X3.743Y-16.3188
M15
G01X3.684Y-16.3188
M16
G05
T0
M30
