G04 #@! TF.GenerationSoftware,KiCad,Pcbnew,6.0.0-rc2-unknown-a17a58203b~144~ubuntu21.04.1*
G04 #@! TF.CreationDate,2022-06-23T18:37:22+02:00*
G04 #@! TF.ProjectId,out,6f75742e-6b69-4636-9164-5f7063625858,rev?*
G04 #@! TF.SameCoordinates,Original*
G04 #@! TF.FileFunction,Legend,Bot*
G04 #@! TF.FilePolarity,Positive*
%FSLAX46Y46*%
G04 Gerber Fmt 4.6, Leading zero omitted, Abs format (unit mm)*
G04 Created by KiCad (PCBNEW 6.0.0-rc2-unknown-a17a58203b~144~ubuntu21.04.1) date 2022-06-23 18:37:22*
%MOMM*%
%LPD*%
G01*
G04 APERTURE LIST*
G04 Aperture macros list*
%AMRoundRect*
0 Rectangle with rounded corners*
0 $1 Rounding radius*
0 $2 $3 $4 $5 $6 $7 $8 $9 X,Y pos of 4 corners*
0 Add a 4 corners polygon primitive as box body*
4,1,4,$2,$3,$4,$5,$6,$7,$8,$9,$2,$3,0*
0 Add four circle primitives for the rounded corners*
1,1,$1+$1,$2,$3*
1,1,$1+$1,$4,$5*
1,1,$1+$1,$6,$7*
1,1,$1+$1,$8,$9*
0 Add four rect primitives between the rounded corners*
20,1,$1+$1,$2,$3,$4,$5,0*
20,1,$1+$1,$4,$5,$6,$7,0*
20,1,$1+$1,$6,$7,$8,$9,0*
20,1,$1+$1,$8,$9,$2,$3,0*%
G04 Aperture macros list end*
%ADD10RoundRect,0.750000X1.000060X0.750000X-1.000060X0.750000X-1.000060X-0.750000X1.000060X-0.750000X0*%
%ADD11O,3.500120X1.501140*%
%ADD12C,1.099820*%
%ADD13RoundRect,0.750000X-1.000060X-0.750000X1.000060X-0.750000X1.000060X0.750000X-1.000060X0.750000X0*%
%ADD14C,2.000000*%
%ADD15C,1.700000*%
%ADD16R,2.000000X2.000000*%
G04 APERTURE END LIST*
%LPC*%
D10*
X94334999Y-252454999D03*
X94334999Y-239654999D03*
D11*
X94323179Y-240348839D03*
X94323179Y-251748359D03*
D12*
X94323179Y-248299039D03*
X94323179Y-243798159D03*
D11*
X12776820Y-158851639D03*
D13*
X12765000Y-158144999D03*
X12765000Y-170944999D03*
D11*
X12776820Y-170251159D03*
D12*
X12776820Y-162300959D03*
X12776820Y-166801839D03*
D11*
X56326820Y-240226639D03*
D13*
X56315000Y-252319999D03*
X56315000Y-239519999D03*
D11*
X56326820Y-251626159D03*
D12*
X56326820Y-243675959D03*
X56326820Y-248176839D03*
D11*
X56326820Y-305326640D03*
D13*
X56315000Y-304620000D03*
D11*
X56326820Y-316726160D03*
D13*
X56315000Y-317420000D03*
D12*
X56326820Y-308775960D03*
X56326820Y-313276840D03*
D11*
X94323179Y-28773839D03*
D10*
X94334999Y-40879999D03*
X94334999Y-28079999D03*
D11*
X94323179Y-40173359D03*
D12*
X94323179Y-36724039D03*
X94323179Y-32223159D03*
D11*
X56326820Y-105151160D03*
D13*
X56315000Y-93045000D03*
D11*
X56326820Y-93751640D03*
D13*
X56315000Y-105845000D03*
D12*
X56326820Y-97200960D03*
X56326820Y-101701840D03*
D11*
X94323179Y-333123359D03*
X94323179Y-321723839D03*
D10*
X94334999Y-333829999D03*
X94334999Y-321029999D03*
D12*
X94323179Y-329674039D03*
X94323179Y-325173159D03*
D11*
X94323179Y-414498359D03*
D10*
X94334999Y-402404999D03*
X94334999Y-415204999D03*
D11*
X94323179Y-403098839D03*
D12*
X94323179Y-411049039D03*
X94323179Y-406548159D03*
D11*
X50773179Y-207798839D03*
D10*
X50784999Y-207104999D03*
X50784999Y-219904999D03*
D11*
X50773179Y-219198359D03*
D12*
X50773179Y-215749039D03*
X50773179Y-211248159D03*
D11*
X94323179Y-349398360D03*
D10*
X94334999Y-337305000D03*
X94334999Y-350105000D03*
D11*
X94323179Y-337998840D03*
D12*
X94323179Y-345949040D03*
X94323179Y-341448160D03*
D13*
X56315000Y-268595000D03*
X56315000Y-255795000D03*
D11*
X56326820Y-256501640D03*
X56326820Y-267901160D03*
D12*
X56326820Y-259950960D03*
X56326820Y-264451840D03*
D10*
X50784999Y-89705000D03*
X50784999Y-76905000D03*
D11*
X50773179Y-88998360D03*
X50773179Y-77598840D03*
D12*
X50773179Y-85549040D03*
X50773179Y-81048160D03*
D11*
X12776820Y-28651639D03*
X12776820Y-40051159D03*
D13*
X12765000Y-27944999D03*
X12765000Y-40744999D03*
D12*
X12776820Y-32100959D03*
X12776820Y-36601839D03*
D11*
X50773179Y-337998840D03*
D10*
X50784999Y-350105000D03*
D11*
X50773179Y-349398360D03*
D10*
X50784999Y-337305000D03*
D12*
X50773179Y-345949040D03*
X50773179Y-341448160D03*
D13*
X56315000Y-57020000D03*
D11*
X56326820Y-56326160D03*
X56326820Y-44926640D03*
D13*
X56315000Y-44220000D03*
D12*
X56326820Y-48375960D03*
X56326820Y-52876840D03*
D11*
X50773179Y-110148840D03*
D10*
X50784999Y-122255000D03*
X50784999Y-109455000D03*
D11*
X50773179Y-121548360D03*
D12*
X50773179Y-118099040D03*
X50773179Y-113598160D03*
D11*
X56326820Y-386701640D03*
D13*
X56315000Y-398795000D03*
D11*
X56326820Y-398101160D03*
D13*
X56315000Y-385995000D03*
D12*
X56326820Y-390150960D03*
X56326820Y-394651840D03*
D11*
X50773179Y-235473359D03*
D10*
X50784999Y-223379999D03*
D11*
X50773179Y-224073839D03*
D10*
X50784999Y-236179999D03*
D12*
X50773179Y-232024039D03*
X50773179Y-227523159D03*
D13*
X12765000Y-366244999D03*
D11*
X12776820Y-354151639D03*
X12776820Y-365551159D03*
D13*
X12765000Y-353444999D03*
D12*
X12776820Y-357600959D03*
X12776820Y-362101839D03*
D10*
X94334999Y-109455000D03*
X94334999Y-122255000D03*
D11*
X94323179Y-110148840D03*
X94323179Y-121548360D03*
D12*
X94323179Y-118099040D03*
X94323179Y-113598160D03*
D10*
X94334999Y-207104999D03*
X94334999Y-219904999D03*
D11*
X94323179Y-219198359D03*
X94323179Y-207798839D03*
D12*
X94323179Y-215749039D03*
X94323179Y-211248159D03*
D11*
X12776820Y-414376159D03*
D13*
X12765000Y-415069999D03*
X12765000Y-402269999D03*
D11*
X12776820Y-402976639D03*
D12*
X12776820Y-406425959D03*
X12776820Y-410926839D03*
D10*
X94334999Y-11805000D03*
X94334999Y-24605000D03*
D11*
X94323179Y-23898360D03*
X94323179Y-12498840D03*
D12*
X94323179Y-20449040D03*
X94323179Y-15948160D03*
D11*
X56326820Y-333001159D03*
X56326820Y-321601639D03*
D13*
X56315000Y-320894999D03*
X56315000Y-333694999D03*
D12*
X56326820Y-325050959D03*
X56326820Y-329551839D03*
D11*
X94323179Y-268023360D03*
D10*
X94334999Y-255930000D03*
D11*
X94323179Y-256623840D03*
D10*
X94334999Y-268730000D03*
D12*
X94323179Y-264574040D03*
X94323179Y-260073160D03*
D11*
X94323179Y-186648360D03*
D10*
X94334999Y-187355000D03*
X94334999Y-174555000D03*
D11*
X94323179Y-175248840D03*
D12*
X94323179Y-183199040D03*
X94323179Y-178698160D03*
D13*
X56315000Y-158144999D03*
D11*
X56326820Y-170251159D03*
D13*
X56315000Y-170944999D03*
D11*
X56326820Y-158851639D03*
D12*
X56326820Y-162300959D03*
X56326820Y-166801839D03*
D10*
X50784999Y-252454999D03*
D11*
X50773179Y-240348839D03*
X50773179Y-251748359D03*
D10*
X50784999Y-239654999D03*
D12*
X50773179Y-248299039D03*
X50773179Y-243798159D03*
D13*
X12765000Y-236044999D03*
D11*
X12776820Y-235351159D03*
D13*
X12765000Y-223244999D03*
D11*
X12776820Y-223951639D03*
D12*
X12776820Y-227400959D03*
X12776820Y-231901839D03*
D13*
X12765000Y-268595000D03*
D11*
X12776820Y-256501640D03*
X12776820Y-267901160D03*
D13*
X12765000Y-255795000D03*
D12*
X12776820Y-259950960D03*
X12776820Y-264451840D03*
D10*
X94334999Y-93180000D03*
D11*
X94323179Y-93873840D03*
X94323179Y-105273360D03*
D10*
X94334999Y-105980000D03*
D12*
X94323179Y-101824040D03*
X94323179Y-97323160D03*
D11*
X94323179Y-300573359D03*
D10*
X94334999Y-288479999D03*
D11*
X94323179Y-289173839D03*
D10*
X94334999Y-301279999D03*
D12*
X94323179Y-297124039D03*
X94323179Y-292623159D03*
D11*
X50773179Y-170373359D03*
X50773179Y-158973839D03*
D10*
X50784999Y-158279999D03*
X50784999Y-171079999D03*
D12*
X50773179Y-166924039D03*
X50773179Y-162423159D03*
D11*
X50773179Y-398223360D03*
X50773179Y-386823840D03*
D10*
X50784999Y-386130000D03*
X50784999Y-398930000D03*
D12*
X50773179Y-394774040D03*
X50773179Y-390273160D03*
D10*
X94334999Y-236179999D03*
D11*
X94323179Y-235473359D03*
X94323179Y-224073839D03*
D10*
X94334999Y-223379999D03*
D12*
X94323179Y-232024039D03*
X94323179Y-227523159D03*
D11*
X50773179Y-202923359D03*
X50773179Y-191523839D03*
D10*
X50784999Y-190829999D03*
X50784999Y-203629999D03*
D12*
X50773179Y-199474039D03*
X50773179Y-194973159D03*
D11*
X50773179Y-40173359D03*
D10*
X50784999Y-40879999D03*
X50784999Y-28079999D03*
D11*
X50773179Y-28773839D03*
D12*
X50773179Y-36724039D03*
X50773179Y-32223159D03*
D11*
X50773179Y-23898360D03*
X50773179Y-12498840D03*
D10*
X50784999Y-24605000D03*
X50784999Y-11805000D03*
D12*
X50773179Y-20449040D03*
X50773179Y-15948160D03*
D13*
X12765000Y-89570000D03*
D11*
X12776820Y-88876160D03*
X12776820Y-77476640D03*
D13*
X12765000Y-76770000D03*
D12*
X12776820Y-80925960D03*
X12776820Y-85426840D03*
D13*
X56315000Y-415069999D03*
X56315000Y-402269999D03*
D11*
X56326820Y-414376159D03*
X56326820Y-402976639D03*
D12*
X56326820Y-406425959D03*
X56326820Y-410926839D03*
D13*
X56315000Y-206969999D03*
D11*
X56326820Y-207676639D03*
D13*
X56315000Y-219769999D03*
D11*
X56326820Y-219076159D03*
D12*
X56326820Y-211125959D03*
X56326820Y-215626839D03*
D13*
X56315000Y-190694999D03*
D11*
X56326820Y-202801159D03*
X56326820Y-191401639D03*
D13*
X56315000Y-203494999D03*
D12*
X56326820Y-194850959D03*
X56326820Y-199351839D03*
D11*
X50773179Y-256623840D03*
D10*
X50784999Y-268730000D03*
X50784999Y-255930000D03*
D11*
X50773179Y-268023360D03*
D12*
X50773179Y-264574040D03*
X50773179Y-260073160D03*
D11*
X56326820Y-88876160D03*
D13*
X56315000Y-89570000D03*
D11*
X56326820Y-77476640D03*
D13*
X56315000Y-76770000D03*
D12*
X56326820Y-80925960D03*
X56326820Y-85426840D03*
D10*
X50784999Y-317555000D03*
D11*
X50773179Y-316848360D03*
X50773179Y-305448840D03*
D10*
X50784999Y-304755000D03*
D12*
X50773179Y-313399040D03*
X50773179Y-308898160D03*
D11*
X12776820Y-153976159D03*
D13*
X12765000Y-141869999D03*
X12765000Y-154669999D03*
D11*
X12776820Y-142576639D03*
D12*
X12776820Y-146025959D03*
X12776820Y-150526839D03*
D10*
X50784999Y-154804999D03*
D11*
X50773179Y-142698839D03*
D10*
X50784999Y-142004999D03*
D11*
X50773179Y-154098359D03*
D12*
X50773179Y-150649039D03*
X50773179Y-146148159D03*
D11*
X56326820Y-126301639D03*
D13*
X56315000Y-125594999D03*
D11*
X56326820Y-137701159D03*
D13*
X56315000Y-138394999D03*
D12*
X56326820Y-129750959D03*
X56326820Y-134251839D03*
D14*
X103100000Y-422880000D03*
D11*
X12776820Y-337876640D03*
X12776820Y-349276160D03*
D13*
X12765000Y-349970000D03*
X12765000Y-337170000D03*
D12*
X12776820Y-341325960D03*
X12776820Y-345826840D03*
D11*
X50773179Y-321723839D03*
X50773179Y-333123359D03*
D10*
X50784999Y-333829999D03*
X50784999Y-321029999D03*
D12*
X50773179Y-329674039D03*
X50773179Y-325173159D03*
D10*
X50784999Y-301279999D03*
D11*
X50773179Y-300573359D03*
D10*
X50784999Y-288479999D03*
D11*
X50773179Y-289173839D03*
D12*
X50773179Y-297124039D03*
X50773179Y-292623159D03*
D11*
X94323179Y-77598840D03*
D10*
X94334999Y-89705000D03*
D11*
X94323179Y-88998360D03*
D10*
X94334999Y-76905000D03*
D12*
X94323179Y-85549040D03*
X94323179Y-81048160D03*
D11*
X94323179Y-137823359D03*
D10*
X94334999Y-125729999D03*
D11*
X94323179Y-126423839D03*
D10*
X94334999Y-138529999D03*
D12*
X94323179Y-134374039D03*
X94323179Y-129873159D03*
D14*
X103100000Y-4000000D03*
D13*
X56315000Y-301144999D03*
X56315000Y-288344999D03*
D11*
X56326820Y-289051639D03*
X56326820Y-300451159D03*
D12*
X56326820Y-292500959D03*
X56326820Y-297001839D03*
D11*
X12776820Y-305326640D03*
D13*
X12765000Y-304620000D03*
D11*
X12776820Y-316726160D03*
D13*
X12765000Y-317420000D03*
D12*
X12776820Y-308775960D03*
X12776820Y-313276840D03*
D13*
X56315000Y-187220000D03*
D11*
X56326820Y-175126640D03*
D13*
X56315000Y-174420000D03*
D11*
X56326820Y-186526160D03*
D12*
X56326820Y-178575960D03*
X56326820Y-183076840D03*
D11*
X56326820Y-354151639D03*
D13*
X56315000Y-366244999D03*
X56315000Y-353444999D03*
D11*
X56326820Y-365551159D03*
D12*
X56326820Y-357600959D03*
X56326820Y-362101839D03*
D11*
X12776820Y-386701640D03*
D13*
X12765000Y-398795000D03*
X12765000Y-385995000D03*
D11*
X12776820Y-398101160D03*
D12*
X12776820Y-390150960D03*
X12776820Y-394651840D03*
D11*
X56326820Y-349276160D03*
X56326820Y-337876640D03*
D13*
X56315000Y-349970000D03*
X56315000Y-337170000D03*
D12*
X56326820Y-341325960D03*
X56326820Y-345826840D03*
D11*
X94323179Y-191523839D03*
X94323179Y-202923359D03*
D10*
X94334999Y-190829999D03*
X94334999Y-203629999D03*
D12*
X94323179Y-199474039D03*
X94323179Y-194973159D03*
D11*
X56326820Y-153976159D03*
D13*
X56315000Y-154669999D03*
X56315000Y-141869999D03*
D11*
X56326820Y-142576639D03*
D12*
X56326820Y-146025959D03*
X56326820Y-150526839D03*
D10*
X50784999Y-187355000D03*
X50784999Y-174555000D03*
D11*
X50773179Y-175248840D03*
X50773179Y-186648360D03*
D12*
X50773179Y-183199040D03*
X50773179Y-178698160D03*
D13*
X56315000Y-223244999D03*
D11*
X56326820Y-223951639D03*
X56326820Y-235351159D03*
D13*
X56315000Y-236044999D03*
D12*
X56326820Y-227400959D03*
X56326820Y-231901839D03*
D13*
X12765000Y-206969999D03*
D11*
X12776820Y-207676639D03*
X12776820Y-219076159D03*
D13*
X12765000Y-219769999D03*
D12*
X12776820Y-211125959D03*
X12776820Y-215626839D03*
D13*
X56315000Y-382519999D03*
D11*
X56326820Y-381826159D03*
X56326820Y-370426639D03*
D13*
X56315000Y-369719999D03*
D12*
X56326820Y-373875959D03*
X56326820Y-378376839D03*
D10*
X94334999Y-353579999D03*
D11*
X94323179Y-365673359D03*
D10*
X94334999Y-366379999D03*
D11*
X94323179Y-354273839D03*
D12*
X94323179Y-362224039D03*
X94323179Y-357723159D03*
D11*
X12776820Y-251626159D03*
X12776820Y-240226639D03*
D13*
X12765000Y-239519999D03*
X12765000Y-252319999D03*
D12*
X12776820Y-243675959D03*
X12776820Y-248176839D03*
D11*
X12776820Y-191401639D03*
D13*
X12765000Y-203494999D03*
D11*
X12776820Y-202801159D03*
D13*
X12765000Y-190694999D03*
D12*
X12776820Y-194850959D03*
X12776820Y-199351839D03*
D11*
X56326820Y-110026640D03*
D13*
X56315000Y-109320000D03*
X56315000Y-122120000D03*
D11*
X56326820Y-121426160D03*
D12*
X56326820Y-113475960D03*
X56326820Y-117976840D03*
D11*
X12776820Y-105151160D03*
D13*
X12765000Y-93045000D03*
D11*
X12776820Y-93751640D03*
D13*
X12765000Y-105845000D03*
D12*
X12776820Y-97200960D03*
X12776820Y-101701840D03*
D13*
X12765000Y-122120000D03*
X12765000Y-109320000D03*
D11*
X12776820Y-110026640D03*
X12776820Y-121426160D03*
D12*
X12776820Y-113475960D03*
X12776820Y-117976840D03*
D13*
X12765000Y-288344999D03*
D11*
X12776820Y-289051639D03*
X12776820Y-300451159D03*
D13*
X12765000Y-301144999D03*
D12*
X12776820Y-292500959D03*
X12776820Y-297001839D03*
D10*
X50784999Y-60629999D03*
D11*
X50773179Y-61323839D03*
D10*
X50784999Y-73429999D03*
D11*
X50773179Y-72723359D03*
D12*
X50773179Y-69274039D03*
X50773179Y-64773159D03*
D11*
X94323179Y-386823840D03*
X94323179Y-398223360D03*
D10*
X94334999Y-386130000D03*
X94334999Y-398930000D03*
D12*
X94323179Y-394774040D03*
X94323179Y-390273160D03*
D10*
X50784999Y-44355000D03*
D11*
X50773179Y-45048840D03*
X50773179Y-56448360D03*
D10*
X50784999Y-57155000D03*
D12*
X50773179Y-52999040D03*
X50773179Y-48498160D03*
D11*
X56326820Y-12376640D03*
D13*
X56315000Y-24470000D03*
D11*
X56326820Y-23776160D03*
D13*
X56315000Y-11670000D03*
D12*
X56326820Y-15825960D03*
X56326820Y-20326840D03*
D10*
X50784999Y-402404999D03*
D11*
X50773179Y-414498359D03*
X50773179Y-403098839D03*
D10*
X50784999Y-415204999D03*
D12*
X50773179Y-411049039D03*
X50773179Y-406548159D03*
D13*
X12765000Y-60494999D03*
X12765000Y-73294999D03*
D11*
X12776820Y-72601159D03*
X12776820Y-61201639D03*
D12*
X12776820Y-64650959D03*
X12776820Y-69151839D03*
D10*
X50784999Y-366379999D03*
D11*
X50773179Y-365673359D03*
X50773179Y-354273839D03*
D10*
X50784999Y-353579999D03*
D12*
X50773179Y-362224039D03*
X50773179Y-357723159D03*
D11*
X56326820Y-28651639D03*
X56326820Y-40051159D03*
D13*
X56315000Y-40744999D03*
X56315000Y-27944999D03*
D12*
X56326820Y-32100959D03*
X56326820Y-36601839D03*
D11*
X12776820Y-321601639D03*
D13*
X12765000Y-320894999D03*
D11*
X12776820Y-333001159D03*
D13*
X12765000Y-333694999D03*
D12*
X12776820Y-325050959D03*
X12776820Y-329551839D03*
D14*
X4000000Y-4000000D03*
D11*
X12776820Y-12376640D03*
X12776820Y-23776160D03*
D13*
X12765000Y-24470000D03*
X12765000Y-11670000D03*
D12*
X12776820Y-15825960D03*
X12776820Y-20326840D03*
D11*
X94323179Y-381948359D03*
X94323179Y-370548839D03*
D10*
X94334999Y-382654999D03*
X94334999Y-369854999D03*
D12*
X94323179Y-378499039D03*
X94323179Y-373998159D03*
D13*
X12765000Y-382519999D03*
D11*
X12776820Y-370426639D03*
X12776820Y-381826159D03*
D13*
X12765000Y-369719999D03*
D12*
X12776820Y-373875959D03*
X12776820Y-378376839D03*
D11*
X94323179Y-316848360D03*
D10*
X94334999Y-304755000D03*
D11*
X94323179Y-305448840D03*
D10*
X94334999Y-317555000D03*
D12*
X94323179Y-313399040D03*
X94323179Y-308898160D03*
D13*
X12765000Y-272069999D03*
D11*
X12776820Y-272776639D03*
X12776820Y-284176159D03*
D13*
X12765000Y-284869999D03*
D12*
X12776820Y-276225959D03*
X12776820Y-280726839D03*
D10*
X94334999Y-57155000D03*
D11*
X94323179Y-45048840D03*
D10*
X94334999Y-44355000D03*
D11*
X94323179Y-56448360D03*
D12*
X94323179Y-52999040D03*
X94323179Y-48498160D03*
D11*
X12776820Y-186526160D03*
D13*
X12765000Y-174420000D03*
X12765000Y-187220000D03*
D11*
X12776820Y-175126640D03*
D12*
X12776820Y-178575960D03*
X12776820Y-183076840D03*
D10*
X50784999Y-369854999D03*
D11*
X50773179Y-370548839D03*
D10*
X50784999Y-382654999D03*
D11*
X50773179Y-381948359D03*
D12*
X50773179Y-378499039D03*
X50773179Y-373998159D03*
D11*
X12776820Y-56326160D03*
D13*
X12765000Y-44220000D03*
X12765000Y-57020000D03*
D11*
X12776820Y-44926640D03*
D12*
X12776820Y-48375960D03*
X12776820Y-52876840D03*
D11*
X94323179Y-154098359D03*
X94323179Y-142698839D03*
D10*
X94334999Y-142004999D03*
X94334999Y-154804999D03*
D12*
X94323179Y-150649039D03*
X94323179Y-146148159D03*
D10*
X50784999Y-138529999D03*
D11*
X50773179Y-126423839D03*
X50773179Y-137823359D03*
D10*
X50784999Y-125729999D03*
D12*
X50773179Y-134374039D03*
X50773179Y-129873159D03*
D10*
X94334999Y-158279999D03*
D11*
X94323179Y-170373359D03*
X94323179Y-158973839D03*
D10*
X94334999Y-171079999D03*
D12*
X94323179Y-166924039D03*
X94323179Y-162423159D03*
D11*
X50773179Y-284298359D03*
D10*
X50784999Y-272204999D03*
X50784999Y-285004999D03*
D11*
X50773179Y-272898839D03*
D12*
X50773179Y-280849039D03*
X50773179Y-276348159D03*
D11*
X94323179Y-272898839D03*
D10*
X94334999Y-285004999D03*
X94334999Y-272204999D03*
D11*
X94323179Y-284298359D03*
D12*
X94323179Y-280849039D03*
X94323179Y-276348159D03*
D11*
X56326820Y-284176159D03*
D13*
X56315000Y-284869999D03*
D11*
X56326820Y-272776639D03*
D13*
X56315000Y-272069999D03*
D12*
X56326820Y-276225959D03*
X56326820Y-280726839D03*
D11*
X56326820Y-61201639D03*
D13*
X56315000Y-60494999D03*
X56315000Y-73294999D03*
D11*
X56326820Y-72601159D03*
D12*
X56326820Y-64650959D03*
X56326820Y-69151839D03*
D14*
X4000000Y-422880000D03*
D11*
X50773179Y-93873840D03*
D10*
X50784999Y-93180000D03*
X50784999Y-105980000D03*
D11*
X50773179Y-105273360D03*
D12*
X50773179Y-101824040D03*
X50773179Y-97323160D03*
D10*
X94334999Y-73429999D03*
D11*
X94323179Y-72723359D03*
X94323179Y-61323839D03*
D10*
X94334999Y-60629999D03*
D12*
X94323179Y-69274039D03*
X94323179Y-64773159D03*
D11*
X12776820Y-137701159D03*
D13*
X12765000Y-125594999D03*
D11*
X12776820Y-126301639D03*
D13*
X12765000Y-138394999D03*
D12*
X12776820Y-129750959D03*
X12776820Y-134251839D03*
D15*
X56290000Y-95665000D03*
X57540000Y-98170000D03*
X57540000Y-100670000D03*
X56290000Y-103275000D03*
X55040000Y-98170000D03*
X55040000Y-100670000D03*
X50809999Y-233559999D03*
X49559999Y-231054999D03*
X49559999Y-228554999D03*
X50809999Y-225949999D03*
X52059999Y-231054999D03*
X52059999Y-228554999D03*
X50809999Y-87085000D03*
X49559999Y-84580000D03*
X49559999Y-82080000D03*
X50809999Y-79475000D03*
X52059999Y-84580000D03*
X52059999Y-82080000D03*
X12740000Y-372339999D03*
X13990000Y-374844999D03*
X13990000Y-377344999D03*
X12740000Y-379949999D03*
X11490000Y-374844999D03*
X11490000Y-377344999D03*
X12740000Y-177040000D03*
X13990000Y-179545000D03*
X13990000Y-182045000D03*
X12740000Y-184650000D03*
X11490000Y-179545000D03*
X11490000Y-182045000D03*
X12740000Y-290964999D03*
X13990000Y-293469999D03*
X13990000Y-295969999D03*
X12740000Y-298574999D03*
X11490000Y-293469999D03*
X11490000Y-295969999D03*
X12740000Y-258415000D03*
X13990000Y-260920000D03*
X13990000Y-263420000D03*
X12740000Y-266025000D03*
X11490000Y-260920000D03*
X11490000Y-263420000D03*
X12740000Y-404889999D03*
X13990000Y-407394999D03*
X13990000Y-409894999D03*
X12740000Y-412499999D03*
X11490000Y-407394999D03*
X11490000Y-409894999D03*
X56290000Y-193314999D03*
X57540000Y-195819999D03*
X57540000Y-198319999D03*
X56290000Y-200924999D03*
X55040000Y-195819999D03*
X55040000Y-198319999D03*
X12740000Y-46840000D03*
X13990000Y-49345000D03*
X13990000Y-51845000D03*
X12740000Y-54450000D03*
X11490000Y-49345000D03*
X11490000Y-51845000D03*
X56290000Y-111940000D03*
X57540000Y-114445000D03*
X57540000Y-116945000D03*
X56290000Y-119550000D03*
X55040000Y-114445000D03*
X55040000Y-116945000D03*
X12740000Y-193314999D03*
X13990000Y-195819999D03*
X13990000Y-198319999D03*
X12740000Y-200924999D03*
X11490000Y-195819999D03*
X11490000Y-198319999D03*
X94359999Y-135909999D03*
X93109999Y-133404999D03*
X93109999Y-130904999D03*
X94359999Y-128299999D03*
X95609999Y-133404999D03*
X95609999Y-130904999D03*
X94359999Y-103360000D03*
X93109999Y-100855000D03*
X93109999Y-98355000D03*
X94359999Y-95750000D03*
X95609999Y-100855000D03*
X95609999Y-98355000D03*
X50809999Y-184735000D03*
X49559999Y-182230000D03*
X49559999Y-179730000D03*
X50809999Y-177125000D03*
X52059999Y-182230000D03*
X52059999Y-179730000D03*
X12740000Y-356064999D03*
X13990000Y-358569999D03*
X13990000Y-361069999D03*
X12740000Y-363674999D03*
X11490000Y-358569999D03*
X11490000Y-361069999D03*
X94359999Y-347485000D03*
X93109999Y-344980000D03*
X93109999Y-342480000D03*
X94359999Y-339875000D03*
X95609999Y-344980000D03*
X95609999Y-342480000D03*
X94359999Y-331209999D03*
X93109999Y-328704999D03*
X93109999Y-326204999D03*
X94359999Y-323599999D03*
X95609999Y-328704999D03*
X95609999Y-326204999D03*
X94359999Y-168459999D03*
X93109999Y-165954999D03*
X93109999Y-163454999D03*
X94359999Y-160849999D03*
X95609999Y-165954999D03*
X95609999Y-163454999D03*
X94359999Y-233559999D03*
X93109999Y-231054999D03*
X93109999Y-228554999D03*
X94359999Y-225949999D03*
X95609999Y-231054999D03*
X95609999Y-228554999D03*
X56290000Y-290964999D03*
X57540000Y-293469999D03*
X57540000Y-295969999D03*
X56290000Y-298574999D03*
X55040000Y-293469999D03*
X55040000Y-295969999D03*
X94359999Y-412584999D03*
X93109999Y-410079999D03*
X93109999Y-407579999D03*
X94359999Y-404974999D03*
X95609999Y-410079999D03*
X95609999Y-407579999D03*
X12740000Y-323514999D03*
X13990000Y-326019999D03*
X13990000Y-328519999D03*
X12740000Y-331124999D03*
X11490000Y-326019999D03*
X11490000Y-328519999D03*
X12740000Y-111940000D03*
X13990000Y-114445000D03*
X13990000Y-116945000D03*
X12740000Y-119550000D03*
X11490000Y-114445000D03*
X11490000Y-116945000D03*
X50809999Y-54535000D03*
X49559999Y-52030000D03*
X49559999Y-49530000D03*
X50809999Y-46925000D03*
X52059999Y-52030000D03*
X52059999Y-49530000D03*
X94359999Y-266110000D03*
X93109999Y-263605000D03*
X93109999Y-261105000D03*
X94359999Y-258500000D03*
X95609999Y-263605000D03*
X95609999Y-261105000D03*
X56290000Y-339790000D03*
X57540000Y-342295000D03*
X57540000Y-344795000D03*
X56290000Y-347400000D03*
X55040000Y-342295000D03*
X55040000Y-344795000D03*
X94359999Y-217284999D03*
X93109999Y-214779999D03*
X93109999Y-212279999D03*
X94359999Y-209674999D03*
X95609999Y-214779999D03*
X95609999Y-212279999D03*
X12740000Y-14290000D03*
X13990000Y-16795000D03*
X13990000Y-19295000D03*
X12740000Y-21900000D03*
X11490000Y-16795000D03*
X11490000Y-19295000D03*
X94359999Y-363759999D03*
X93109999Y-361254999D03*
X93109999Y-358754999D03*
X94359999Y-356149999D03*
X95609999Y-361254999D03*
X95609999Y-358754999D03*
X56290000Y-225864999D03*
X57540000Y-228369999D03*
X57540000Y-230869999D03*
X56290000Y-233474999D03*
X55040000Y-228369999D03*
X55040000Y-230869999D03*
X12740000Y-274689999D03*
X13990000Y-277194999D03*
X13990000Y-279694999D03*
X12740000Y-282299999D03*
X11490000Y-277194999D03*
X11490000Y-279694999D03*
X94359999Y-54535000D03*
X93109999Y-52030000D03*
X93109999Y-49530000D03*
X94359999Y-46925000D03*
X95609999Y-52030000D03*
X95609999Y-49530000D03*
X56290000Y-404889999D03*
X57540000Y-407394999D03*
X57540000Y-409894999D03*
X56290000Y-412499999D03*
X55040000Y-407394999D03*
X55040000Y-409894999D03*
X50809999Y-412584999D03*
X49559999Y-410079999D03*
X49559999Y-407579999D03*
X50809999Y-404974999D03*
X52059999Y-410079999D03*
X52059999Y-407579999D03*
X56290000Y-30564999D03*
X57540000Y-33069999D03*
X57540000Y-35569999D03*
X56290000Y-38174999D03*
X55040000Y-33069999D03*
X55040000Y-35569999D03*
X50809999Y-282384999D03*
X49559999Y-279879999D03*
X49559999Y-277379999D03*
X50809999Y-274774999D03*
X52059999Y-279879999D03*
X52059999Y-277379999D03*
X50809999Y-103360000D03*
X49559999Y-100855000D03*
X49559999Y-98355000D03*
X50809999Y-95750000D03*
X52059999Y-100855000D03*
X52059999Y-98355000D03*
X50809999Y-298659999D03*
X49559999Y-296154999D03*
X49559999Y-293654999D03*
X50809999Y-291049999D03*
X52059999Y-296154999D03*
X52059999Y-293654999D03*
X12740000Y-95665000D03*
X13990000Y-98170000D03*
X13990000Y-100670000D03*
X12740000Y-103275000D03*
X11490000Y-98170000D03*
X11490000Y-100670000D03*
X56290000Y-14290000D03*
X57540000Y-16795000D03*
X57540000Y-19295000D03*
X56290000Y-21900000D03*
X55040000Y-16795000D03*
X55040000Y-19295000D03*
X12740000Y-160764999D03*
X13990000Y-163269999D03*
X13990000Y-165769999D03*
X12740000Y-168374999D03*
X11490000Y-163269999D03*
X11490000Y-165769999D03*
D16*
X56550000Y-7575000D03*
D15*
X56290000Y-46840000D03*
X57540000Y-49345000D03*
X57540000Y-51845000D03*
X56290000Y-54450000D03*
X55040000Y-49345000D03*
X55040000Y-51845000D03*
X94359999Y-396310000D03*
X93109999Y-393805000D03*
X93109999Y-391305000D03*
X94359999Y-388700000D03*
X95609999Y-393805000D03*
X95609999Y-391305000D03*
X12740000Y-209589999D03*
X13990000Y-212094999D03*
X13990000Y-214594999D03*
X12740000Y-217199999D03*
X11490000Y-212094999D03*
X11490000Y-214594999D03*
X56290000Y-372339999D03*
X57540000Y-374844999D03*
X57540000Y-377344999D03*
X56290000Y-379949999D03*
X55040000Y-374844999D03*
X55040000Y-377344999D03*
X56290000Y-128214999D03*
X57540000Y-130719999D03*
X57540000Y-133219999D03*
X56290000Y-135824999D03*
X55040000Y-130719999D03*
X55040000Y-133219999D03*
X50809999Y-266110000D03*
X49559999Y-263605000D03*
X49559999Y-261105000D03*
X50809999Y-258500000D03*
X52059999Y-263605000D03*
X52059999Y-261105000D03*
X56290000Y-209589999D03*
X57540000Y-212094999D03*
X57540000Y-214594999D03*
X56290000Y-217199999D03*
X55040000Y-212094999D03*
X55040000Y-214594999D03*
X94359999Y-119635000D03*
X93109999Y-117130000D03*
X93109999Y-114630000D03*
X94359999Y-112025000D03*
X95609999Y-117130000D03*
X95609999Y-114630000D03*
X94359999Y-21985000D03*
X93109999Y-19480000D03*
X93109999Y-16980000D03*
X94359999Y-14375000D03*
X95609999Y-19480000D03*
X95609999Y-16980000D03*
X50809999Y-314935000D03*
X49559999Y-312430000D03*
X49559999Y-309930000D03*
X50809999Y-307325000D03*
X52059999Y-312430000D03*
X52059999Y-309930000D03*
X56290000Y-160764999D03*
X57540000Y-163269999D03*
X57540000Y-165769999D03*
X56290000Y-168374999D03*
X55040000Y-163269999D03*
X55040000Y-165769999D03*
X12740000Y-339790000D03*
X13990000Y-342295000D03*
X13990000Y-344795000D03*
X12740000Y-347400000D03*
X11490000Y-342295000D03*
X11490000Y-344795000D03*
X50809999Y-135909999D03*
X49559999Y-133404999D03*
X49559999Y-130904999D03*
X50809999Y-128299999D03*
X52059999Y-133404999D03*
X52059999Y-130904999D03*
X56290000Y-177040000D03*
X57540000Y-179545000D03*
X57540000Y-182045000D03*
X56290000Y-184650000D03*
X55040000Y-179545000D03*
X55040000Y-182045000D03*
X50809999Y-168459999D03*
X49559999Y-165954999D03*
X49559999Y-163454999D03*
X50809999Y-160849999D03*
X52059999Y-165954999D03*
X52059999Y-163454999D03*
X50809999Y-201009999D03*
X49559999Y-198504999D03*
X49559999Y-196004999D03*
X50809999Y-193399999D03*
X52059999Y-198504999D03*
X52059999Y-196004999D03*
X56290000Y-307240000D03*
X57540000Y-309745000D03*
X57540000Y-312245000D03*
X56290000Y-314850000D03*
X55040000Y-309745000D03*
X55040000Y-312245000D03*
X94359999Y-282384999D03*
X93109999Y-279879999D03*
X93109999Y-277379999D03*
X94359999Y-274774999D03*
X95609999Y-279879999D03*
X95609999Y-277379999D03*
X56290000Y-323514999D03*
X57540000Y-326019999D03*
X57540000Y-328519999D03*
X56290000Y-331124999D03*
X55040000Y-326019999D03*
X55040000Y-328519999D03*
X50809999Y-217284999D03*
X49559999Y-214779999D03*
X49559999Y-212279999D03*
X50809999Y-209674999D03*
X52059999Y-214779999D03*
X52059999Y-212279999D03*
X12740000Y-144489999D03*
X13990000Y-146994999D03*
X13990000Y-149494999D03*
X12740000Y-152099999D03*
X11490000Y-146994999D03*
X11490000Y-149494999D03*
X12740000Y-79390000D03*
X13990000Y-81895000D03*
X13990000Y-84395000D03*
X12740000Y-87000000D03*
X11490000Y-81895000D03*
X11490000Y-84395000D03*
X94359999Y-380034999D03*
X93109999Y-377529999D03*
X93109999Y-375029999D03*
X94359999Y-372424999D03*
X95609999Y-377529999D03*
X95609999Y-375029999D03*
X50809999Y-70809999D03*
X49559999Y-68304999D03*
X49559999Y-65804999D03*
X50809999Y-63199999D03*
X52059999Y-68304999D03*
X52059999Y-65804999D03*
X94359999Y-249834999D03*
X93109999Y-247329999D03*
X93109999Y-244829999D03*
X94359999Y-242224999D03*
X95609999Y-247329999D03*
X95609999Y-244829999D03*
X94359999Y-87085000D03*
X93109999Y-84580000D03*
X93109999Y-82080000D03*
X94359999Y-79475000D03*
X95609999Y-84580000D03*
X95609999Y-82080000D03*
X94359999Y-314935000D03*
X93109999Y-312430000D03*
X93109999Y-309930000D03*
X94359999Y-307325000D03*
X95609999Y-312430000D03*
X95609999Y-309930000D03*
X12740000Y-225864999D03*
X13990000Y-228369999D03*
X13990000Y-230869999D03*
X12740000Y-233474999D03*
X11490000Y-228369999D03*
X11490000Y-230869999D03*
X94359999Y-38259999D03*
X93109999Y-35754999D03*
X93109999Y-33254999D03*
X94359999Y-30649999D03*
X95609999Y-35754999D03*
X95609999Y-33254999D03*
X56290000Y-242139999D03*
X57540000Y-244644999D03*
X57540000Y-247144999D03*
X56290000Y-249749999D03*
X55040000Y-244644999D03*
X55040000Y-247144999D03*
X56290000Y-274689999D03*
X57540000Y-277194999D03*
X57540000Y-279694999D03*
X56290000Y-282299999D03*
X55040000Y-277194999D03*
X55040000Y-279694999D03*
X56290000Y-63114999D03*
X57540000Y-65619999D03*
X57540000Y-68119999D03*
X56290000Y-70724999D03*
X55040000Y-65619999D03*
X55040000Y-68119999D03*
X50809999Y-363759999D03*
X49559999Y-361254999D03*
X49559999Y-358754999D03*
X50809999Y-356149999D03*
X52059999Y-361254999D03*
X52059999Y-358754999D03*
X50809999Y-38259999D03*
X49559999Y-35754999D03*
X49559999Y-33254999D03*
X50809999Y-30649999D03*
X52059999Y-35754999D03*
X52059999Y-33254999D03*
X50809999Y-380034999D03*
X49559999Y-377529999D03*
X49559999Y-375029999D03*
X50809999Y-372424999D03*
X52059999Y-377529999D03*
X52059999Y-375029999D03*
X50809999Y-249834999D03*
X49559999Y-247329999D03*
X49559999Y-244829999D03*
X50809999Y-242224999D03*
X52059999Y-247329999D03*
X52059999Y-244829999D03*
X50809999Y-119635000D03*
X49559999Y-117130000D03*
X49559999Y-114630000D03*
X50809999Y-112025000D03*
X52059999Y-117130000D03*
X52059999Y-114630000D03*
D16*
X13000000Y-7575000D03*
D15*
X56290000Y-356064999D03*
X57540000Y-358569999D03*
X57540000Y-361069999D03*
X56290000Y-363674999D03*
X55040000Y-358569999D03*
X55040000Y-361069999D03*
X50809999Y-21985000D03*
X49559999Y-19480000D03*
X49559999Y-16980000D03*
X50809999Y-14375000D03*
X52059999Y-19480000D03*
X52059999Y-16980000D03*
X50809999Y-347485000D03*
X49559999Y-344980000D03*
X49559999Y-342480000D03*
X50809999Y-339875000D03*
X52059999Y-344980000D03*
X52059999Y-342480000D03*
X12740000Y-242139999D03*
X13990000Y-244644999D03*
X13990000Y-247144999D03*
X12740000Y-249749999D03*
X11490000Y-244644999D03*
X11490000Y-247144999D03*
X56290000Y-388615000D03*
X57540000Y-391120000D03*
X57540000Y-393620000D03*
X56290000Y-396225000D03*
X55040000Y-391120000D03*
X55040000Y-393620000D03*
X12740000Y-63114999D03*
X13990000Y-65619999D03*
X13990000Y-68119999D03*
X12740000Y-70724999D03*
X11490000Y-65619999D03*
X11490000Y-68119999D03*
D16*
X50530000Y-424325000D03*
D15*
X94359999Y-298659999D03*
X93109999Y-296154999D03*
X93109999Y-293654999D03*
X94359999Y-291049999D03*
X95609999Y-296154999D03*
X95609999Y-293654999D03*
X56290000Y-144489999D03*
X57540000Y-146994999D03*
X57540000Y-149494999D03*
X56290000Y-152099999D03*
X55040000Y-146994999D03*
X55040000Y-149494999D03*
X50809999Y-152184999D03*
X49559999Y-149679999D03*
X49559999Y-147179999D03*
X50809999Y-144574999D03*
X52059999Y-149679999D03*
X52059999Y-147179999D03*
X56290000Y-258415000D03*
X57540000Y-260920000D03*
X57540000Y-263420000D03*
X56290000Y-266025000D03*
X55040000Y-260920000D03*
X55040000Y-263420000D03*
D16*
X94080000Y-424325000D03*
D15*
X50809999Y-396310000D03*
X49559999Y-393805000D03*
X49559999Y-391305000D03*
X50809999Y-388700000D03*
X52059999Y-393805000D03*
X52059999Y-391305000D03*
X56290000Y-79390000D03*
X57540000Y-81895000D03*
X57540000Y-84395000D03*
X56290000Y-87000000D03*
X55040000Y-81895000D03*
X55040000Y-84395000D03*
X94359999Y-184735000D03*
X93109999Y-182230000D03*
X93109999Y-179730000D03*
X94359999Y-177125000D03*
X95609999Y-182230000D03*
X95609999Y-179730000D03*
X12740000Y-388615000D03*
X13990000Y-391120000D03*
X13990000Y-393620000D03*
X12740000Y-396225000D03*
X11490000Y-391120000D03*
X11490000Y-393620000D03*
X94359999Y-70809999D03*
X93109999Y-68304999D03*
X93109999Y-65804999D03*
X94359999Y-63199999D03*
X95609999Y-68304999D03*
X95609999Y-65804999D03*
X94359999Y-152184999D03*
X93109999Y-149679999D03*
X93109999Y-147179999D03*
X94359999Y-144574999D03*
X95609999Y-149679999D03*
X95609999Y-147179999D03*
X12740000Y-30564999D03*
X13990000Y-33069999D03*
X13990000Y-35569999D03*
X12740000Y-38174999D03*
X11490000Y-33069999D03*
X11490000Y-35569999D03*
X94359999Y-201009999D03*
X93109999Y-198504999D03*
X93109999Y-196004999D03*
X94359999Y-193399999D03*
X95609999Y-198504999D03*
X95609999Y-196004999D03*
X50809999Y-331209999D03*
X49559999Y-328704999D03*
X49559999Y-326204999D03*
X50809999Y-323599999D03*
X52059999Y-328704999D03*
X52059999Y-326204999D03*
X12740000Y-128214999D03*
X13990000Y-130719999D03*
X13990000Y-133219999D03*
X12740000Y-135824999D03*
X11490000Y-130719999D03*
X11490000Y-133219999D03*
X12740000Y-307240000D03*
X13990000Y-309745000D03*
X13990000Y-312245000D03*
X12740000Y-314850000D03*
X11490000Y-309745000D03*
X11490000Y-312245000D03*
M02*
